0
SECTION
2
HEADER
9
$INSUNITS
70
4
9
$ACADVER
1
AC1014
9
$HANDSEED
5
FFFF
0
ENDSEC
0
SECTION
2
TABLES
0
TABLE
2
VPORT
5
8
100
AcDbSymbolTable
0
ENDTAB
0
TABLE
2
LTYPE
5
5
100
AcDbSymbolTable
0
LTYPE
5
14
100
AcDbSymbolTableRecord
100
AcDbLinetypeTableRecord
2
BYBLOCK
70
0
0
LTYPE
5
15
100
AcDbSymbolTableRecord
100
AcDbLinetypeTableRecord
2
BYLAYER
70
0
0
LTYPE
5
16
100
AcDbSymbolTableRecord
100
AcDbLinetypeTableRecord
2
DASHED
70
0
3
Dashed __ __ __ __ __ __ __ __ __ __ __ __ __ _
72
65
73
2
40
0.75
49
0.5
74
0
49
-0.25
74
0
0
ENDTAB
0
TABLE
2
LAYER
5
2
100
AcDbSymbolTable
70
3
0
LAYER
5
50
100
AcDbSymbolTableRecord
100
AcDbLayerTableRecord
2
1
70
0
62
7
6
DASHED
0
LAYER
5
51
100
AcDbSymbolTableRecord
100
AcDbLayerTableRecord
2
0
70
0
62
7
6
CONTINUOUS
0
ENDTAB
0
TABLE
2
STYLE
5
3
100
AcDbSymbolTable
70
1
0
STYLE
5
11
100
AcDbSymbolTableRecord
100
AcDbTextStyleTableRecord
2
STANDARD
70
0
0
ENDTAB
0
TABLE
2
VIEW
5
6
100
AcDbSymbolTable
70
0
0
ENDTAB
0
TABLE
2
UCS
5
7
100
AcDbSymbolTable
70
0
0
ENDTAB
0
TABLE
2
APPID
5
9
100
AcDbSymbolTable
70
2
0
APPID
5
12
100
AcDbSymbolTableRecord
100
AcDbRegAppTableRecord
2
ACAD
70
0
0
ENDTAB
0
TABLE
2
DIMSTYLE
5
A
100
AcDbSymbolTable
70
1
0
ENDTAB
0
TABLE
2
BLOCK_RECORD
5
1
100
AcDbSymbolTable
70
1
0
BLOCK_RECORD
5
1F
100
AcDbSymbolTableRecord
100
AcDbBlockTableRecord
2
*MODEL_SPACE
0
BLOCK_RECORD
5
1B
100
AcDbSymbolTableRecord
100
AcDbBlockTableRecord
2
*PAPER_SPACE
0
ENDTAB
0
ENDSEC
0
SECTION
2
BLOCKS
0
BLOCK
5
20
100
AcDbEntity
100
AcDbBlockBegin
2
*MODEL_SPACE
0
ENDBLK
5
21
100
AcDbEntity
100
AcDbBlockEnd
0
BLOCK
5
1C
100
AcDbEntity
100
AcDbBlockBegin
2
*PAPER_SPACE
0
ENDBLK
5
1D
100
AcDbEntity
100
AcDbBlockEnd
0
ENDSEC
0
SECTION
2
ENTITIES
0
ARC
5
100
100
AcDbEntity
8
0
100
AcDbCircle
10
7.489445245814375
20
19.748044117337518
30
0
40
2.2532280289309972
210
0
220
0
230
1
100
AcDbArc
50
165.35497995769074
51
333.10655850384774
0
LINE
5
101
100
AcDbEntity
8
0
100
AcDbLine
10
5.3094227731670918
20
20.31772698447773
30
0
11
6.1771362102391265
21
23.638231956184189
31
0
0
SPLINE
5
102
100
AcDbEntity
8
0
100
AcDbSpline
70
4
71
5
72
56
73
50
74
0
42
0.000000001
43
0.0000000001
44
0.0000000001
40
0
40
0
40
0
40
0
40
0
40
0
40
0.022222222222222223
40
0.044444444444444446
40
0.066666666666666666
40
0.088888888888888892
40
0.11111111111111112
40
0.13333333333333333
40
0.15555555555555556
40
0.17777777777777778
40
0.20000000000000001
40
0.22222222222222224
40
0.24444444444444446
40
0.26666666666666666
40
0.28888888888888886
40
0.31111111111111106
40
0.33333333333333326
40
0.35555555555555546
40
0.37777777777777766
40
0.39999999999999986
40
0.42222222222222205
40
0.44444444444444425
40
0.46666666666666645
40
0.48888888888888865
40
0.51111111111111085
40
0.5333333333333331
40
0.55555555555555536
40
0.57777777777777761
40
0.59999999999999987
40
0.62222222222222212
40
0.64444444444444438
40
0.66666666666666663
40
0.68888888888888888
40
0.71111111111111114
40
0.73333333333333339
40
0.75555555555555565
40
0.7777777777777779
40
0.80000000000000016
40
0.82222222222222241
40
0.84444444444444466
40
0.86666666666666692
40
0.88888888888888917
40
0.91111111111111143
40
0.93333333333333368
40
0.95555555555555594
40
0.97777777777777819
40
1
40
1
40
1
40
1
40
1
40
1
41
1
41
1
41
1
41
1
41
1
41
1
41
1
41
1
41
1
41
1
41
1
41
1
41
1
41
1
41
1
41
1
41
1
41
1
41
1
41
1
41
1
41
1
41
1
41
1
41
1
41
1
41
1
41
1
41
1
41
1
41
1
41
1
41
1
41
1
41
1
41
1
41
1
41
1
41
1
41
1
41
1
41
1
41
1
41
1
41
1
41
1
41
1
41
1
41
1
41
1
10
6.1771362102391265
20
23.638231956184189
30
0
10
6.1816661097337828
20
23.663666486635936
30
0
10
6.1903459313400209
20
23.714606083178356
30
0
10
6.2022257276971668
20
23.791227085948119
30
0
10
6.2157837843187567
20
23.893811970259247
30
0
10
6.2289360172898345
20
24.022745923805747
30
0
10
6.2383343874325021
20
24.152369927643818
30
0
10
6.2440748079965918
20
24.282656057000516
30
0
10
6.2463325113711621
20
24.413554692192172
30
0
10
6.2453752252422454
20
24.544991055272195
30
0
10
6.2415167026368046
20
24.676877538020371
30
0
10
6.2350767442264496
20
24.809124318900402
30
0
10
6.2263416307802881
20
24.941649882203841
30
0
10
6.2155179287546698
20
25.074393293217895
30
0
10
6.2027100073649866
20
25.207320226090534
30
0
10
6.1879565631949784
20
25.340413426603277
30
0
10
6.1712564102729539
20
25.473666022507757
30
0
10
6.1525965459836582
20
25.607074232052764
30
0
10
6.13198385544103
20
25.740629150693426
30
0
10
6.1094594433535825
20
25.874313042681123
30
0
10
6.0850826017933324
20
26.008103504566094
30
0
10
6.0589215734002453
20
26.141975884232657
30
0
10
6.0310425167831454
20
26.275906167141635
30
0
10
6.0014973378395355
20
26.409874192346756
30
0
10
5.970319208575523
20
26.543864807451271
30
0
10
5.9375295859093473
20
26.67786594608306
30
0
10
5.9031425696486934
20
26.811867430294072
30
0
10
5.867170003564512
20
26.945859591637028
30
0
10
5.829627225239947
20
27.079831717229638
30
0
10
5.7905353331900233
20
27.21377148938808
30
0
10
5.7499182157968498
20
27.347665899322848
30
0
10
5.7078008851290907
20
27.481501823166074
30
0
10
5.6642074850306079
20
27.615266674057249
30
0
10
5.6191591851629301
20
27.748949173549121
30
0
10
5.5726732796903935
20
27.882539566960787
30
0
10
5.5247644785314893
20
28.016028858408649
30
0
10
5.4754457661597904
20
28.149408251746074
30
0
10
5.4247294240731749
20
28.282668569677796
30
0
10
5.372628196560493
20
28.415799553462513
30
0
10
5.3191559548837031
20
28.548789643671824
30
0
10
5.2643269205897658
20
28.681627006740051
30
0
10
5.2081552202265797
20
28.814300341156809
30
0
10
5.1506543658194568
20
28.946799744339458
30
0
10
5.0918368253642328
20
29.07911764511498
30
0
10
5.0317136057355736
20
29.211249482035562
30
0
10
4.9702938570126989
20
29.343192872644295
30
0
10
4.9201263804499309
20
29.448596162706512
30
0
10
4.8819224287823486
20
29.527563466480924
30
0
10
4.8561962924090913
20
29.580170515733485
30
0
10
4.8432690154022868
20
29.606464585364535
30
0
0
ARC
5
103
100
AcDbEntity
8
0
100
AcDbCircle
10
6.6613381477509392e-15
20
-3.3306690738754696e-13
30
0
40
30.000000000000334
210
0
220
-0
230
1
100
AcDbArc
50
80.709377585780089
51
85.444468568066128
0
SPLINE
5
104
100
AcDbEntity
8
0
100
AcDbSpline
70
4
71
5
72
56
73
50
74
0
42
0.000000001
43
0.0000000001
44
0.0000000001
40
-1
40
-1
40
-1
40
-1
40
-1
40
-1
40
-0.97777777777777819
40
-0.95555555555555594
40
-0.93333333333333368
40
-0.91111111111111143
40
-0.88888888888888917
40
-0.86666666666666692
40
-0.84444444444444466
40
-0.82222222222222241
40
-0.80000000000000016
40
-0.7777777777777779
40
-0.75555555555555565
40
-0.73333333333333339
40
-0.71111111111111114
40
-0.68888888888888888
40
-0.66666666666666663
40
-0.64444444444444438
40
-0.62222222222222212
40
-0.59999999999999987
40
-0.57777777777777761
40
-0.55555555555555536
40
-0.5333333333333331
40
-0.51111111111111085
40
-0.48888888888888865
40
-0.46666666666666645
40
-0.44444444444444425
40
-0.42222222222222205
40
-0.39999999999999986
40
-0.37777777777777766
40
-0.35555555555555546
40
-0.33333333333333326
40
-0.31111111111111106
40
-0.28888888888888886
40
-0.26666666666666666
40
-0.24444444444444446
40
-0.22222222222222224
40
-0.20000000000000001
40
-0.17777777777777778
40
-0.15555555555555556
40
-0.13333333333333333
40
-0.11111111111111112
40
-0.088888888888888892
40
-0.066666666666666666
40
-0.044444444444444446
40
-0.022222222222222223
40
0
40
0
40
0
40
0
40
0
40
0
41
1
41
1
41
1
41
1
41
1
41
1
41
1
41
1
41
1
41
1
41
1
41
1
41
1
41
1
41
1
41
1
41
1
41
1
41
1
41
1
41
1
41
1
41
1
41
1
41
1
41
1
41
1
41
1
41
1
41
1
41
1
41
1
41
1
41
1
41
1
41
1
41
1
41
1
41
1
41
1
41
1
41
1
41
1
41
1
41
1
41
1
41
1
41
1
41
1
41
1
10
2.3827583193545929
20
29.905224673818228
30
0
10
2.3639141027826582
20
29.882788361947444
30
0
10
2.3263458302389677
20
29.837866645352456
30
0
10
2.2703539032142115
20
29.770336791980231
30
0
10
2.1964195439653404
20
29.680002192943789
30
0
10
2.1052084213426183
20
29.566591545434786
30
0
10
2.0152110548806847
20
29.452687647799813
30
0
10
1.9264368989333389
20
29.338290623508627
30
0
10
1.8388977321613862
20
29.223402267344134
30
0
10
1.7526074721636598
20
29.108026946688131
30
0
10
1.6675816081737111
20
28.992171042732885
30
0
10
1.5838365608760956
20
28.875842147883226
30
0
10
1.5013889705230978
20
28.759048348403972
30
0
10
1.4202550716553013
20
28.641797548217266
30
0
10
1.3404496933131824
20
28.524096658056088
30
0
10
1.2619869563871247
20
28.405951649385347
30
0
10
1.1848815731011806
20
28.287367955363727
30
0
10
1.1091499787861969
20
28.168350790156889
30
0
10
1.0348112995174772
20
28.048905486228008
30
0
10
0.96188878891372898
20
27.929037928061543
30
0
10
0.89040890147547547
20
27.80875455876668
30
0
10
0.82039906321327127
20
27.688062135075722
30
0
10
0.75188558156335406
20
27.566967570902342
30
0
10
0.68489188977095217
20
27.445477776795741
30
0
10
0.61943544349746249
20
27.3235994838174
30
0
10
0.55553005616627571
20
27.201339245067189
30
0
10
0.49319185361270002
20
27.078703568435635
30
0
10
0.43244455692779682
20
26.955699034691378
30
0
10
0.37332400040534841
20
26.83233241734937
30
0
10
0.315885406482041
20
26.708610869621094
30
0
10
0.26019875837313411
20
26.584541875435448
30
0
10
0.20633621534890401
20
26.460133039029721
30
0
10
0.15436070805795732
20
26.33539192332854
30
0
10
0.10431639122315928
20
26.210325911711287
30
0
10
0.056212080886672289
20
26.084942002257311
30
0
10
0.01003605729799073
20
25.9592469785565
30
0
10
-0.034211186415648021
20
25.83324779698378
30
0
10
-0.076487948918108062
20
25.706951949682747
30
0
10
-0.1166846790596654
20
25.580367787870451
30
0
10
-0.15458623019861339
20
25.453505041018964
30
0
10
-0.18989513237895439
20
25.326374344665989
30
0
10
-0.22227938205489906
20
25.198986376987065
30
0
10
-0.25141337727287938
20
25.071351114452703
30
0
10
-0.27701927449281738
20
24.943477090669212
30
0
10
-0.29891505849259481
20
24.815370547606818
30
0
10
-0.31700092025111426
20
24.68703564505217
30
0
10
-0.32838700584873981
20
24.584187035711814
30
0
10
-0.33518902095867109
20
24.506949478672645
30
0
10
-0.33895206257782362
20
24.455412876953126
30
0
10
-0.34064067528025099
20
24.429633351824162
30
0
0
LINE
5
105
100
AcDbEntity
8
0
100
AcDbLine
10
-0.34064067528025099
20
24.429633351824162
30
0
11
-0.29279026675857639
21
20.997958802219117
31
0
0
ARC
5
106
100
AcDbEntity
8
0
100
AcDbCircle
10
-2.5457992821632653
20
20.966543410044906
30
0
40
2.2532280289309963
210
0
220
0
230
1
100
AcDbArc
50
-166.9527123500016
51
0.79886619615493148
0
LINE
5
107
100
AcDbEntity
8
0
100
AcDbLine
10
-4.7408581457045997
20
20.45786557885026
30
0
11
-5.5156516575474246
21
23.801273255160304
31
0
0
SPLINE
5
108
100
AcDbEntity
8
0
100
AcDbSpline
70
4
71
5
72
56
73
50
74
0
42
0.000000001
43
0.0000000001
44
0.0000000001
40
0
40
0
40
0
40
0
40
0
40
0
40
0.022222222222222223
40
0.044444444444444446
40
0.066666666666666666
40
0.088888888888888892
40
0.11111111111111112
40
0.13333333333333333
40
0.15555555555555556
40
0.17777777777777778
40
0.20000000000000001
40
0.22222222222222224
40
0.24444444444444446
40
0.26666666666666666
40
0.28888888888888886
40
0.31111111111111106
40
0.33333333333333326
40
0.35555555555555546
40
0.37777777777777766
40
0.39999999999999986
40
0.42222222222222205
40
0.44444444444444425
40
0.46666666666666645
40
0.48888888888888865
40
0.51111111111111085
40
0.5333333333333331
40
0.55555555555555536
40
0.57777777777777761
40
0.59999999999999987
40
0.62222222222222212
40
0.64444444444444438
40
0.66666666666666663
40
0.68888888888888888
40
0.71111111111111114
40
0.73333333333333339
40
0.75555555555555565
40
0.7777777777777779
40
0.80000000000000016
40
0.82222222222222241
40
0.84444444444444466
40
0.86666666666666692
40
0.88888888888888917
40
0.91111111111111143
40
0.93333333333333368
40
0.95555555555555594
40
0.97777777777777819
40
1
40
1
40
1
40
1
40
1
40
1
41
1
41
1
41
1
41
1
41
1
41
1
41
1
41
1
41
1
41
1
41
1
41
1
41
1
41
1
41
1
41
1
41
1
41
1
41
1
41
1
41
1
41
1
41
1
41
1
41
1
41
1
41
1
41
1
41
1
41
1
41
1
41
1
41
1
41
1
41
1
41
1
41
1
41
1
41
1
41
1
41
1
41
1
41
1
41
1
41
1
41
1
41
1
41
1
41
1
41
1
10
-5.5156516575474246
20
23.801273255160304
30
0
10
-5.5234606464152574
20
23.825899562670656
30
0
10
-5.5394478569602441
20
23.87503804960312
30
0
10
-5.5645363751446153
20
23.94840339484352
30
0
10
-5.6002048850536905
20
24.045538541877679
30
0
10
-5.6484777569949269
20
24.165816035382495
30
0
10
-5.7003951917574271
20
24.284960031034956
30
0
10
-5.7558592850871193
20
24.402990375786288
30
0
10
-5.8146918169924344
20
24.519944568140282
30
0
10
-5.8766209753360021
20
24.635880814773046
30
0
10
-5.9413282320395355
20
24.750867350760025
30
0
10
-6.008488675522087
20
24.864973261863199
30
0
10
-6.0778109345130158
20
24.978259410814449
30
0
10
-6.1490837857258356
20
25.090767838824
30
0
10
-6.2221988627910445
20
25.202516654652179
30
0
10
-6.2971138831502564
20
25.313508563646408
30
0
10
-6.3738267032361904
20
25.423736929584418
30
0
10
-6.4523470788254524
20
25.533192361275219
30
0
10
-6.5326647753040845
20
25.641870173807895
30
0
10
-6.6147351540468913
20
25.749773765267477
30
0
10
-6.6984953031291923
20
25.856910852784161
30
0
10
-6.7838733402848277
20
25.963291321929688
30
0
10
-6.8707995248621456
20
26.068924654324196
30
0
10
-6.9592185272125304
20
26.173817120209655
30
0
10
-7.0490939333134115
20
26.277970718604969
30
0
10
-7.1404011364845141
20
26.381384736795333
30
0
10
-7.2331229220378592
20
26.484056715162673
30
0
10
-7.3272443096836026
20
26.585983596796897
30
0
10
-7.4227467401416991
20
26.687163023642118
30
0
10
-7.519605807291776
20
26.787593893899793
30
0
10
-7.6177943135360415
20
26.887275790343587
30
0
10
-7.7172840128220708
20
26.986208716053497
30
0
10
-7.8180476774320891
20
27.084392746121747
30
0
10
-7.9200613212059636
20
27.181827732011527
30
0
10
-8.0233050976954097
20
27.278513073380747
30
0
10
-8.1277618013189077
20
27.37444764081005
30
0
10
-8.2334158471229273
20
27.46962967988415
30
0
10
-8.3402520954794017
20
27.564056772008307
30
0
10
-8.448254494406175
20
27.657725756084556
30
0
10
-8.5574053895765303
20
27.750632843044226
30
0
10
-8.6676866891038422
20
27.842774163867698
30
0
10
-8.7790806324773882
20
27.934146276498645
30
0
10
-8.8915706534333321
20
28.024746691986874
30
0
10
-9.0051421936100855
20
28.114574500558184
30
0
10
-9.1197833870936549
20
28.203630778400822
30
0
10
-9.2354850247083302
20
28.291917668207812
30
0
10
-9.3288894704242136
20
28.361933657675394
30
0
10
-9.3994153255298265
20
28.41410147102847
30
0
10
-9.4466424027988154
20
28.448727168081177
30
0
10
-9.4703084015646599
20
28.46600180529844
30
0
0
ARC
5
109
100
AcDbEntity
8
0
100
AcDbCircle
10
6.6613381477509392e-15
20
-3.3306690738754696e-13
30
0
40
30.000000000000323
210
0
220
0
230
1
100
AcDbArc
50
108.40168527808747
51
113.13677626037342
0
SPLINE
5
110
100
AcDbEntity
8
0
100
AcDbSpline
70
4
71
5
72
56
73
50
74
0
42
0.000000001
43
0.0000000001
44
0.0000000001
40
-1
40
-1
40
-1
40
-1
40
-1
40
-1
40
-0.97777777777777819
40
-0.95555555555555594
40
-0.93333333333333368
40
-0.91111111111111143
40
-0.88888888888888917
40
-0.86666666666666692
40
-0.84444444444444466
40
-0.82222222222222241
40
-0.80000000000000016
40
-0.7777777777777779
40
-0.75555555555555565
40
-0.73333333333333339
40
-0.71111111111111114
40
-0.68888888888888888
40
-0.66666666666666663
40
-0.64444444444444438
40
-0.62222222222222212
40
-0.59999999999999987
40
-0.57777777777777761
40
-0.55555555555555536
40
-0.5333333333333331
40
-0.51111111111111085
40
-0.48888888888888865
40
-0.46666666666666645
40
-0.44444444444444425
40
-0.42222222222222205
40
-0.39999999999999986
40
-0.37777777777777766
40
-0.35555555555555546
40
-0.33333333333333326
40
-0.31111111111111106
40
-0.28888888888888886
40
-0.26666666666666666
40
-0.24444444444444446
40
-0.22222222222222224
40
-0.20000000000000001
40
-0.17777777777777778
40
-0.15555555555555556
40
-0.13333333333333333
40
-0.11111111111111112
40
-0.088888888888888892
40
-0.066666666666666666
40
-0.044444444444444446
40
-0.022222222222222223
40
0
40
0
40
0
40
0
40
0
40
0
41
1
41
1
41
1
41
1
41
1
41
1
41
1
41
1
41
1
41
1
41
1
41
1
41
1
41
1
41
1
41
1
41
1
41
1
41
1
41
1
41
1
41
1
41
1
41
1
41
1
41
1
41
1
41
1
41
1
41
1
41
1
41
1
41
1
41
1
41
1
41
1
41
1
41
1
41
1
41
1
41
1
41
1
41
1
41
1
41
1
41
1
41
1
41
1
41
1
41
1
10
-11.787823159550543
20
27.587084390329544
30
0
10
-11.794082210641324
20
27.558460678690139
30
0
10
-11.806471101308842
20
27.501225627263715
30
0
10
-11.824666802814058
20
27.415410165748014
30
0
10
-11.84815184530426
20
27.301063840753066
30
0
10
-11.876210727583221
20
27.158255777312078
30
0
10
-11.902965657392786
20
27.015575023188031
30
0
10
-11.928408320697672
20
26.873026081365239
30
0
10
-11.952529122088901
20
26.730616014861674
30
0
10
-11.975317767768248
20
26.58835515863252
30
0
10
-11.996763508188435
20
26.44625636114867
30
0
10
-12.016855331921846
20
26.304333976223361
30
0
10
-12.035582262631451
20
26.16260289699931
30
0
10
-12.052933598481243
20
26.021077666619217
30
0
10
-12.068899420585728
20
25.879771295631947
30
0
10
-12.083470000595543
20
25.738695633812082
30
0
10
-12.096634836397993
20
25.597862329094127
30
0
10
-12.108381798373937
20
25.457283636271573
30
0
10
-12.118696429343965
20
25.316973165336464
30
0
10
-12.127560873907552
20
25.176946933236461
30
0
10
-12.134954702029946
20
25.037222939080817
30
0
10
-12.14085676919491
20
24.897819911161484
30
0
10
-12.145246994380399
20
24.758756197120206
30
0
10
-12.148107839970571
20
24.620048805916458
30
0
10
-12.149426977825105
20
24.481711809659533
30
0
10
-12.149195222142378
20
24.343757430249124
30
0
10
-12.147401318571882
20
24.206198924185447
30
0
10
-12.144027321366275
20
24.069053142190437
30
0
10
-12.139044648643562
20
23.932342734940406
30
0
10
-12.132407727627557
20
23.796099699435487
30
0
10
-12.124058069213785
20
23.660363185187418
30
0
10
-12.113935313406849
20
23.525173459498898
30
0
10
-12.101987252551067
20
23.390566464337748
30
0
10
-12.088178220808505
20
23.256569257084607
30
0
10
-12.072503664131137
20
23.123192131250075
30
0
10
-12.054977112334084
20
22.990435646965071
30
0
10
-12.035601361563479
20
22.858306192961336
30
0
10
-12.014342968892702
20
22.726829782779774
30
0
10
-11.991108812600189
20
22.596064722013644
30
0
10
-11.965712911306763
20
22.466119609312408
30
0
10
-11.93789681102826
20
22.337142103158545
30
0
10
-11.907371499620126
20
22.209295948347865
30
0
10
-11.873853307167629
20
22.082741293378977
30
0
10
-11.837100181198615
20
21.957614814716287
30
0
10
-11.7969538560261
20
21.834006626041322
30
0
10
-11.753327888300189
20
21.711966794227131
30
0
10
-11.715613634428269
20
21.615607495540573
30
0
10
-11.685742437185789
20
21.54405598121533
30
0
10
-11.665124192034799
20
21.496673814043298
30
0
10
-11.654639041635445
20
21.473062440727958
30
0
0
LINE
5
111
100
AcDbEntity
8
0
100
AcDbLine
10
-11.654639041635445
20
21.473062440727951
30
0
11
-10.017490926965635
21
18.456702726331194
31
0
0
ARC
5
112
100
AcDbEntity
8
0
100
AcDbCircle
10
-11.997831874804518
20
17.3818602817502
30
0
40
2.2532280289309963
210
0
220
0
230
1
100
AcDbArc
50
-139.2604046576941
51
28.491173888463251
0
LINE
5
113
100
AcDbEntity
8
0
100
AcDbLine
10
-13.705065596929565
20
15.91135371311498
30
0
11
-15.944870201398086
21
18.511729687816374
31
0
0
SPLINE
5
114
100
AcDbEntity
8
0
100
AcDbSpline
70
4
71
5
72
56
73
50
74
0
42
0.000000001
43
0.0000000001
44
0.0000000001
40
0
40
0
40
0
40
0
40
0
40
0
40
0.022222222222222223
40
0.044444444444444446
40
0.066666666666666666
40
0.088888888888888892
40
0.11111111111111112
40
0.13333333333333333
40
0.15555555555555556
40
0.17777777777777778
40
0.20000000000000001
40
0.22222222222222224
40
0.24444444444444446
40
0.26666666666666666
40
0.28888888888888886
40
0.31111111111111106
40
0.33333333333333326
40
0.35555555555555546
40
0.37777777777777766
40
0.39999999999999986
40
0.42222222222222205
40
0.44444444444444425
40
0.46666666666666645
40
0.48888888888888865
40
0.51111111111111085
40
0.5333333333333331
40
0.55555555555555536
40
0.57777777777777761
40
0.59999999999999987
40
0.62222222222222212
40
0.64444444444444438
40
0.66666666666666663
40
0.68888888888888888
40
0.71111111111111114
40
0.73333333333333339
40
0.75555555555555565
40
0.7777777777777779
40
0.80000000000000016
40
0.82222222222222241
40
0.84444444444444466
40
0.86666666666666692
40
0.88888888888888917
40
0.91111111111111143
40
0.93333333333333368
40
0.95555555555555594
40
0.97777777777777819
40
1
40
1
40
1
40
1
40
1
40
1
41
1
41
1
41
1
41
1
41
1
41
1
41
1
41
1
41
1
41
1
41
1
41
1
41
1
41
1
41
1
41
1
41
1
41
1
41
1
41
1
41
1
41
1
41
1
41
1
41
1
41
1
41
1
41
1
41
1
41
1
41
1
41
1
41
1
41
1
41
1
41
1
41
1
41
1
41
1
41
1
41
1
41
1
41
1
41
1
41
1
41
1
41
1
41
1
41
1
41
1
10
-15.944870201398086
20
18.511729687816374
30
0
10
-15.963229133387307
20
18.529906182113894
30
0
10
-16.000220898814433
20
18.565986524263124
30
0
10
-16.056530254373701
20
18.619289095527847
30
0
10
-16.133254105045413
20
18.688722013704933
30
0
10
-16.231893348688399
20
18.772788922907043
30
0
10
-16.333232929724893
20
18.854158456810708
30
0
10
-16.437195381581319
20
18.932893687393996
30
0
10
-16.543640324715881
20
19.009110640892843
30
0
10
-16.652354131424854
20
19.082987174158017
30
0
10
-16.76308646952268
20
19.154731733727157
30
0
10
-16.875581749846656
20
19.224556485945033
30
0
10
-16.989610260271313
20
19.292650729065464
30
0
10
-17.105004509389449
20
19.359149849087068
30
0
10
-17.221676959106745
20
19.42412024088377
30
0
10
-17.33959142731473
20
19.487583949606403
30
0
10
-17.458742931972587
20
19.549536095337366
30
0
10
-17.57913574708742
20
19.60996382885455
30
0
10
-17.700758633171972
20
19.668867758137619
30
0
10
-17.823573643855447
20
19.726271636644938
30
0
10
-17.947528659724263
20
19.782211534185134
30
0
10
-18.072564626246979
20
19.836729609352023
30
0
10
-18.198624197471936
20
19.889866667800131
30
0
10
-18.325661295355115
20
19.941653974522819
30
0
10
-18.453644605871212
20
19.99211022200349
30
0
10
-18.582552009671826
20
20.04124621445904
30
0
10
-18.712367120866237
20
20.089067774070223
30
0
10
-18.843075254449587
20
20.135579155765399
30
0
10
-18.974658881152315
20
20.180786896517262
30
0
10
-19.107095878396766
20
20.224701362821328
30
0
10
-19.240361970011335
20
20.267334824595956
30
0
10
-19.374432146790056
20
20.308700411163411
30
0
10
-19.509282334683252
20
20.348810842365936
30
0
10
-19.644891225972408
20
20.387677133605138
30
0
10
-19.781240968507419
20
20.425307976408899
30
0
10
-19.91831580263511
20
20.461710366558464
30
0
10
-20.056101113247031
20
20.496889993285279
30
0
10
-20.194582370891261
20
20.53085175076605
30
0
10
-20.333743893208009
20
20.563600299715596
30
0
10
-20.473568287199285
20
20.595140489454934
30
0
10
-20.614037735271992
20
20.625477301856282
30
0
10
-20.755134911671568
20
20.654615942851002
30
0
10
-20.89684399102704
20
20.682561907309818
30
0
10
-21.039151659756257
20
20.709321155275671
30
0
10
-21.182047911243803
20
20.734900154031116
30
0
10
-21.325525586928649
20
20.759305080553947
30
0
10
-21.440769168929727
20
20.777893950024016
30
0
10
-21.527460303997366
20
20.791311255606864
30
0
10
-21.585369167907746
20
20.800023270549826
30
0
10
-21.614352293321573
20
20.80432106414878
30
0
0
ARC
5
115
100
AcDbEntity
8
0
100
AcDbCircle
10
6.6613381477509392e-15
20
-3.3306690738754696e-13
30
0
40
30.000000000000234
210
0
220
0
230
1
100
AcDbArc
50
136.09399297039488
51
140.82908395268103
0
SPLINE
5
116
100
AcDbEntity
8
0
100
AcDbSpline
70
4
71
5
72
56
73
50
74
0
42
0.000000001
43
0.0000000001
44
0.0000000001
40
-1
40
-1
40
-1
40
-1
40
-1
40
-1
40
-0.97777777777777819
40
-0.95555555555555594
40
-0.93333333333333368
40
-0.91111111111111143
40
-0.88888888888888917
40
-0.86666666666666692
40
-0.84444444444444466
40
-0.82222222222222241
40
-0.80000000000000016
40
-0.7777777777777779
40
-0.75555555555555565
40
-0.73333333333333339
40
-0.71111111111111114
40
-0.68888888888888888
40
-0.66666666666666663
40
-0.64444444444444438
40
-0.62222222222222212
40
-0.59999999999999987
40
-0.57777777777777761
40
-0.55555555555555536
40
-0.5333333333333331
40
-0.51111111111111085
40
-0.48888888888888865
40
-0.46666666666666645
40
-0.44444444444444425
40
-0.42222222222222205
40
-0.39999999999999986
40
-0.37777777777777766
40
-0.35555555555555546
40
-0.33333333333333326
40
-0.31111111111111106
40
-0.28888888888888886
40
-0.26666666666666666
40
-0.24444444444444446
40
-0.22222222222222224
40
-0.20000000000000001
40
-0.17777777777777778
40
-0.15555555555555556
40
-0.13333333333333333
40
-0.11111111111111112
40
-0.088888888888888892
40
-0.066666666666666666
40
-0.044444444444444446
40
-0.022222222222222223
40
0
40
0
40
0
40
0
40
0
40
0
41
1
41
1
41
1
41
1
41
1
41
1
41
1
41
1
41
1
41
1
41
1
41
1
41
1
41
1
41
1
41
1
41
1
41
1
41
1
41
1
41
1
41
1
41
1
41
1
41
1
41
1
41
1
41
1
41
1
41
1
41
1
41
1
41
1
41
1
41
1
41
1
41
1
41
1
41
1
41
1
41
1
41
1
41
1
41
1
41
1
41
1
41
1
41
1
41
1
41
1
10
-23.257956411271561
20
18.949075533423581
30
0
10
-23.250196423706036
20
18.920821769399019
30
0
10
-23.234567786947768
20
18.864385243665804
30
0
10
-23.210798847000568
20
18.779943462051452
30
0
10
-23.178454432523047
20
18.66778077613175
30
0
10
-23.136933122674321
20
18.528290903069376
30
0
10
-23.094316383844003
20
18.389519733736584
30
0
10
-23.050598946960616
20
18.25147511905282
30
0
10
-23.005775598059564
20
18.114167772218792
30
0
10
-22.959842025328335
20
17.977611628149415
30
0
10
-22.91279468149769
20
17.841823059164369
30
0
10
-22.864630486982289
20
17.706819892199647
30
0
10
-22.815346643906913
20
17.572620415436365
30
0
10
-22.76494043480178
20
17.439242479579036
30
0
10
-22.713409123233511
20
17.306702214432491
30
0
10
-22.66074960204136
20
17.175014633440394
30
0
10
-22.606957985131441
20
17.044194930911683
30
0
10
-22.552029227345894
20
16.914259594842164
30
0
10
-22.495956852366778
20
16.785227394867579
30
0
10
-22.438732493468827
20
16.65712081110912
30
0
10
-22.380346425357807
20
16.529965275297084
30
0
10
-22.320788628965651
20
16.403787196857092
30
0
10
-22.26004985000467
20
16.278612153935338
30
0
10
-22.198122464144827
20
16.154463357353951
30
0
10
-22.135002094995269
20
16.031358996519369
30
0
10
-22.070686288732585
20
15.909314162241186
30
0
10
-22.005171240727137
20
15.788345822724876
30
0
10
-21.938448891729752
20
15.668477238348329
30
0
10
-21.870504460034933
20
15.549741747952234
30
0
10
-21.80131246270081
20
15.432188862198288
30
0
10
-21.730839303882664
20
15.315880427499703
30
0
10
-21.6590502506075
20
15.200880149470816
30
0
10
-21.585915778357307
20
15.087244115250977
30
0
10
-21.51141688079273
20
14.975012857702239
30
0
10
-21.435554309137412
20
14.864197607647229
30
0
10
-21.358340303753479
20
14.754792573438655
30
0
10
-21.27978030949707
20
14.646802112583625
30
0
10
-21.19985680322252
20
14.540264800631624
30
0
10
-21.118514425700617
20
14.435275540443364
30
0
10
-21.035638966907353
20
14.332016921203859
30
0
10
-20.95107019752346
20
14.230739797561514
30
0
10
-20.864628306004974
20
14.131723468973014
30
0
10
-20.776136539834855
20
14.035241567874044
30
0
10
-20.685444088913208
20
13.941527602656244
30
0
10
-20.592452693849758
20
13.850734914753991
30
0
10
-20.49710908009552
20
13.762948008409472
30
0
10
-20.418934367810081
20
13.69515277445036
30
0
10
-20.35923308951649
20
13.645678892481737
30
0
10
-20.318956949082661
20
13.613305843339301
30
0
10
-20.298700057178252
20
13.597271702916224
30
0
0
LINE
5
117
100
AcDbEntity
8
0
100
AcDbLine
10
-20.298700057178252
20
13.597271702916228
30
0
11
-17.44730513965758
21
11.687238483220845
31
0
0
ARC
5
118
100
AcDbEntity
8
0
100
AcDbCircle
10
-18.701305774476356
20
9.8152024370309263
30
0
40
2.2532280289309972
210
0
220
0
230
1
100
AcDbArc
50
-111.56809696538622
51
56.183481580770831
0
LINE
5
119
100
AcDbEntity
8
0
100
AcDbLine
10
-19.529607683842972
20
7.7197424643042023
30
0
11
-22.721311138625072
21
8.9813719395205425
31
0
0
SPLINE
5
120
100
AcDbEntity
8
0
100
AcDbSpline
70
4
71
5
72
56
73
50
74
0
42
0.000000001
43
0.0000000001
44
0.0000000001
40
0
40
0
40
0
40
0
40
0
40
0
40
0.022222222222222223
40
0.044444444444444446
40
0.066666666666666666
40
0.088888888888888892
40
0.11111111111111112
40
0.13333333333333333
40
0.15555555555555556
40
0.17777777777777778
40
0.20000000000000001
40
0.22222222222222224
40
0.24444444444444446
40
0.26666666666666666
40
0.28888888888888886
40
0.31111111111111106
40
0.33333333333333326
40
0.35555555555555546
40
0.37777777777777766
40
0.39999999999999986
40
0.42222222222222205
40
0.44444444444444425
40
0.46666666666666645
40
0.48888888888888865
40
0.51111111111111085
40
0.5333333333333331
40
0.55555555555555536
40
0.57777777777777761
40
0.59999999999999987
40
0.62222222222222212
40
0.64444444444444438
40
0.66666666666666663
40
0.68888888888888888
40
0.71111111111111114
40
0.73333333333333339
40
0.75555555555555565
40
0.7777777777777779
40
0.80000000000000016
40
0.82222222222222241
40
0.84444444444444466
40
0.86666666666666692
40
0.88888888888888917
40
0.91111111111111143
40
0.93333333333333368
40
0.95555555555555594
40
0.97777777777777819
40
1
40
1
40
1
40
1
40
1
40
1
41
1
41
1
41
1
41
1
41
1
41
1
41
1
41
1
41
1
41
1
41
1
41
1
41
1
41
1
41
1
41
1
41
1
41
1
41
1
41
1
41
1
41
1
41
1
41
1
41
1
41
1
41
1
41
1
41
1
41
1
41
1
41
1
41
1
41
1
41
1
41
1
41
1
41
1
41
1
41
1
41
1
41
1
41
1
41
1
41
1
41
1
41
1
41
1
41
1
41
1
10
-22.721311138625072
20
8.9813719395205425
30
0
10
-22.746014203666064
20
8.988934604812167
30
0
10
-22.79553615631508
20
9.0036912306070356
30
0
10
-22.870166554491913
20
9.0247200511849535
30
0
10
-22.970369236360007
20
9.0505444957079675
30
0
10
-23.096777789717887
20
9.0791421048252516
30
0
10
-23.224323840287258
20
9.1040963973719808
30
0
10
-23.352968105833476
20
9.1254992213229791
30
0
10
-23.48264020652578
20
9.1435185504339511
30
0
10
-23.613233638626525
20
9.1584111468692235
30
0
10
-23.744623613929768
20
9.1704779160389087
30
0
10
-23.876682418088045
20
9.1800255001178606
30
0
10
-24.009294622400663
20
9.1873282669331662
30
0
10
-24.142374837602603
20
9.1925839319711429
30
0
10
-24.275876407797192
20
9.1958919659538445
30
0
10
-24.409777540210889
20
9.1972887035571311
30
0
10
-24.544071555654845
20
9.196772139098373
30
0
10
-24.678756267243152
20
9.1943289089262841
30
0
10
-24.813822005446319
20
9.1899647746302957
30
0
10
-24.949246209204201
20
9.1837184034110528
30
0
10
-25.084999491543869
20
9.1756459545971509
30
0
10
-25.221049154350055
20
9.1658122017786905
30
0
10
-25.357363383637534
20
9.1542799265609176
30
0
10
-25.493915908891466
20
9.1410982262553695
30
0
10
-25.630687689749632
20
9.1262982045872736
30
0
10
-25.767664161471657
20
9.1098997075893422
30
0
10
-25.904833520774183
20
9.0919155054497196
30
0
10
-26.042184742094964
20
9.0723561901823917
30
0
10
-26.179705341919334
20
9.0512356962469802
30
0
10
-26.317380549228282
20
9.0285734835938705
30
0
10
-26.455194570654772
20
9.0043916983956684
30
0
10
-26.593131363146959
20
8.9787135884474267
30
0
10
-26.731175521397937
20
8.9515616043788278
30
0
10
-26.869313297472331
20
8.9229554020341375
30
0
10
-27.007532923230663
20
8.892910973686913
30
0
10
-27.14582369529472
20
8.8614418376698296
30
0
10
-27.284175316546353
20
8.8285598235267173
30
0
10
-27.422577196232112
20
8.7942760170087979
30
0
10
-27.561017614254212
20
8.7586018329300934
30
0
10
-27.699483423469626
20
8.7215496480803125
30
0
10
-27.837961162374633
20
8.6831321539366115
30
0
10
-27.976437909092407
20
8.6433620118019014
30
0
10
-28.114902204546595
20
8.6022514415591775
30
0
10
-28.253345029915742
20
8.5598119076944901
30
0
10
-28.391760530277978
20
8.516053787008218
30
0
10
-28.530145237627025
20
8.4709858756917562
30
0
10
-28.64082704011258
20
8.4338891391888779
30
0
10
-28.72382356083968
20
8.4054821939885365
30
0
10
-28.779147988547042
20
8.3862847091894803
30
0
10
-28.806808555861075
20
8.3766210864506316
30
0
0
ARC
5
121
100
AcDbEntity
8
0
100
AcDbCircle
10
6.6613381477509392e-15
20
-3.3306690738754696e-13
30
0
40
30.000000000000107
210
0
220
0
230
1
100
AcDbArc
50
163.78630066270242
51
168.5213916449886
0
SPLINE
5
122
100
AcDbEntity
8
0
100
AcDbSpline
70
4
71
5
72
56
73
50
74
0
42
0.000000001
43
0.0000000001
44
0.0000000001
40
-1
40
-1
40
-1
40
-1
40
-1
40
-1
40
-0.97777777777777819
40
-0.95555555555555594
40
-0.93333333333333368
40
-0.91111111111111143
40
-0.88888888888888917
40
-0.86666666666666692
40
-0.84444444444444466
40
-0.82222222222222241
40
-0.80000000000000016
40
-0.7777777777777779
40
-0.75555555555555565
40
-0.73333333333333339
40
-0.71111111111111114
40
-0.68888888888888888
40
-0.66666666666666663
40
-0.64444444444444438
40
-0.62222222222222212
40
-0.59999999999999987
40
-0.57777777777777761
40
-0.55555555555555536
40
-0.5333333333333331
40
-0.51111111111111085
40
-0.48888888888888865
40
-0.46666666666666645
40
-0.44444444444444425
40
-0.42222222222222205
40
-0.39999999999999986
40
-0.37777777777777766
40
-0.35555555555555546
40
-0.33333333333333326
40
-0.31111111111111106
40
-0.28888888888888886
40
-0.26666666666666666
40
-0.24444444444444446
40
-0.22222222222222224
40
-0.20000000000000001
40
-0.17777777777777778
40
-0.15555555555555556
40
-0.13333333333333333
40
-0.11111111111111112
40
-0.088888888888888892
40
-0.066666666666666666
40
-0.044444444444444446
40
-0.022222222222222223
40
0
40
0
40
0
40
0
40
0
40
0
41
1
41
1
41
1
41
1
41
1
41
1
41
1
41
1
41
1
41
1
41
1
41
1
41
1
41
1
41
1
41
1
41
1
41
1
41
1
41
1
41
1
41
1
41
1
41
1
41
1
41
1
41
1
41
1
41
1
41
1
41
1
41
1
41
1
41
1
41
1
41
1
41
1
41
1
41
1
41
1
41
1
41
1
41
1
41
1
41
1
41
1
41
1
41
1
41
1
41
1
10
-29.39997213792968
20
5.9700618329259019
30
0
10
-29.379970831341119
20
5.9486506133594377
30
0
10
-29.339904999492902
20
5.9059415412310514
30
0
10
-29.279616595788415
20
5.8422180340521095
30
0
10
-29.198852439907515
20
5.757934106844953
30
0
10
-29.097262969631423
20
5.6537178730445881
30
0
10
-28.995037543439871
20
5.5506470910233112
30
0
10
-28.892175144305959
20
5.4487311610846678
30
0
10
-28.788676134165939
20
5.3479819923469432
30
0
10
-28.68454317097731
20
5.2484139273637034
30
0
10
-28.579780722385472
20
5.1500431116022813
30
0
10
-28.474394346143278
20
5.0528867611852295
30
0
10
-28.368390063796795
20
4.9569623697301708
30
0
10
-28.261773764782049
20
4.862287006122151
30
0
10
-28.154550522001681
20
4.7688762242780509
30
0
10
-28.046724561296664
20
4.6767447619116265
30
0
10
-27.93829950284918
20
4.5859078788731589
30
0
10
-27.829278541747527
20
4.4963825191596483
30
0
10
-27.719664666181604
20
4.408188312153186
30
0
10
-27.609460914817348
20
4.3213490512236383
30
0
10
-27.498670495048753
20
4.235891774619426
30
0
10
-27.387296808503677
20
4.1518445228186893
30
0
10
-27.275343547674545
20
4.0692342448270384
30
0
10
-27.162814748159274
20
3.9880850360096183
30
0
10
-27.04971498789487
20
3.9084150360962071
30
0
10
-26.936049107177524
20
3.8302387476836914
30
0
10
-26.82182162269325
20
3.7535729634714028
30
0
10
-26.707036207967914
20
3.6784420248209444
30
0
10
-26.591695267783109
20
3.6048823212107601
30
0
10
-26.475799246866156
20
3.5329495346681621
30
0
10
-26.359347139035243
20
3.462714040239919
30
0
10
-26.242337795245309
20
3.3942483876635037
30
0
10
-26.124771137827295
20
3.327615960362067
30
0
10
-26.00664917406371
20
3.262861481088871
30
0
10
-25.887977788353567
20
3.1999945451324581
30
0
10
-25.768765127486581
20
3.1390043358639024
30
0
10
-25.649018037677941
20
3.0798921813133302
30
0
10
-25.52873892990446
20
3.0227003818453033
30
0
10
-25.407922889561515
20
2.9675386964862973
30
0
10
-25.286553642120403
20
2.9146218759750324
30
0
10
-25.164605889532815
20
2.8642465033490128
30
0
10
-25.042050213513136
20
2.8167434485862071
30
0
10
-24.918857270813586
20
2.7724371421659777
30
0
10
-24.795002042482942
20
2.7316044304487508
30
0
10
-24.670468785469794
20
2.694426753947111
30
0
10
-24.545249598583219
20
2.6610036953688896
30
0
10
-24.444523312361444
20
2.6373035972161238
30
0
10
-24.368668796395404
20
2.6212412177382136
30
0
10
-24.317961539072016
20
2.6112935620463689
30
0
10
-24.292573515475841
20
2.6065098828541498
30
0
0
LINE
5
123
100
AcDbEntity
8
0
100
AcDbLine
10
-24.292573515475841
20
2.6065098828541498
30
0
11
-20.880152007674411
21
2.2403687500967613
31
0
0
ARC
5
124
100
AcDbEntity
8
0
100
AcDbCircle
10
-21.120535896382002
20
8.6042284408449632e-15
30
0
40
2.2532280289309976
210
0
220
0
230
1
100
AcDbArc
50
-83.87578927307834
51
83.875789273078311
0
LINE
5
125
100
AcDbEntity
8
0
100
AcDbLine
10
-20.880152007674411
20
-2.2403687500967444
30
0
11
-24.292573515475844
21
-2.6065098828541338
31
0
0
SPLINE
5
126
100
AcDbEntity
8
0
100
AcDbSpline
70
4
71
5
72
56
73
50
74
0
42
0.000000001
43
0.0000000001
44
0.0000000001
40
0
40
0
40
0
40
0
40
0
40
0
40
0.022222222222222223
40
0.044444444444444446
40
0.066666666666666666
40
0.088888888888888892
40
0.11111111111111112
40
0.13333333333333333
40
0.15555555555555556
40
0.17777777777777778
40
0.20000000000000001
40
0.22222222222222224
40
0.24444444444444446
40
0.26666666666666666
40
0.28888888888888886
40
0.31111111111111106
40
0.33333333333333326
40
0.35555555555555546
40
0.37777777777777766
40
0.39999999999999986
40
0.42222222222222205
40
0.44444444444444425
40
0.46666666666666645
40
0.48888888888888865
40
0.51111111111111085
40
0.5333333333333331
40
0.55555555555555536
40
0.57777777777777761
40
0.59999999999999987
40
0.62222222222222212
40
0.64444444444444438
40
0.66666666666666663
40
0.68888888888888888
40
0.71111111111111114
40
0.73333333333333339
40
0.75555555555555565
40
0.7777777777777779
40
0.80000000000000016
40
0.82222222222222241
40
0.84444444444444466
40
0.86666666666666692
40
0.88888888888888917
40
0.91111111111111143
40
0.93333333333333368
40
0.95555555555555594
40
0.97777777777777819
40
1
40
1
40
1
40
1
40
1
40
1
41
1
41
1
41
1
41
1
41
1
41
1
41
1
41
1
41
1
41
1
41
1
41
1
41
1
41
1
41
1
41
1
41
1
41
1
41
1
41
1
41
1
41
1
41
1
41
1
41
1
41
1
41
1
41
1
41
1
41
1
41
1
41
1
41
1
41
1
41
1
41
1
41
1
41
1
41
1
41
1
41
1
41
1
41
1
41
1
41
1
41
1
41
1
41
1
41
1
41
1
10
-24.292573515475844
20
-2.6065098828541338
30
0
10
-24.317961539071923
20
-2.6112935620467197
30
0
10
-24.368668796395163
20
-2.6212412177391937
30
0
10
-24.444523312361049
20
-2.6373035972177257
30
0
10
-24.545249598582764
20
-2.6610036953707086
30
0
10
-24.670468785469456
20
-2.6944267539484725
30
0
10
-24.7950020424828
20
-2.7316044304493103
30
0
10
-24.918857270813632
20
-2.7724371421657819
30
0
10
-25.042050213513292
20
-2.8167434485855516
30
0
10
-25.164605889533004
20
-2.8642465033482583
30
0
10
-25.286553642120538
20
-2.9146218759744693
30
0
10
-25.407922889561565
20
-2.9675386964860717
30
0
10
-25.528738929904438
20
-3.0227003818453966
30
0
10
-25.64901803767787
20
-3.0798921813136166
30
0
10
-25.768765127486496
20
-3.1390043358642199
30
0
10
-25.88797778835351
20
-3.1999945451326814
30
0
10
-26.006649174063682
20
-3.2628614810889389
30
0
10
-26.12477113782731
20
-3.3276159603619888
30
0
10
-26.242337795245348
20
-3.3942483876633411
30
0
10
-26.359347139035286
20
-3.4627140402397512
30
0
10
-26.475799246866181
20
-3.5329495346680413
30
0
10
-26.591695267783123
20
-3.6048823212107086
30
0
10
-26.70703620796791
20
-3.6784420248209564
30
0
10
-26.821821622693236
20
-3.7535729634714512
30
0
10
-26.936049107177507
20
-3.8302387476837456
30
0
10
-27.049714987894863
20
-3.9084150360962422
30
0
10
-27.162814748159274
20
-3.9880850360096192
30
0
10
-27.275343547674549
20
-4.0692342448270047
30
0
10
-27.387296808503688
20
-4.1518445228186307
30
0
10
-27.498670495048767
20
-4.2358917746193594
30
0
10
-27.609460914817362
20
-4.3213490512235833
30
0
10
-27.719664666181608
20
-4.4081883121531522
30
0
10
-27.82927854174752
20
-4.496382519159642
30
0
10
-27.93829950284918
20
-4.5859078788731642
30
0
10
-28.046724561296656
20
-4.6767447619116362
30
0
10
-28.154550522001678
20
-4.7688762242780545
30
0
10
-28.261773764782049
20
-4.8622870061221422
30
0
10
-28.368390063796799
20
-4.9569623697301495
30
0
10
-28.474394346143281
20
-5.0528867611851958
30
0
10
-28.579780722385479
20
-5.1500431116022423
30
0
10
-28.684543170977321
20
-5.2484139273636661
30
0
10
-28.788676134165939
20
-5.3479819923469138
30
0
10
-28.892175144305959
20
-5.4487311610846509
30
0
10
-28.995037543439871
20
-5.5506470910233032
30
0
10
-29.097262969631416
20
-5.6537178730445872
30
0
10
-29.198852439907515
20
-5.7579341068449494
30
0
10
-29.279616595788415
20
-5.8422180340521015
30
0
10
-29.339904999492905
20
-5.9059415412310381
30
0
10
-29.379970831341122
20
-5.9486506133594199
30
0
10
-29.399972137929687
20
-5.9700618329258814
30
0
0
ARC
5
127
100
AcDbEntity
8
0
100
AcDbCircle
10
6.6613381477509392e-15
20
-3.3306690738754696e-13
30
0
40
29.999999999999943
210
0
220
0
230
1
100
AcDbArc
50
191.4786083550101
51
196.21369933729628
0
SPLINE
5
128
100
AcDbEntity
8
0
100
AcDbSpline
70
4
71
5
72
56
73
50
74
0
42
0.000000001
43
0.0000000001
44
0.0000000001
40
-1
40
-1
40
-1
40
-1
40
-1
40
-1
40
-0.97777777777777819
40
-0.95555555555555594
40
-0.93333333333333368
40
-0.91111111111111143
40
-0.88888888888888917
40
-0.86666666666666692
40
-0.84444444444444466
40
-0.82222222222222241
40
-0.80000000000000016
40
-0.7777777777777779
40
-0.75555555555555565
40
-0.73333333333333339
40
-0.71111111111111114
40
-0.68888888888888888
40
-0.66666666666666663
40
-0.64444444444444438
40
-0.62222222222222212
40
-0.59999999999999987
40
-0.57777777777777761
40
-0.55555555555555536
40
-0.5333333333333331
40
-0.51111111111111085
40
-0.48888888888888865
40
-0.46666666666666645
40
-0.44444444444444425
40
-0.42222222222222205
40
-0.39999999999999986
40
-0.37777777777777766
40
-0.35555555555555546
40
-0.33333333333333326
40
-0.31111111111111106
40
-0.28888888888888886
40
-0.26666666666666666
40
-0.24444444444444446
40
-0.22222222222222224
40
-0.20000000000000001
40
-0.17777777777777778
40
-0.15555555555555556
40
-0.13333333333333333
40
-0.11111111111111112
40
-0.088888888888888892
40
-0.066666666666666666
40
-0.044444444444444446
40
-0.022222222222222223
40
0
40
0
40
0
40
0
40
0
40
0
41
1
41
1
41
1
41
1
41
1
41
1
41
1
41
1
41
1
41
1
41
1
41
1
41
1
41
1
41
1
41
1
41
1
41
1
41
1
41
1
41
1
41
1
41
1
41
1
41
1
41
1
41
1
41
1
41
1
41
1
41
1
41
1
41
1
41
1
41
1
41
1
41
1
41
1
41
1
41
1
41
1
41
1
41
1
41
1
41
1
41
1
41
1
41
1
41
1
41
1
10
-28.806808555861082
20
-8.3766210864506121
30
0
10
-28.779147988547045
20
-8.3862847091894626
30
0
10
-28.723823560839683
20
-8.405482193988524
30
0
10
-28.64082704011258
20
-8.4338891391888708
30
0
10
-28.530145237627025
20
-8.4709858756917527
30
0
10
-28.391760530277985
20
-8.516053787008218
30
0
10
-28.253345029915742
20
-8.559811907694483
30
0
10
-28.114902204546599
20
-8.6022514415591615
30
0
10
-27.976437909092407
20
-8.6433620118018712
30
0
10
-27.837961162374643
20
-8.683132153936576
30
0
10
-27.69948342346963
20
-8.7215496480802752
30
0
10
-27.561017614254219
20
-8.7586018329300597
30
0
10
-27.422577196232115
20
-8.7942760170087766
30
0
10
-27.284175316546353
20
-8.8285598235267084
30
0
10
-27.14582369529472
20
-8.8614418376698332
30
0
10
-27.007532923230659
20
-8.8929109736869236
30
0
10
-26.869313297472331
20
-8.9229554020341428
30
0
10
-26.731175521397944
20
-8.9515616043788206
30
0
10
-26.59313136314697
20
-8.978713588447393
30
0
10
-26.455194570654786
20
-9.0043916983956134
30
0
10
-26.317380549228304
20
-9.0285734835938047
30
0
10
-26.179705341919352
20
-9.0512356962469234
30
0
10
-26.042184742094975
20
-9.0723561901823579
30
0
10
-25.904833520774183
20
-9.0919155054497214
30
0
10
-25.76766416147165
20
-9.1098997075893777
30
0
10
-25.630687689749614
20
-9.1262982045873287
30
0
10
-25.493915908891452
20
-9.1410982262554175
30
0
10
-25.357363383637534
20
-9.15427992656093
30
0
10
-25.221049154350069
20
-9.165812201778639
30
0
10
-25.084999491543897
20
-9.1756459545970319
30
0
10
-24.949246209204247
20
-9.1837184034108841
30
0
10
-24.813822005446362
20
-9.1899647746301323
30
0
10
-24.678756267243173
20
-9.1943289089262059
30
0
10
-24.544071555654831
20
-9.1967721390984423
30
0
10
-24.409777540210836
20
-9.1972887035573549
30
0
10
-24.27587640779711
20
-9.1958919659541642
30
0
10
-24.142374837602532
20
-9.1925839319714306
30
0
10
-24.009294622400642
20
-9.1873282669332603
30
0
10
-23.876682418088102
20
-9.180025500117635
30
0
10
-23.744623613929903
20
-9.1704779160383474
30
0
10
-23.61323363862671
20
-9.1584111468684704
30
0
10
-23.482640206525943
20
-9.1435185504332974
30
0
10
-23.352968105833519
20
-9.1254992213227837
30
0
10
-23.22432384028712
20
-9.1040963973725404
30
0
10
-23.096777789717553
20
-9.0791421048266141
30
0
10
-22.970369236359566
20
-9.0505444957097865
30
0
10
-22.870166554491522
20
-9.024720051186554
30
0
10
-22.795536156314839
20
-9.0036912306080161
30
0
10
-22.746014203665975
20
-8.9889346048125187
30
0
10
-22.721311138625076
20
-8.9813719395205265
30
0
0
LINE
5
129
100
AcDbEntity
8
0
100
AcDbLine
10
-22.721311138625083
20
-8.9813719395205265
30
0
11
-19.529607683842979
21
-7.719742464304189
31
0
0
ARC
5
130
100
AcDbEntity
8
0
100
AcDbCircle
10
-18.70130577447636
20
-9.8152024370309139
30
0
40
2.2532280289309972
210
-0
220
0
230
1
100
AcDbArc
50
-56.18348158077103
51
111.56809696538627
0
LINE
5
131
100
AcDbEntity
8
0
100
AcDbLine
10
-17.44730513965759
20
-11.687238483220835
30
0
11
-20.298700057178259
21
-13.597271702916212
31
0
0
SPLINE
5
132
100
AcDbEntity
8
0
100
AcDbSpline
70
4
71
5
72
56
73
50
74
0
42
0.000000001
43
0.0000000001
44
0.0000000001
40
0
40
0
40
0
40
0
40
0
40
0
40
0.022222222222222223
40
0.044444444444444446
40
0.066666666666666666
40
0.088888888888888892
40
0.11111111111111112
40
0.13333333333333333
40
0.15555555555555556
40
0.17777777777777778
40
0.20000000000000001
40
0.22222222222222224
40
0.24444444444444446
40
0.26666666666666666
40
0.28888888888888886
40
0.31111111111111106
40
0.33333333333333326
40
0.35555555555555546
40
0.37777777777777766
40
0.39999999999999986
40
0.42222222222222205
40
0.44444444444444425
40
0.46666666666666645
40
0.48888888888888865
40
0.51111111111111085
40
0.5333333333333331
40
0.55555555555555536
40
0.57777777777777761
40
0.59999999999999987
40
0.62222222222222212
40
0.64444444444444438
40
0.66666666666666663
40
0.68888888888888888
40
0.71111111111111114
40
0.73333333333333339
40
0.75555555555555565
40
0.7777777777777779
40
0.80000000000000016
40
0.82222222222222241
40
0.84444444444444466
40
0.86666666666666692
40
0.88888888888888917
40
0.91111111111111143
40
0.93333333333333368
40
0.95555555555555594
40
0.97777777777777819
40
1
40
1
40
1
40
1
40
1
40
1
41
1
41
1
41
1
41
1
41
1
41
1
41
1
41
1
41
1
41
1
41
1
41
1
41
1
41
1
41
1
41
1
41
1
41
1
41
1
41
1
41
1
41
1
41
1
41
1
41
1
41
1
41
1
41
1
41
1
41
1
41
1
41
1
41
1
41
1
41
1
41
1
41
1
41
1
41
1
41
1
41
1
41
1
41
1
41
1
41
1
41
1
41
1
41
1
41
1
41
1
10
-20.298700057178259
20
-13.597271702916212
30
0
10
-20.318956949082416
20
-13.613305843339569
30
0
10
-20.359233089515815
20
-13.64567889248249
30
0
10
-20.418934367808987
20
-13.695152774451596
30
0
10
-20.497109080094276
20
-13.762948008410874
30
0
10
-20.592452693848827
20
-13.850734914755039
30
0
10
-20.685444088912828
20
-13.941527602656674
30
0
10
-20.776136539834987
20
-14.035241567873893
30
0
10
-20.864628306005418
20
-14.131723468972508
30
0
10
-20.951070197523975
20
-14.230739797560929
30
0
10
-21.035638966907733
20
-14.332016921203422
30
0
10
-21.118514425700766
20
-14.43527554044319
30
0
10
-21.199856803222453
20
-14.540264800631695
30
0
10
-21.279780309496871
20
-14.646802112583845
30
0
10
-21.358340303753263
20
-14.754792573438898
30
0
10
-21.435554309137256
20
-14.864197607647402
30
0
10
-21.51141688079268
20
-14.975012857702287
30
0
10
-21.585915778357361
20
-15.087244115250915
30
0
10
-21.659050250607606
20
-15.200880149470692
30
0
10
-21.730839303882775
20
-15.315880427499572
30
0
10
-21.801312462700892
20
-15.432188862198192
30
0
10
-21.870504460034965
20
-15.549741747952194
30
0
10
-21.938448891729738
20
-15.668477238348334
30
0
10
-22.005171240727101
20
-15.788345822724912
30
0
10
-22.070686288732546
20
-15.909314162241229
30
0
10
-22.135002094995244
20
-16.031358996519394
30
0
10
-22.198122464144827
20
-16.154463357353951
30
0
10
-22.260049850004691
20
-16.27861215393531
30
0
10
-22.320788628965694
20
-16.403787196857046
30
0
10
-22.38034642535785
20
-16.52996527529703
30
0
10
-22.438732493468866
20
-16.657120811109078
30
0
10
-22.495956852366803
20
-16.785227394867551
30
0
10
-22.552029227345898
20
-16.914259594842157
30
0
10
-22.606957985131434
20
-17.044194930911686
30
0
10
-22.660749602041349
20
-17.175014633440401
30
0
10
-22.713409123233504
20
-17.306702214432494
30
0
10
-22.764940434801787
20
-17.439242479579029
30
0
10
-22.815346643906928
20
-17.572620415436347
30
0
10
-22.86463048698231
20
-17.706819892199618
30
0
10
-22.912794681497715
20
-17.841823059164341
30
0
10
-22.95984202532836
20
-17.977611628149386
30
0
10
-23.005775598059582
20
-18.114167772218767
30
0
10
-23.050598946960626
20
-18.251475119052806
30
0
10
-23.09431638384401
20
-18.389519733736581
30
0
10
-23.136933122674321
20
-18.528290903069376
30
0
10
-23.178454432523047
20
-18.667780776131742
30
0
10
-23.210798847000575
20
-18.779943462051442
30
0
10
-23.234567786947778
20
-18.864385243665794
30
0
10
-23.250196423706043
20
-18.920821769399005
30
0
10
-23.257956411271572
20
-18.949075533423571
30
0
0
ARC
5
133
100
AcDbEntity
8
0
100
AcDbCircle
10
6.6613381477509392e-15
20
-3.3306690738754696e-13
30
0
40
29.999999999999794
210
0
220
0
230
1
100
AcDbArc
50
219.17091604731789
51
223.90600702960418
0
SPLINE
5
134
100
AcDbEntity
8
0
100
AcDbSpline
70
4
71
5
72
56
73
50
74
0
42
0.000000001
43
0.0000000001
44
0.0000000001
40
-1
40
-1
40
-1
40
-1
40
-1
40
-1
40
-0.97777777777777819
40
-0.95555555555555594
40
-0.93333333333333368
40
-0.91111111111111143
40
-0.88888888888888917
40
-0.86666666666666692
40
-0.84444444444444466
40
-0.82222222222222241
40
-0.80000000000000016
40
-0.7777777777777779
40
-0.75555555555555565
40
-0.73333333333333339
40
-0.71111111111111114
40
-0.68888888888888888
40
-0.66666666666666663
40
-0.64444444444444438
40
-0.62222222222222212
40
-0.59999999999999987
40
-0.57777777777777761
40
-0.55555555555555536
40
-0.5333333333333331
40
-0.51111111111111085
40
-0.48888888888888865
40
-0.46666666666666645
40
-0.44444444444444425
40
-0.42222222222222205
40
-0.39999999999999986
40
-0.37777777777777766
40
-0.35555555555555546
40
-0.33333333333333326
40
-0.31111111111111106
40
-0.28888888888888886
40
-0.26666666666666666
40
-0.24444444444444446
40
-0.22222222222222224
40
-0.20000000000000001
40
-0.17777777777777778
40
-0.15555555555555556
40
-0.13333333333333333
40
-0.11111111111111112
40
-0.088888888888888892
40
-0.066666666666666666
40
-0.044444444444444446
40
-0.022222222222222223
40
0
40
0
40
0
40
0
40
0
40
0
41
1
41
1
41
1
41
1
41
1
41
1
41
1
41
1
41
1
41
1
41
1
41
1
41
1
41
1
41
1
41
1
41
1
41
1
41
1
41
1
41
1
41
1
41
1
41
1
41
1
41
1
41
1
41
1
41
1
41
1
41
1
41
1
41
1
41
1
41
1
41
1
41
1
41
1
41
1
41
1
41
1
41
1
41
1
41
1
41
1
41
1
41
1
41
1
41
1
41
1
10
-21.614352293321588
20
-20.804321064148766
30
0
10
-21.585369167907761
20
-20.800023270549811
30
0
10
-21.527460303997373
20
-20.791311255606857
30
0
10
-21.440769168929734
20
-20.777893950024009
30
0
10
-21.325525586928649
20
-20.759305080553947
30
0
10
-21.182047911243803
20
-20.734900154031116
30
0
10
-21.039151659756264
20
-20.709321155275667
30
0
10
-20.896843991027048
20
-20.682561907309807
30
0
10
-20.75513491167159
20
-20.654615942850981
30
0
10
-20.614037735272017
20
-20.625477301856257
30
0
10
-20.47356828719931
20
-20.595140489454909
30
0
10
-20.33374389320803
20
-20.563600299715571
30
0
10
-20.194582370891276
20
-20.530851750766033
30
0
10
-20.056101113247035
20
-20.496889993285276
30
0
10
-19.918315802635107
20
-20.461710366558464
30
0
10
-19.781240968507412
20
-20.425307976408909
30
0
10
-19.644891225972405
20
-20.387677133605141
30
0
10
-19.509282334683256
20
-20.348810842365932
30
0
10
-19.374432146790081
20
-20.308700411163386
30
0
10
-19.240361970011378
20
-20.26733482459591
30
0
10
-19.107095878396809
20
-20.224701362821278
30
0
10
-18.974658881152358
20
-20.180786896517215
30
0
10
-18.843075254449612
20
-20.135579155765374
30
0
10
-18.712367120866237
20
-20.08906777407023
30
0
10
-18.582552009671801
20
-20.041246214459068
30
0
10
-18.453644605871173
20
-19.992110222003532
30
0
10
-18.325661295355083
20
-19.941653974522858
30
0
10
-18.198624197471929
20
-19.889866667800142
30
0
10
-18.072564626247015
20
-19.83672960935198
30
0
10
-17.947528659724348
20
-19.782211534185041
30
0
10
-17.823573643855561
20
-19.726271636644807
30
0
10
-17.700758633172082
20
-19.668867758137495
30
0
10
-17.579135747087474
20
-19.609963828854493
30
0
10
-17.458742931972541
20
-19.54953609533742
30
0
10
-17.339591427314577
20
-19.487583949606577
30
0
10
-17.221676959106528
20
-19.424120240884015
30
0
10
-17.105004509389254
20
-19.359149849087292
30
0
10
-16.989610260271252
20
-19.292650729065535
30
0
10
-16.875581749846809
20
-19.224556485944863
30
0
10
-16.763086469523063
20
-19.154731733726724
30
0
10
-16.652354131425369
20
-19.082987174157438
30
0
10
-16.543640324716332
20
-19.009110640892338
30
0
10
-16.437195381581454
20
-18.932893687393847
30
0
10
-16.333232929724513
20
-18.854158456811142
30
0
10
-16.231893348687471
20
-18.772788922908099
30
0
10
-16.133254105044173
20
-18.688722013706336
30
0
10
-16.056530254372611
20
-18.619289095529084
30
0
10
-16.000220898813765
20
-18.565986524263881
30
0
10
-15.963229133387067
20
-18.529906182114168
30
0
10
-15.944870201398096
20
-18.511729687816363
30
0
0
LINE
5
135
100
AcDbEntity
8
0
100
AcDbLine
10
-15.944870201398096
20
-18.511729687816359
30
0
11
-13.705065596929572
21
-15.91135371311497
31
0
0
ARC
5
136
100
AcDbEntity
8
0
100
AcDbCircle
10
-11.997831874804533
20
-17.381860281750189
30
0
40
2.2532280289309967
210
0
220
0
230
1
100
AcDbArc
50
-28.491173888463212
51
139.26040465769398
0
LINE
5
137
100
AcDbEntity
8
0
100
AcDbLine
10
-10.017490926965646
20
-18.456702726331184
30
0
11
-11.654639041635452
21
-21.473062440727951
31
0
0
SPLINE
5
138
100
AcDbEntity
8
0
100
AcDbSpline
70
4
71
5
72
56
73
50
74
0
42
0.000000001
43
0.0000000001
44
0.0000000001
40
0
40
0
40
0
40
0
40
0
40
0
40
0.022222222222222223
40
0.044444444444444446
40
0.066666666666666666
40
0.088888888888888892
40
0.11111111111111112
40
0.13333333333333333
40
0.15555555555555556
40
0.17777777777777778
40
0.20000000000000001
40
0.22222222222222224
40
0.24444444444444446
40
0.26666666666666666
40
0.28888888888888886
40
0.31111111111111106
40
0.33333333333333326
40
0.35555555555555546
40
0.37777777777777766
40
0.39999999999999986
40
0.42222222222222205
40
0.44444444444444425
40
0.46666666666666645
40
0.48888888888888865
40
0.51111111111111085
40
0.5333333333333331
40
0.55555555555555536
40
0.57777777777777761
40
0.59999999999999987
40
0.62222222222222212
40
0.64444444444444438
40
0.66666666666666663
40
0.68888888888888888
40
0.71111111111111114
40
0.73333333333333339
40
0.75555555555555565
40
0.7777777777777779
40
0.80000000000000016
40
0.82222222222222241
40
0.84444444444444466
40
0.86666666666666692
40
0.88888888888888917
40
0.91111111111111143
40
0.93333333333333368
40
0.95555555555555594
40
0.97777777777777819
40
1
40
1
40
1
40
1
40
1
40
1
41
1
41
1
41
1
41
1
41
1
41
1
41
1
41
1
41
1
41
1
41
1
41
1
41
1
41
1
41
1
41
1
41
1
41
1
41
1
41
1
41
1
41
1
41
1
41
1
41
1
41
1
41
1
41
1
41
1
41
1
41
1
41
1
41
1
41
1
41
1
41
1
41
1
41
1
41
1
41
1
41
1
41
1
41
1
41
1
41
1
41
1
41
1
41
1
41
1
41
1
10
-11.654639041635452
20
-21.473062440727951
30
0
10
-11.665124192034453
20
-21.496673814043426
30
0
10
-11.685742437184835
20
-21.544055981215685
30
0
10
-11.71561363442672
20
-21.615607495541155
30
0
10
-11.753327888298431
20
-21.711966794227795
30
0
10
-11.796953856024782
20
-21.834006626041823
30
0
10
-11.837100181198068
20
-21.957614814716493
30
0
10
-11.873853307167808
20
-22.082741293378906
30
0
10
-11.907371499620748
20
-22.209295948347631
30
0
10
-11.937896811028976
20
-22.337142103158271
30
0
10
-11.965712911307298
20
-22.466119609312202
30
0
10
-11.991108812600398
20
-22.596064722013566
30
0
10
-12.014342968892603
20
-22.726829782779809
30
0
10
-12.035601361563195
20
-22.858306192961443
30
0
10
-12.054977112333772
20
-22.990435646965185
30
0
10
-12.072503664130913
20
-23.123192131250157
30
0
10
-12.088178220808432
20
-23.256569257084632
30
0
10
-12.101987252551137
20
-23.39056646433772
30
0
10
-12.113935313406996
20
-23.525173459498838
30
0
10
-12.124058069213941
20
-23.660363185187361
30
0
10
-12.132407727627665
20
-23.796099699435445
30
0
10
-12.139044648643607
20
-23.932342734940384
30
0
10
-12.144027321366258
20
-24.069053142190441
30
0
10
-12.147401318571827
20
-24.206198924185468
30
0
10
-12.149195222142318
20
-24.343757430249141
30
0
10
-12.149426977825062
20
-24.481711809659544
30
0
10
-12.14810783997056
20
-24.620048805916461
30
0
10
-12.145246994380424
20
-24.758756197120199
30
0
10
-12.140856769194956
20
-24.897819911161466
30
0
10
-12.134954702030001
20
-25.037222939080795
30
0
10
-12.1275608739076
20
-25.176946933236444
30
0
10
-12.11869642934399
20
-25.316973165336453
30
0
10
-12.108381798373935
20
-25.457283636271573
30
0
10
-12.096634836397977
20
-25.597862329094131
30
0
10
-12.083470000595526
20
-25.738695633812082
30
0
10
-12.068899420585717
20
-25.879771295631947
30
0
10
-12.052933598481243
20
-26.021077666619206
30
0
10
-12.035582262631465
20
-26.162602896999303
30
0
10
-12.016855331921867
20
-26.304333976223351
30
0
10
-11.996763508188463
20
-26.446256361148663
30
0
10
-11.975317767768274
20
-26.588355158632506
30
0
10
-11.952529122088924
20
-26.730616014861663
30
0
10
-11.928408320697681
20
-26.873026081365239
30
0
10
-11.902965657392784
20
-27.015575023188028
30
0
10
-11.876210727583214
20
-27.158255777312078
30
0
10
-11.848151845304255
20
-27.301063840753066
30
0
10
-11.824666802814058
20
-27.415410165748007
30
0
10
-11.806471101308846
20
-27.501225627263707
30
0
10
-11.79408221064133
20
-27.558460678690132
30
0
10
-11.787823159550552
20
-27.58708439032954
30
0
0
ARC
5
139
100
AcDbEntity
8
0
100
AcDbCircle
10
6.6613381477509392e-15
20
-3.3306690738754696e-13
30
0
40
29.999999999999694
210
0
220
0
230
1
100
AcDbArc
50
246.86322373962585
51
251.59831472191198
0
SPLINE
5
140
100
AcDbEntity
8
0
100
AcDbSpline
70
4
71
5
72
56
73
50
74
0
42
0.000000001
43
0.0000000001
44
0.0000000001
40
-1
40
-1
40
-1
40
-1
40
-1
40
-1
40
-0.97777777777777819
40
-0.95555555555555594
40
-0.93333333333333368
40
-0.91111111111111143
40
-0.88888888888888917
40
-0.86666666666666692
40
-0.84444444444444466
40
-0.82222222222222241
40
-0.80000000000000016
40
-0.7777777777777779
40
-0.75555555555555565
40
-0.73333333333333339
40
-0.71111111111111114
40
-0.68888888888888888
40
-0.66666666666666663
40
-0.64444444444444438
40
-0.62222222222222212
40
-0.59999999999999987
40
-0.57777777777777761
40
-0.55555555555555536
40
-0.5333333333333331
40
-0.51111111111111085
40
-0.48888888888888865
40
-0.46666666666666645
40
-0.44444444444444425
40
-0.42222222222222205
40
-0.39999999999999986
40
-0.37777777777777766
40
-0.35555555555555546
40
-0.33333333333333326
40
-0.31111111111111106
40
-0.28888888888888886
40
-0.26666666666666666
40
-0.24444444444444446
40
-0.22222222222222224
40
-0.20000000000000001
40
-0.17777777777777778
40
-0.15555555555555556
40
-0.13333333333333333
40
-0.11111111111111112
40
-0.088888888888888892
40
-0.066666666666666666
40
-0.044444444444444446
40
-0.022222222222222223
40
0
40
0
40
0
40
0
40
0
40
0
41
1
41
1
41
1
41
1
41
1
41
1
41
1
41
1
41
1
41
1
41
1
41
1
41
1
41
1
41
1
41
1
41
1
41
1
41
1
41
1
41
1
41
1
41
1
41
1
41
1
41
1
41
1
41
1
41
1
41
1
41
1
41
1
41
1
41
1
41
1
41
1
41
1
41
1
41
1
41
1
41
1
41
1
41
1
41
1
41
1
41
1
41
1
41
1
41
1
41
1
10
-9.4703084015646706
20
-28.466001805298436
30
0
10
-9.4466424027988243
20
-28.44872716808117
30
0
10
-9.3994153255298318
20
-28.414101471028467
30
0
10
-9.3288894704242136
20
-28.36193365767539
30
0
10
-9.2354850247083284
20
-28.291917668207816
30
0
10
-9.1197833870936513
20
-28.203630778400822
30
0
10
-9.0051421936100855
20
-28.114574500558177
30
0
10
-8.891570653433341
20
-28.024746691986874
30
0
10
-8.7790806324774096
20
-27.934146276498634
30
0
10
-8.6676866891038689
20
-27.842774163867684
30
0
10
-8.5574053895765605
20
-27.750632843044215
30
0
10
-8.4482544944061999
20
-27.657725756084549
30
0
10
-8.3402520954794177
20
-27.5640567720083
30
0
10
-8.2334158471229273
20
-27.469629679884147
30
0
10
-8.1277618013188953
20
-27.37444764081005
30
0
10
-8.0233050976953919
20
-27.278513073380747
30
0
10
-7.9200613212059503
20
-27.181827732011531
30
0
10
-7.8180476774320882
20
-27.084392746121747
30
0
10
-7.7172840128220965
20
-26.98620871605349
30
0
10
-7.6177943135360877
20
-26.887275790343569
30
0
10
-7.5196058072918337
20
-26.787593893899771
30
0
10
-7.422746740141748
20
-26.6871630236421
30
0
10
-7.3272443096836266
20
-26.585983596796886
30
0
10
-7.2331229220378512
20
-26.48405671516268
30
0
10
-7.1404011364844733
20
-26.381384736795347
30
0
10
-7.0490939333133529
20
-26.277970718604994
30
0
10
-6.9592185272124762
20
-26.17381712020968
30
0
10
-6.8707995248621279
20
-26.068924654324203
30
0
10
-6.7838733402848721
20
-25.963291321929674
30
0
10
-6.6984953031293015
20
-25.856910852784122
30
0
10
-6.6147351540470485
20
-25.74977376526742
30
0
10
-6.5326647753042337
20
-25.641870173807835
30
0
10
-6.4523470788255208
20
-25.533192361275194
30
0
10
-6.3738267032361184
20
-25.42373692958445
30
0
10
-6.2971138831500326
20
-25.313508563646494
30
0
10
-6.2221988627907319
20
-25.2025166546523
30
0
10
-6.1490837857255531
20
-25.090767838824107
30
0
10
-6.0778109345129181
20
-24.978259410814484
30
0
10
-6.0084886755222966
20
-24.864973261863117
30
0
10
-5.9413282320400729
20
-24.750867350759815
30
0
10
-5.8766209753367216
20
-24.635880814772776
30
0
10
-5.8146918169930579
20
-24.519944568140048
30
0
10
-5.7558592850873014
20
-24.402990375786221
30
0
10
-5.7003951917568818
20
-24.284960031035165
30
0
10
-5.6484777569936107
20
-24.165816035382996
30
0
10
-5.6002048850519319
20
-24.045538541878347
30
0
10
-5.5645363751430654
20
-23.94840339484411
30
0
10
-5.5394478569592929
20
-23.875038049603475
30
0
10
-5.5234606464149127
20
-23.825899562670791
30
0
10
-5.5156516575474335
20
-23.8012732551603
30
0
0
LINE
5
141
100
AcDbEntity
8
0
100
AcDbLine
10
-5.5156516575474344
20
-23.801273255160304
30
0
11
-4.7408581457046131
21
-20.45786557885026
31
0
0
ARC
5
142
100
AcDbEntity
8
0
100
AcDbCircle
10
-2.5457992821632809
20
-20.966543410044906
30
0
40
2.2532280289309963
210
0
220
0
230
1
100
AcDbArc
50
-0.7988661961549296
51
166.95271235000158
0
LINE
5
143
100
AcDbEntity
8
0
100
AcDbLine
10
-0.29279026675859243
20
-20.997958802219117
30
0
11
-0.34064067528027264
21
-24.429633351824158
31
0
0
SPLINE
5
144
100
AcDbEntity
8
0
100
AcDbSpline
70
4
71
5
72
56
73
50
74
0
42
0.000000001
43
0.0000000001
44
0.0000000001
40
0
40
0
40
0
40
0
40
0
40
0
40
0.022222222222222223
40
0.044444444444444446
40
0.066666666666666666
40
0.088888888888888892
40
0.11111111111111112
40
0.13333333333333333
40
0.15555555555555556
40
0.17777777777777778
40
0.20000000000000001
40
0.22222222222222224
40
0.24444444444444446
40
0.26666666666666666
40
0.28888888888888886
40
0.31111111111111106
40
0.33333333333333326
40
0.35555555555555546
40
0.37777777777777766
40
0.39999999999999986
40
0.42222222222222205
40
0.44444444444444425
40
0.46666666666666645
40
0.48888888888888865
40
0.51111111111111085
40
0.5333333333333331
40
0.55555555555555536
40
0.57777777777777761
40
0.59999999999999987
40
0.62222222222222212
40
0.64444444444444438
40
0.66666666666666663
40
0.68888888888888888
40
0.71111111111111114
40
0.73333333333333339
40
0.75555555555555565
40
0.7777777777777779
40
0.80000000000000016
40
0.82222222222222241
40
0.84444444444444466
40
0.86666666666666692
40
0.88888888888888917
40
0.91111111111111143
40
0.93333333333333368
40
0.95555555555555594
40
0.97777777777777819
40
1
40
1
40
1
40
1
40
1
40
1
41
1
41
1
41
1
41
1
41
1
41
1
41
1
41
1
41
1
41
1
41
1
41
1
41
1
41
1
41
1
41
1
41
1
41
1
41
1
41
1
41
1
41
1
41
1
41
1
41
1
41
1
41
1
41
1
41
1
41
1
41
1
41
1
41
1
41
1
41
1
41
1
41
1
41
1
41
1
41
1
41
1
41
1
41
1
41
1
41
1
41
1
41
1
41
1
41
1
41
1
10
-0.34064067528027264
20
-24.429633351824158
30
0
10
-0.33895206257746946
20
-24.45541287695308
30
0
10
-0.33518902095767356
20
-24.506949478672521
30
0
10
-0.32838700584710778
20
-24.584187035711615
30
0
10
-0.31700092024925963
20
-24.687035645051939
30
0
10
-0.29891505849120703
20
-24.815370547606648
30
0
10
-0.2770192744922495
20
-24.943477090669141
30
0
10
-0.25141337727308422
20
-25.071351114452725
30
0
10
-0.22227938205557352
20
-25.198986376987147
30
0
10
-0.18989513237973044
20
-25.326374344666078
30
0
10
-0.15458623019919404
20
-25.453505041019035
30
0
10
-0.11668467905990132
20
-25.580367787870479
30
0
10
-0.076487948918017024
20
-25.706951949682733
30
0
10
-0.034211186415360473
20
-25.833247796983741
30
0
10
0.010036057298310475
20
-25.959246978556454
30
0
10
0.056212080886897109
20
-26.084942002257275
30
0
10
0.10431639122322367
20
-26.210325911711276
30
0
10
0.15436070805787128
20
-26.335391923328544
30
0
10
0.20633621534873248
20
-26.460133039029738
30
0
10
0.26019875837295647
20
-26.584541875435473
30
0
10
0.31588540648191166
20
-26.708610869621111
30
0
10
0.37332400040529012
20
-26.832332417349374
30
0
10
0.43244455692780293
20
-26.955699034691371
30
0
10
0.49319185361274498
20
-27.078703568435625
30
0
10
0.55553005616632567
20
-27.201339245067182
30
0
10
0.61943544349749247
20
-27.323599483817397
30
0
10
0.68489188977094773
20
-27.445477776795734
30
0
10
0.75188558156331464
20
-27.566967570902349
30
0
10
0.82039906321320577
20
-27.688062135075725
30
0
10
0.89040890147540153
20
-27.808754558766687
30
0
10
0.96188878891366736
20
-27.929037928061547
30
0
10
1.0348112995174366
20
-28.048905486228012
30
0
10
1.1091499787861845
20
-28.168350790156886
30
0
10
1.1848815731011817
20
-28.287367955363727
30
0
10
1.2619869563871298
20
-28.405951649385347
30
0
10
1.3404496933131795
20
-28.524096658056088
30
0
10
1.4202550716552871
20
-28.641797548217266
30
0
10
1.5013889705230681
20
-28.759048348403976
30
0
10
1.5838365608760554
20
-28.87584214788323
30
0
10
1.6675816081736661
20
-28.992171042732885
30
0
10
1.7526074721636169
20
-29.108026946688135
30
0
10
1.8388977321613518
20
-29.223402267344134
30
0
10
1.9264368989333152
20
-29.338290623508627
30
0
10
2.0152110548806719
20
-29.452687647799813
30
0
10
2.1052084213426108
20
-29.566591545434783
30
0
10
2.1964195439653316
20
-29.680002192943796
30
0
10
2.2703539032141973
20
-29.770336791980235
30
0
10
2.3263458302389468
20
-29.837866645352456
30
0
10
2.3639141027826338
20
-29.882788361947448
30
0
10
2.3827583193545676
20
-29.905224673818232
30
0
0
ARC
5
145
100
AcDbEntity
8
0
100
AcDbCircle
10
6.6613381477509392e-15
20
-3.3306690738754696e-13
30
0
40
29.999999999999673
210
0
220
0
230
1
100
AcDbArc
50
274.55553143193379
51
279.29062241422002
0
SPLINE
5
146
100
AcDbEntity
8
0
100
AcDbSpline
70
4
71
5
72
56
73
50
74
0
42
0.000000001
43
0.0000000001
44
0.0000000001
40
-1
40
-1
40
-1
40
-1
40
-1
40
-1
40
-0.97777777777777819
40
-0.95555555555555594
40
-0.93333333333333368
40
-0.91111111111111143
40
-0.88888888888888917
40
-0.86666666666666692
40
-0.84444444444444466
40
-0.82222222222222241
40
-0.80000000000000016
40
-0.7777777777777779
40
-0.75555555555555565
40
-0.73333333333333339
40
-0.71111111111111114
40
-0.68888888888888888
40
-0.66666666666666663
40
-0.64444444444444438
40
-0.62222222222222212
40
-0.59999999999999987
40
-0.57777777777777761
40
-0.55555555555555536
40
-0.5333333333333331
40
-0.51111111111111085
40
-0.48888888888888865
40
-0.46666666666666645
40
-0.44444444444444425
40
-0.42222222222222205
40
-0.39999999999999986
40
-0.37777777777777766
40
-0.35555555555555546
40
-0.33333333333333326
40
-0.31111111111111106
40
-0.28888888888888886
40
-0.26666666666666666
40
-0.24444444444444446
40
-0.22222222222222224
40
-0.20000000000000001
40
-0.17777777777777778
40
-0.15555555555555556
40
-0.13333333333333333
40
-0.11111111111111112
40
-0.088888888888888892
40
-0.066666666666666666
40
-0.044444444444444446
40
-0.022222222222222223
40
0
40
0
40
0
40
0
40
0
40
0
41
1
41
1
41
1
41
1
41
1
41
1
41
1
41
1
41
1
41
1
41
1
41
1
41
1
41
1
41
1
41
1
41
1
41
1
41
1
41
1
41
1
41
1
41
1
41
1
41
1
41
1
41
1
41
1
41
1
41
1
41
1
41
1
41
1
41
1
41
1
41
1
41
1
41
1
41
1
41
1
41
1
41
1
41
1
41
1
41
1
41
1
41
1
41
1
41
1
41
1
10
4.843269015402262
20
-29.606464585364538
30
0
10
4.8561962924090674
20
-29.580170515733492
30
0
10
4.8819224287823282
20
-29.527563466480924
30
0
10
4.9201263804499176
20
-29.448596162706515
30
0
10
4.9702938570126909
20
-29.343192872644298
30
0
10
5.0317136057355674
20
-29.211249482035562
30
0
10
5.0918368253642203
20
-29.079117645114984
30
0
10
5.1506543658194337
20
-28.946799744339458
30
0
10
5.208155220226546
20
-28.814300341156809
30
0
10
5.2643269205897241
20
-28.681627006740058
30
0
10
5.3191559548836578
20
-28.548789643671828
30
0
10
5.372628196560453
20
-28.41579955346252
30
0
10
5.4247294240731447
20
-28.282668569677803
30
0
10
5.4754457661597762
20
-28.149408251746078
30
0
10
5.5247644785314876
20
-28.016028858408653
30
0
10
5.5726732796903988
20
-27.882539566960794
30
0
10
5.619159185162931
20
-27.748949173549121
30
0
10
5.6642074850305955
20
-27.615266674057249
30
0
10
5.7078008851290507
20
-27.481501823166084
30
0
10
5.7499182157967885
20
-27.347665899322863
30
0
10
5.7905353331899505
20
-27.213771489388094
30
0
10
5.8296272252398822
20
-27.079831717229652
30
0
10
5.8671700035644747
20
-26.945859591637035
30
0
10
5.9031425696486899
20
-26.811867430294072
30
0
10
5.9375295859093775
20
-26.67786594608306
30
0
10
5.9703192085755745
20
-26.543864807451271
30
0
10
6.0014973378395808
20
-26.409874192346756
30
0
10
6.0310425167831516
20
-26.275906167141638
30
0
10
6.0589215734001876
20
-26.141975884232668
30
0
10
6.0850826017932036
20
-26.008103504566115
30
0
10
6.1094594433534049
20
-25.874313042681152
30
0
10
6.1319838554408594
20
-25.740629150693451
30
0
10
6.152596545983573
20
-25.607074232052774
30
0
10
6.1712564102730187
20
-25.473666022507757
30
0
10
6.1879565631952049
20
-25.340413426603252
30
0
10
6.2027100073653072
20
-25.207320226090495
30
0
10
6.2155179287549593
20
-25.074393293217859
30
0
10
6.2263416307803796
20
-24.94164988220383
30
0
10
6.2350767442262161
20
-24.809124318900434
30
0
10
6.2415167026362237
20
-24.676877538020445
30
0
10
6.2453752252414709
20
-24.544991055272291
30
0
10
6.2463325113704897
20
-24.413554692192257
30
0
10
6.2440748079963884
20
-24.282656057000548
30
0
10
6.2383343874330706
20
-24.152369927643758
30
0
10
6.2289360172912218
20
-24.02274592380558
30
0
10
6.2157837843206121
20
-23.893811970259019
30
0
10
6.2022257276988002
20
-23.791227085947927
30
0
10
6.1903459313410192
20
-23.714606083178239
30
0
10
6.1816661097341381
20
-23.663666486635897
30
0
10
6.177136210239107
20
-23.638231956184192
30
0
0
LINE
5
147
100
AcDbEntity
8
0
100
AcDbLine
10
6.177136210239107
20
-23.638231956184189
30
0
11
5.3094227731670607
21
-20.317726984477744
31
0
0
ARC
5
148
100
AcDbEntity
8
0
100
AcDbCircle
10
7.4894452458143457
20
-19.748044117337528
30
0
40
2.2532280289309976
210
0
220
-0
230
1
100
AcDbArc
50
26.893441496152139
51
194.64502004230934
0
LINE
5
149
100
AcDbEntity
8
0
100
AcDbLine
10
9.4989851150576357
20
-18.728835569354374
30
0
11
11.051394364616481
21
-21.7896696710147
31
0
0
SPLINE
5
150
100
AcDbEntity
8
0
100
AcDbSpline
70
4
71
5
72
56
73
50
74
0
42
0.000000001
43
0.0000000001
44
0.0000000001
40
0
40
0
40
0
40
0
40
0
40
0
40
0.022222222222222223
40
0.044444444444444446
40
0.066666666666666666
40
0.088888888888888892
40
0.11111111111111112
40
0.13333333333333333
40
0.15555555555555556
40
0.17777777777777778
40
0.20000000000000001
40
0.22222222222222224
40
0.24444444444444446
40
0.26666666666666666
40
0.28888888888888886
40
0.31111111111111106
40
0.33333333333333326
40
0.35555555555555546
40
0.37777777777777766
40
0.39999999999999986
40
0.42222222222222205
40
0.44444444444444425
40
0.46666666666666645
40
0.48888888888888865
40
0.51111111111111085
40
0.5333333333333331
40
0.55555555555555536
40
0.57777777777777761
40
0.59999999999999987
40
0.62222222222222212
40
0.64444444444444438
40
0.66666666666666663
40
0.68888888888888888
40
0.71111111111111114
40
0.73333333333333339
40
0.75555555555555565
40
0.7777777777777779
40
0.80000000000000016
40
0.82222222222222241
40
0.84444444444444466
40
0.86666666666666692
40
0.88888888888888917
40
0.91111111111111143
40
0.93333333333333368
40
0.95555555555555594
40
0.97777777777777819
40
1
40
1
40
1
40
1
40
1
40
1
41
1
41
1
41
1
41
1
41
1
41
1
41
1
41
1
41
1
41
1
41
1
41
1
41
1
41
1
41
1
41
1
41
1
41
1
41
1
41
1
41
1
41
1
41
1
41
1
41
1
41
1
41
1
41
1
41
1
41
1
41
1
41
1
41
1
41
1
41
1
41
1
41
1
41
1
41
1
41
1
41
1
41
1
41
1
41
1
41
1
41
1
41
1
41
1
41
1
41
1
10
11.051394364616481
20
-21.7896696710147
30
0
10
11.064869899600865
20
-21.811711569426979
30
0
10
11.092152160505311
20
-21.855596191323066
30
0
10
11.134069128279664
20
-21.920825597571589
30
0
10
11.191947138353807
20
-22.006602140625844
30
0
10
11.267601576625758
20
-22.111832134349175
30
0
10
11.346523409555601
20
-22.215089366635084
30
0
10
11.428622327495274
20
-22.316416537740061
30
0
10
11.513734263181608
20
-22.415892707365206
30
0
10
11.601609232613306
20
-22.513639439708623
30
0
10
11.691954293281537
20
-22.609799215817109
30
0
10
11.784470508250415
20
-22.704516870376807
30
0
10
11.878889538373997
20
-22.797921227268407
30
0
10
11.975016359250763
20
-22.890103655102084
30
0
10
12.072750087150972
20
-22.981107670200206
30
0
10
12.172050315602551
20
-23.070946018176265
30
0
10
12.272913375174454
20
-23.159612768633792
30
0
10
12.375346490699034
20
-23.24709646856256
30
0
10
12.479338603789046
20
-23.333395018490087
30
0
10
12.584847186151597
20
-23.418522400481486
30
0
10
12.69181300079833
20
-23.502501163230214
30
0
10
12.800168620003278
20
-23.58535810760354
30
0
10
12.909848598751591
20
-23.667119129733329
30
0
10
13.02080071574081
20
-23.747803558911333
30
0
10
13.132990093470218
20
-23.827422050514599
30
0
10
13.24639266972113
20
-23.90597980130255
30
0
10
13.360991141407982
20
-23.983478542873637
30
0
10
13.476770231974456
20
-24.059918892164028
30
0
10
13.593711357119743
20
-24.135303001165095
30
0
10
13.711790556243324
20
-24.209635640861471
30
0
10
13.830981322211372
20
-24.282922914961837
30
0
10
13.951256230487498
20
-24.355171586179484
30
0
10
14.072588862512671
20
-24.426388243443974
30
0
10
14.194955893573791
20
-24.496578482798537
30
0
10
14.318337910253025
20
-24.565746470911893
30
0
10
14.442717936644044
20
-24.633895228748738
30
0
10
14.568080420804677
20
-24.70102678259741
30
0
10
14.694410084229331
20
-24.767142407293274
30
0
10
14.821690584877011
20
-24.832242875084912
30
0
10
14.949903874640174
20
-24.896328731964019
30
0
10
15.079031461432528
20
-24.959400551009523
30
0
10
15.209055277093526
20
-25.021459240553419
30
0
10
15.339958641100079
20
-25.08250634853632
30
0
10
15.471727200406914
20
-25.142544475664387
30
0
10
15.604349691450629
20
-25.201577506552884
30
0
10
15.737817685437436
20
-25.259609725532059
30
0
10
15.845263890746672
20
-25.305238030620689
30
0
10
15.92622496758546
20
-25.339012000264816
30
0
10
15.980366183512324
20
-25.361329358121832
30
0
10
16.007478582646211
20
-25.37243838156126
30
0
0
ARC
5
151
100
AcDbEntity
8
0
100
AcDbCircle
10
6.6613381477509392e-15
20
-3.3306690738754696e-13
30
0
40
29.999999999999719
210
0
220
0
230
1
100
AcDbArc
50
302.24783912424181
51
306.98293010652804
0
SPLINE
5
152
100
AcDbEntity
8
0
100
AcDbSpline
70
4
71
5
72
56
73
50
74
0
42
0.000000001
43
0.0000000001
44
0.0000000001
40
-1
40
-1
40
-1
40
-1
40
-1
40
-1
40
-0.97777777777777819
40
-0.95555555555555594
40
-0.93333333333333368
40
-0.91111111111111143
40
-0.88888888888888917
40
-0.86666666666666692
40
-0.84444444444444466
40
-0.82222222222222241
40
-0.80000000000000016
40
-0.7777777777777779
40
-0.75555555555555565
40
-0.73333333333333339
40
-0.71111111111111114
40
-0.68888888888888888
40
-0.66666666666666663
40
-0.64444444444444438
40
-0.62222222222222212
40
-0.59999999999999987
40
-0.57777777777777761
40
-0.55555555555555536
40
-0.5333333333333331
40
-0.51111111111111085
40
-0.48888888888888865
40
-0.46666666666666645
40
-0.44444444444444425
40
-0.42222222222222205
40
-0.39999999999999986
40
-0.37777777777777766
40
-0.35555555555555546
40
-0.33333333333333326
40
-0.31111111111111106
40
-0.28888888888888886
40
-0.26666666666666666
40
-0.24444444444444446
40
-0.22222222222222224
40
-0.20000000000000001
40
-0.17777777777777778
40
-0.15555555555555556
40
-0.13333333333333333
40
-0.11111111111111112
40
-0.088888888888888892
40
-0.066666666666666666
40
-0.044444444444444446
40
-0.022222222222222223
40
0
40
0
40
0
40
0
40
0
40
0
41
1
41
1
41
1
41
1
41
1
41
1
41
1
41
1
41
1
41
1
41
1
41
1
41
1
41
1
41
1
41
1
41
1
41
1
41
1
41
1
41
1
41
1
41
1
41
1
41
1
41
1
41
1
41
1
41
1
41
1
41
1
41
1
41
1
41
1
41
1
41
1
41
1
41
1
41
1
41
1
41
1
41
1
41
1
41
1
41
1
41
1
41
1
41
1
41
1
41
1
10
18.047311868659538
20
-23.964443125500345
30
0
10
18.046538940535623
20
-23.935153277930098
30
0
10
18.044870588203587
20
-23.876616517477768
30
0
10
18.042000571513629
20
-23.788940180917557
30
0
10
18.037438314626392
20
-23.672296213766614
30
0
10
18.030505650213268
20
-23.526922963054375
30
0
10
18.02233739093343
20
-23.381985378533102
30
0
10
18.012926541977027
20
-23.237489822017473
30
0
10
18.002265477051061
20
-23.093445447618638
30
0
10
17.990346674793045
20
-22.949864753443954
30
0
10
17.97716277285836
20
-22.806762787146134
30
0
10
17.962706514883806
20
-22.664156120649807
30
0
10
17.946970807647105
20
-22.522061841139411
30
0
10
17.929948740690008
20
-22.380496630277349
30
0
10
17.911633796979959
20
-22.239475494294261
30
0
10
17.892019366692409
20
-22.099012266778189
30
0
10
17.871098040420168
20
-21.959120770515931
30
0
10
17.848860973772823
20
-21.819815807006787
30
0
10
17.825297386754603
20
-21.681114050590672
30
0
10
17.800393775916952
20
-21.5430353258689
30
0
10
17.774134612353571
20
-21.405601998156651
30
0
10
17.746503847943082
20
-21.268837311749706
30
0
10
17.717486376059508
20
-21.132763886843815
30
0
10
17.687069239208682
20
-20.997402435175189
30
0
10
17.65524383515983
20
-20.862769570260276
30
0
10
17.622004169926065
20
-20.728879357158817
30
0
10
17.587342488676008
20
-20.59574736050358
30
0
10
17.551245399774832
20
-20.463394236063593
30
0
10
17.51369057253974
20
-20.33184881641975
30
0
10
17.47464141583993
20
-20.201153075076736
30
0
10
17.434050509249424
20
-20.071359021291507
30
0
10
17.391868883320875
20
-19.942520197364519
30
0
10
17.348054448934104
20
-19.814683994965144
30
0
10
17.302579051890625
20
-19.687885220629401
30
0
10
17.255440733873098
20
-19.562134958612216
30
0
10
17.20665276559291
20
-19.437430514871423
30
0
10
17.156219390868845
20
-19.313777423332265
30
0
10
17.10411436401278
20
-19.19120894504562
30
0
10
17.050261222692917
20
-19.069803976836827
30
0
10
16.994505379168888
20
-18.949712469933274
30
0
10
16.93663122664741
20
-18.831139644217203
30
0
10
16.876397337846171
20
-18.714313651491608
30
0
10
16.813566611826943
20
-18.599457873284877
30
0
10
16.747936738541377
20
-18.48676294143992
30
0
10
16.679375616831269
20
-18.376354226556476
30
0
10
16.607811297020344
20
-18.268301027902947
30
0
10
16.548132661247621
20
-18.183767367028782
30
0
10
16.502006068526786
20
-18.121443655081396
30
0
10
16.470647657295594
20
-18.080372596608559
30
0
10
16.454816614821151
20
-18.059956587622811
30
0
0
LINE
5
153
100
AcDbEntity
8
0
100
AcDbLine
10
16.454816614821151
20
-18.059956587622811
30
0
11
14.143378920186924
21
-15.523041993115015
31
0
0
ARC
5
154
100
AcDbEntity
8
0
100
AcDbCircle
10
15.808948125575476
20
-14.005505907078973
30
0
40
2.2532280289309963
210
0
220
-0
230
1
100
AcDbArc
50
54.585749188459836
51
222.33732773461705
0
LINE
5
155
100
AcDbEntity
8
0
100
AcDbLine
10
17.114657482194456
20
-12.169161814486868
30
0
11
19.91168813931943
21
-14.157955262561773
31
0
0
SPLINE
5
156
100
AcDbEntity
8
0
100
AcDbSpline
70
4
71
5
72
56
73
50
74
0
42
0.000000001
43
0.0000000001
44
0.0000000001
40
0
40
0
40
0
40
0
40
0
40
0
40
0.022222222222222223
40
0.044444444444444446
40
0.066666666666666666
40
0.088888888888888892
40
0.11111111111111112
40
0.13333333333333333
40
0.15555555555555556
40
0.17777777777777778
40
0.20000000000000001
40
0.22222222222222224
40
0.24444444444444446
40
0.26666666666666666
40
0.28888888888888886
40
0.31111111111111106
40
0.33333333333333326
40
0.35555555555555546
40
0.37777777777777766
40
0.39999999999999986
40
0.42222222222222205
40
0.44444444444444425
40
0.46666666666666645
40
0.48888888888888865
40
0.51111111111111085
40
0.5333333333333331
40
0.55555555555555536
40
0.57777777777777761
40
0.59999999999999987
40
0.62222222222222212
40
0.64444444444444438
40
0.66666666666666663
40
0.68888888888888888
40
0.71111111111111114
40
0.73333333333333339
40
0.75555555555555565
40
0.7777777777777779
40
0.80000000000000016
40
0.82222222222222241
40
0.84444444444444466
40
0.86666666666666692
40
0.88888888888888917
40
0.91111111111111143
40
0.93333333333333368
40
0.95555555555555594
40
0.97777777777777819
40
1
40
1
40
1
40
1
40
1
40
1
41
1
41
1
41
1
41
1
41
1
41
1
41
1
41
1
41
1
41
1
41
1
41
1
41
1
41
1
41
1
41
1
41
1
41
1
41
1
41
1
41
1
41
1
41
1
41
1
41
1
41
1
41
1
41
1
41
1
41
1
41
1
41
1
41
1
41
1
41
1
41
1
41
1
41
1
41
1
41
1
41
1
41
1
41
1
41
1
41
1
41
1
41
1
41
1
41
1
41
1
10
19.91168813931943
20
-14.157955262561773
30
0
10
19.933863513918276
20
-14.171210000964829
30
0
10
19.978414956921057
20
-14.197389205028193
30
0
10
20.045844205196314
20
-14.235667189614176
30
0
10
20.136954985144403
20
-14.28472129408803
30
0
10
20.252846479856963
20
-14.342739455576874
30
0
10
20.370714320904654
20
-14.397492389554039
30
0
10
20.490498386864076
20
-14.449059874205048
30
0
10
20.612090144263504
20
-14.497588159277599
30
0
10
20.735324736962436
20
-14.543301057881436
30
0
10
20.860008991495285
20
-14.586460867889933
30
0
10
20.985945520385634
20
-14.627334756969736
30
0
10
21.112956588562263
20
-14.666161496421338
30
0
10
21.240911971604049
20
-14.70311262148968
30
0
10
21.369742564447954
20
-14.738273546971499
30
0
10
21.49941851212175
20
-14.771674336370943
30
0
10
21.629933809512949
20
-14.803311443852351
30
0
10
21.761289531413638
20
-14.833171370731808
30
0
10
21.893474910434705
20
-14.861257397107551
30
0
10
22.026458787432574
20
-14.88760166736655
30
0
10
22.160199189559329
20
-14.91225167618644
30
0
10
22.294648867512763
20
-14.935262489783323
30
0
10
22.429761907142666
20
-14.9566874518581
30
0
10
22.565501051551891
20
-14.976567946097951
30
0
10
22.70184037004789
20
-14.994929615753453
30
0
10
22.838760971648657
20
-15.011788244597149
30
0
10
22.976248339946746
20
-15.027153407028129
30
0
10
23.114289234927838
20
-15.041032748685947
30
0
10
23.252868201091076
20
-15.05343681161956
30
0
10
23.391966239565441
20
-15.064380955372322
30
0
10
23.531562715984428
20
-15.07388290298919
30
0
10
23.671636489916633
20
-15.081961387372944
30
0
10
23.812167230917986
20
-15.088634520047501
30
0
10
23.953136886591714
20
-15.09391809559774
30
0
10
24.094530203557515
20
-15.097824825290694
30
0
10
24.236333554309127
20
-15.100365273154789
30
0
10
24.378534109948795
20
-15.101548460727141
30
0
10
24.521118934477212
20
-15.101382617093995
30
0
10
24.664073916617522
20
-15.099876020572632
30
0
10
24.807383329299135
20
-15.097037541988481
30
0
10
24.951031064915878
20
-15.092876282478731
30
0
10
25.095001547029057
20
-15.087401443024305
30
0
10
25.239280725132851
20
-15.080622146084144
30
0
10
25.383857098845244
20
-15.072547364661911
30
0
10
25.5287225000469
20
-15.063185772852519
30
0
10
25.673871456439109
20
-15.052545081297794
30
0
10
25.79021487703951
20
-15.043014197623489
30
0
10
25.877597896675326
20
-15.035295074114508
30
0
10
25.935908955888898
20
-15.029895435501821
30
0
10
25.965078413682996
20
-15.027132227118171
30
0
0
ARC
5
157
100
AcDbEntity
8
0
100
AcDbCircle
10
6.6613381477509392e-15
20
-3.3306690738754696e-13
30
0
40
29.999999999999819
210
0
220
0
230
1
100
AcDbArc
50
329.94014681654971
51
334.67523779883589
0
SPLINE
5
158
100
AcDbEntity
8
0
100
AcDbSpline
70
4
71
5
72
56
73
50
74
0
42
0.000000001
43
0.0000000001
44
0.0000000001
40
-1
40
-1
40
-1
40
-1
40
-1
40
-1
40
-0.97777777777777819
40
-0.95555555555555594
40
-0.93333333333333368
40
-0.91111111111111143
40
-0.88888888888888917
40
-0.86666666666666692
40
-0.84444444444444466
40
-0.82222222222222241
40
-0.80000000000000016
40
-0.7777777777777779
40
-0.75555555555555565
40
-0.73333333333333339
40
-0.71111111111111114
40
-0.68888888888888888
40
-0.66666666666666663
40
-0.64444444444444438
40
-0.62222222222222212
40
-0.59999999999999987
40
-0.57777777777777761
40
-0.55555555555555536
40
-0.5333333333333331
40
-0.51111111111111085
40
-0.48888888888888865
40
-0.46666666666666645
40
-0.44444444444444425
40
-0.42222222222222205
40
-0.39999999999999986
40
-0.37777777777777766
40
-0.35555555555555546
40
-0.33333333333333326
40
-0.31111111111111106
40
-0.28888888888888886
40
-0.26666666666666666
40
-0.24444444444444446
40
-0.22222222222222224
40
-0.20000000000000001
40
-0.17777777777777778
40
-0.15555555555555556
40
-0.13333333333333333
40
-0.11111111111111112
40
-0.088888888888888892
40
-0.066666666666666666
40
-0.044444444444444446
40
-0.022222222222222223
40
0
40
0
40
0
40
0
40
0
40
0
41
1
41
1
41
1
41
1
41
1
41
1
41
1
41
1
41
1
41
1
41
1
41
1
41
1
41
1
41
1
41
1
41
1
41
1
41
1
41
1
41
1
41
1
41
1
41
1
41
1
41
1
41
1
41
1
41
1
41
1
41
1
41
1
41
1
41
1
41
1
41
1
41
1
41
1
41
1
41
1
41
1
41
1
41
1
41
1
41
1
41
1
41
1
41
1
41
1
41
1
10
27.116933066492273
20
-12.832456548431324
30
0
10
27.102637001756037
20
-12.80688087401929
30
0
10
27.073956360132151
20
-12.755824468742386
30
0
10
27.030669861320863
20
-12.679524691487924
30
0
10
26.972423029055324
20
-12.578361774410343
30
0
10
26.898726141375583
20
-12.452861923395172
30
0
10
26.824137652950068
20
-12.328322045199799
30
0
10
26.748654326664933
20
-12.204751023581563
30
0
10
26.672273663900675
20
-12.082160508218431
30
0
10
26.594994812981639
20
-11.960565060986291
30
0
10
26.516818247868326
20
-11.839981427372063
30
0
10
26.437745244727601
20
-11.720427653286391
30
0
10
26.357777463633603
20
-11.601922165064455
30
0
10
26.276916538034513
20
-11.484482945034816
30
0
10
26.195163671127673
20
-11.368126309170869
30
0
10
26.112519438993033
20
-11.252867578245125
30
0
10
26.028983704695673
20
-11.13872243505066
30
0
10
25.944555515516512
20
-11.025708095857391
30
0
10
25.859233075195498
20
-10.913844334773897
30
0
10
25.773013639974309
20
-10.803154980978311
30
0
10
25.685893853369535
20
-10.693667054616316
30
0
10
25.597870307638257
20
-10.585408595423555
30
0
10
25.508940138656591
20
-10.478406652987786
30
0
10
25.419101498357023
20
-10.372685588288437
30
0
10
25.328354490528522
20
-10.268264109519738
30
0
10
25.236700344118461
20
-10.165157456218164
30
0
10
25.144139425810184
20
-10.063383014031439
30
0
10
25.050669477114447
20
-9.9629652961377211
30
0
10
24.95628412436205
20
-9.8639402101052518
30
0
10
24.860970473775993
20
-9.7663619263730368
30
0
10
24.76471070656121
20
-9.6702985342218177
30
0
10
24.667486344773192
20
-9.5758202002410737
30
0
10
24.569282144353764
20
-9.4829884474594479
30
0
10
24.470089351402077
20
-9.3918471794424185
30
0
10
24.369911383024338
20
-9.3024071208857446
30
0
10
24.26875873786809
20
-9.2146597191264661
30
0
10
24.166637745391554
20
-9.1286079020111082
30
0
10
24.063540623373076
20
-9.044293317717031
30
0
10
23.95943633296319
20
-8.9618213597310099
30
0
10
23.854257679325723
20
-8.8813966437759433
30
0
10
23.74790912256104
20
-8.8033010805060492
30
0
10
23.640282916856862
20
-8.7278488851624996
30
0
10
23.531272930331181
20
-8.6553480385657231
30
0
10
23.420788617367375
20
-8.5860613549971294
30
0
10
23.308771270821708
20
-8.5201612350789571
30
0
10
23.195189387395608
20
-8.4577424769477716
30
0
10
23.10306182872197
20
-8.4106256824757679
30
0
10
23.033255486144725
20
-8.3768768726756733
30
0
10
22.986402319392461
20
-8.3550832368085572
30
0
10
22.962896834984761
20
-8.3443628109078176
30
0
0
LINE
5
159
100
AcDbEntity
8
0
100
AcDbLine
10
22.962896834984761
20
-8.3443628109078176
30
0
11
19.737257402785133
21
-7.1722151540652739
31
0
0
ARC
5
160
100
AcDbEntity
8
0
100
AcDbCircle
10
20.506811508245303
20
-5.0544750781518761
30
0
40
2.2532280289309963
210
0
220
-0
230
1
100
AcDbArc
50
82.278056880767579
51
250.02963542692476
0
LINE
5
161
100
AcDbEntity
8
0
100
AcDbLine
10
20.809568074142113
20
-2.8216797422183229
30
0
11
24.210454123159415
21
-3.2828239253130671
31
0
0
SPLINE
5
162
100
AcDbEntity
8
0
100
AcDbSpline
70
4
71
5
72
56
73
50
74
0
42
0.000000001
43
0.0000000001
44
0.0000000001
40
0
40
0
40
0
40
0
40
0
40
0
40
0.022222222222222223
40
0.044444444444444446
40
0.066666666666666666
40
0.088888888888888892
40
0.11111111111111112
40
0.13333333333333333
40
0.15555555555555556
40
0.17777777777777778
40
0.20000000000000001
40
0.22222222222222224
40
0.24444444444444446
40
0.26666666666666666
40
0.28888888888888886
40
0.31111111111111106
40
0.33333333333333326
40
0.35555555555555546
40
0.37777777777777766
40
0.39999999999999986
40
0.42222222222222205
40
0.44444444444444425
40
0.46666666666666645
40
0.48888888888888865
40
0.51111111111111085
40
0.5333333333333331
40
0.55555555555555536
40
0.57777777777777761
40
0.59999999999999987
40
0.62222222222222212
40
0.64444444444444438
40
0.66666666666666663
40
0.68888888888888888
40
0.71111111111111114
40
0.73333333333333339
40
0.75555555555555565
40
0.7777777777777779
40
0.80000000000000016
40
0.82222222222222241
40
0.84444444444444466
40
0.86666666666666692
40
0.88888888888888917
40
0.91111111111111143
40
0.93333333333333368
40
0.95555555555555594
40
0.97777777777777819
40
1
40
1
40
1
40
1
40
1
40
1
41
1
41
1
41
1
41
1
41
1
41
1
41
1
41
1
41
1
41
1
41
1
41
1
41
1
41
1
41
1
41
1
41
1
41
1
41
1
41
1
41
1
41
1
41
1
41
1
41
1
41
1
41
1
41
1
41
1
41
1
41
1
41
1
41
1
41
1
41
1
41
1
41
1
41
1
41
1
41
1
41
1
41
1
41
1
41
1
41
1
41
1
41
1
41
1
41
1
41
1
10
24.210454123159415
20
-3.2828239253130671
30
0
10
24.236249226294362
20
-3.2842550028756783
30
0
10
24.287863652706623
20
-3.2867314489490091
30
0
10
24.365357953313456
20
-3.2892889869035242
30
0
10
24.468829121453311
20
-3.2903829486280607
30
0
10
24.59840832781175
20
-3.2878980162799651
30
0
10
24.728220075054736
20
-3.2816034146186048
30
0
10
24.858248203077082
20
-3.2715977235376599
30
0
10
24.988464575908932
20
-3.2580608787767225
30
0
10
25.118827231825609
20
-3.241267669470997
30
0
10
25.249287020117748
20
-3.2215401210386507
30
0
10
25.379793321860493
20
-3.1992065292341376
30
0
10
25.510299723020204
20
-3.1745609131503167
30
0
10
25.640770632001662
20
-3.1478156780094899
30
0
10
25.771184553545684
20
-3.1190785695822121
30
0
10
25.901529023594211
20
-3.0883900820767725
30
0
10
26.031797077052214
20
-3.0557498665265532
30
0
10
26.161983392449628
20
-3.021145470959743
30
0
10
26.292079960074517
20
-2.9845848036143234
30
0
10
26.42207412811695
20
-2.9461108073074631
30
0
10
26.551950803343054
20
-2.9057850422426812
30
0
10
26.681693739120107
20
-2.8636782249784449
30
0
10
26.811287070541034
20
-2.8198589263856628
30
0
10
26.940717040220136
20
-2.77438110404294
30
0
10
27.069972604682192
20
-2.7272795145147111
30
0
10
27.199044371878209
20
-2.6785769127145627
30
0
10
27.327923937612844
20
-2.6282885224627761
30
0
10
27.45660313154152
20
-2.5764272665784165
30
0
10
27.585073167632284
20
-2.5230096621116402
30
0
10
27.713324361156037
20
-2.4680581384782658
30
0
10
27.841346677598295
20
-2.4115979779234973
30
0
10
27.96913010365067
20
-2.353655592057323
30
0
10
28.096665054443825
20
-2.2942564658661828
30
0
10
28.223942885483822
20
-2.2334229741275236
30
0
10
28.350955997793509
20
-2.1711734607086091
30
0
10
28.477697234164157
20
-2.1075236126100054
30
0
10
28.60415942768828
20
-2.0424873798921683
30
0
10
28.730334948354415
20
-1.9760780607077333
30
0
10
28.856215148373302
20
-1.9083095429799575
30
0
10
28.981790224593652
20
-1.8391969901688059
30
0
10
29.107050143947873
20
-1.7687559465088731
30
0
10
29.231985390093488
20
-1.6970017977961616
30
0
10
29.356587761343526
20
-1.6239491511625421
30
0
10
29.480851244578158
20
-1.5496112963021842
30
0
10
29.604772638339796
20
-1.473999709659024
30
0
10
29.728350680462498
20
-1.3971237617713457
30
0
10
29.826938440784726
20
-1.3346170999242912
30
0
10
29.900725006498536
20
-1.2871732414325883
30
0
10
29.949847548057441
20
-1.2552935984836666
30
0
10
29.974391693261193
20
-1.2392911760173595
30
0
0
ARC
5
163
100
AcDbEntity
8
0
100
AcDbCircle
10
6.6613381477509392e-15
20
-3.3306690738754696e-13
30
0
40
29.999999999999979
210
0
220
0
230
1
100
AcDbArc
50
-2.3675454911424678
51
2.3675454911435434
0
SPLINE
5
164
100
AcDbEntity
8
0
100
AcDbSpline
70
4
71
5
72
56
73
50
74
0
42
0.000000001
43
0.0000000001
44
0.0000000001
40
-1
40
-1
40
-1
40
-1
40
-1
40
-1
40
-0.97777777777777819
40
-0.95555555555555594
40
-0.93333333333333368
40
-0.91111111111111143
40
-0.88888888888888917
40
-0.86666666666666692
40
-0.84444444444444466
40
-0.82222222222222241
40
-0.80000000000000016
40
-0.7777777777777779
40
-0.75555555555555565
40
-0.73333333333333339
40
-0.71111111111111114
40
-0.68888888888888888
40
-0.66666666666666663
40
-0.64444444444444438
40
-0.62222222222222212
40
-0.59999999999999987
40
-0.57777777777777761
40
-0.55555555555555536
40
-0.5333333333333331
40
-0.51111111111111085
40
-0.48888888888888865
40
-0.46666666666666645
40
-0.44444444444444425
40
-0.42222222222222205
40
-0.39999999999999986
40
-0.37777777777777766
40
-0.35555555555555546
40
-0.33333333333333326
40
-0.31111111111111106
40
-0.28888888888888886
40
-0.26666666666666666
40
-0.24444444444444446
40
-0.22222222222222224
40
-0.20000000000000001
40
-0.17777777777777778
40
-0.15555555555555556
40
-0.13333333333333333
40
-0.11111111111111112
40
-0.088888888888888892
40
-0.066666666666666666
40
-0.044444444444444446
40
-0.022222222222222223
40
0
40
0
40
0
40
0
40
0
40
0
41
1
41
1
41
1
41
1
41
1
41
1
41
1
41
1
41
1
41
1
41
1
41
1
41
1
41
1
41
1
41
1
41
1
41
1
41
1
41
1
41
1
41
1
41
1
41
1
41
1
41
1
41
1
41
1
41
1
41
1
41
1
41
1
41
1
41
1
41
1
41
1
41
1
41
1
41
1
41
1
41
1
41
1
41
1
41
1
41
1
41
1
41
1
41
1
41
1
41
1
10
29.974391693261193
20
1.2392911760173613
30
0
10
29.949847548057441
20
1.2552935984836693
30
0
10
29.900725006498536
20
1.2871732414325949
30
0
10
29.826938440784726
20
1.3346170999243046
30
0
10
29.728350680462498
20
1.3971237617713639
30
0
10
29.604772638339796
20
1.4739997096590436
30
0
10
29.480851244578158
20
1.549611296302198
30
0
10
29.356587761343526
20
1.6239491511625452
30
0
10
29.231985390093488
20
1.6970017977961533
30
0
10
29.107050143947873
20
1.7687559465088565
30
0
10
28.981790224593652
20
1.8391969901687872
30
0
10
28.856215148373302
20
1.9083095429799435
30
0
10
28.730334948354415
20
1.97607806070773
30
0
10
28.60415942768828
20
2.0424873798921799
30
0
10
28.477697234164157
20
2.1075236126100294
30
0
10
28.350955997793509
20
2.1711734607086401
30
0
10
28.223942885483822
20
2.2334229741275502
30
0
10
28.096665054443825
20
2.2942564658661961
30
0
10
27.96913010365067
20
2.3536555920573083
30
0
10
27.841346677598295
20
2.4115979779234609
30
0
10
27.713324361156037
20
2.468058138478217
30
0
10
27.585073167632284
20
2.5230096621115998
30
0
10
27.45660313154152
20
2.5764272665784023
30
0
10
27.327923937612844
20
2.6282885224627965
30
0
10
27.199044371878209
20
2.6785769127146182
30
0
10
27.069972604682192
20
2.7272795145147866
30
0
10
26.940717040220136
20
2.7743811040430097
30
0
10
26.811287070541034
20
2.8198589263856939
30
0
10
26.681693739120107
20
2.8636782249784103
30
0
10
26.551950803343054
20
2.9057850422425751
30
0
10
26.42207412811695
20
2.9461108073073081
30
0
10
26.292079960074517
20
2.9845848036141751
30
0
10
26.161983392449628
20
3.0211454709596808
30
0
10
26.031797077052214
20
3.055749866526642
30
0
10
25.901529023594211
20
3.0883900820770229
30
0
10
25.771184553545684
20
3.119078569582558
30
0
10
25.640770632001662
20
3.1478156780098039
30
0
10
25.510299723020204
20
3.1745609131504313
30
0
10
25.379793321860493
20
3.199206529233924
30
0
10
25.249287020117748
20
3.221540121038089
30
0
10
25.118827231825609
20
3.2412676694702385
30
0
10
24.988464575908932
20
3.2580608787760661
30
0
10
24.858248203077082
20
3.2715977235374765
30
0
10
24.728220075054736
20
3.2816034146191999
30
0
10
24.59840832781175
20
3.2878980162813858
30
0
10
24.468829121453311
20
3.2903829486299512
30
0
10
24.365357953313456
20
3.2892889869051913
30
0
10
24.287863652706623
20
3.2867314489500359
30
0
10
24.236249226294362
20
3.2842550028760575
30
0
10
24.210454123159415
20
3.282823925313068
30
0
0
LINE
5
165
100
AcDbEntity
8
0
100
AcDbLine
10
24.210454123159415
20
3.282823925313068
30
0
11
20.809568074142113
21
2.8216797422183113
31
0
0
ARC
5
166
100
AcDbEntity
8
0
100
AcDbCircle
10
20.50681150824531
20
5.0544750781518477
30
0
40
2.2532280289309963
210
0
220
0
230
1
100
AcDbArc
50
109.97036457307519
51
277.72194311923232
0
LINE
5
167
100
AcDbEntity
8
0
100
AcDbLine
10
19.737257402785144
20
7.172215154065241
30
0
11
22.962896834984772
21
8.3443628109078016
31
0
0
SPLINE
5
168
100
AcDbEntity
8
0
100
AcDbSpline
70
4
71
5
72
56
73
50
74
0
42
0.000000001
43
0.0000000001
44
0.0000000001
40
0
40
0
40
0
40
0
40
0
40
0
40
0.022222222222222223
40
0.044444444444444446
40
0.066666666666666666
40
0.088888888888888892
40
0.11111111111111112
40
0.13333333333333333
40
0.15555555555555556
40
0.17777777777777778
40
0.20000000000000001
40
0.22222222222222224
40
0.24444444444444446
40
0.26666666666666666
40
0.28888888888888886
40
0.31111111111111106
40
0.33333333333333326
40
0.35555555555555546
40
0.37777777777777766
40
0.39999999999999986
40
0.42222222222222205
40
0.44444444444444425
40
0.46666666666666645
40
0.48888888888888865
40
0.51111111111111085
40
0.5333333333333331
40
0.55555555555555536
40
0.57777777777777761
40
0.59999999999999987
40
0.62222222222222212
40
0.64444444444444438
40
0.66666666666666663
40
0.68888888888888888
40
0.71111111111111114
40
0.73333333333333339
40
0.75555555555555565
40
0.7777777777777779
40
0.80000000000000016
40
0.82222222222222241
40
0.84444444444444466
40
0.86666666666666692
40
0.88888888888888917
40
0.91111111111111143
40
0.93333333333333368
40
0.95555555555555594
40
0.97777777777777819
40
1
40
1
40
1
40
1
40
1
40
1
41
1
41
1
41
1
41
1
41
1
41
1
41
1
41
1
41
1
41
1
41
1
41
1
41
1
41
1
41
1
41
1
41
1
41
1
41
1
41
1
41
1
41
1
41
1
41
1
41
1
41
1
41
1
41
1
41
1
41
1
41
1
41
1
41
1
41
1
41
1
41
1
41
1
41
1
41
1
41
1
41
1
41
1
41
1
41
1
41
1
41
1
41
1
41
1
41
1
41
1
10
22.962896834984772
20
8.3443628109078016
30
0
10
22.98640231939229
20
8.3550832368088752
30
0
10
23.033255486144256
20
8.376876872676565
30
0
10
23.103061828721202
20
8.4106256824772245
30
0
10
23.195189387394734
20
8.4577424769494272
30
0
10
23.308771270821047
20
8.5201612350801952
30
0
10
23.420788617367101
20
8.5860613549976392
30
0
10
23.531272930331273
20
8.6553480385655455
30
0
10
23.640282916857171
20
8.7278488851618992
30
0
10
23.747909122561399
20
8.80330108050536
30
0
10
23.85425767932599
20
8.8813966437754281
30
0
10
23.959436332963296
20
8.9618213597308021
30
0
10
24.063540623373029
20
9.0442933177171128
30
0
10
24.166637745391412
20
9.1286079020113675
30
0
10
24.268758737867941
20
9.2146597191267574
30
0
10
24.369911383024228
20
9.3024071208859471
30
0
10
24.470089351402041
20
9.3918471794424789
30
0
10
24.569282144353799
20
9.4829884474593733
30
0
10
24.667486344773263
20
9.5758202002409227
30
0
10
24.764710706561285
20
9.6702985342216632
30
0
10
24.86097047377605
20
9.7663619263729231
30
0
10
24.956284124362075
20
9.8639402101052003
30
0
10
25.05066947711444
20
9.96296529613773
30
0
10
25.14413942581016
20
10.063383014031482
30
0
10
25.236700344118432
20
10.165157456218212
30
0
10
25.328354490528501
20
10.26826410951977
30
0
10
25.419101498357016
20
10.372685588288437
30
0
10
25.508940138656605
20
10.478406652987754
30
0
10
25.597870307638285
20
10.585408595423498
30
0
10
25.685893853369567
20
10.693667054616252
30
0
10
25.773013639974334
20
10.803154980978258
30
0
10
25.859233075195508
20
10.913844334773867
30
0
10
25.944555515516512
20
11.025708095857386
30
0
10
26.028983704695662
20
11.138722435050665
30
0
10
26.112519438993026
20
11.252867578245134
30
0
10
26.195163671127666
20
11.368126309170869
30
0
10
26.276916538034513
20
11.484482945034806
30
0
10
26.357777463633614
20
11.601922165064432
30
0
10
26.437745244727612
20
11.720427653286357
30
0
10
26.516818247868343
20
11.839981427372027
30
0
10
26.594994812981657
20
11.960565060986257
30
0
10
26.67227366390069
20
12.082160508218402
30
0
10
26.748654326664941
20
12.204751023581546
30
0
10
26.824137652950068
20
12.328322045199791
30
0
10
26.898726141375583
20
12.452861923395171
30
0
10
26.972423029055328
20
12.578361774410338
30
0
10
27.030669861320863
20
12.679524691487918
30
0
10
27.073956360132154
20
12.75582446874237
30
0
10
27.10263700175604
20
12.806880874019273
30
0
10
27.116933066492287
20
12.832456548431303
30
0
0
ARC
5
169
100
AcDbEntity
8
0
100
AcDbCircle
10
6.6613381477509392e-15
20
-3.3306690738754696e-13
30
0
40
30.000000000000142
210
0
220
-0
230
1
100
AcDbArc
50
25.324762201165154
51
30.05985318345132
0
SPLINE
5
170
100
AcDbEntity
8
0
100
AcDbSpline
70
4
71
5
72
56
73
50
74
0
42
0.000000001
43
0.0000000001
44
0.0000000001
40
-1
40
-1
40
-1
40
-1
40
-1
40
-1
40
-0.97777777777777819
40
-0.95555555555555594
40
-0.93333333333333368
40
-0.91111111111111143
40
-0.88888888888888917
40
-0.86666666666666692
40
-0.84444444444444466
40
-0.82222222222222241
40
-0.80000000000000016
40
-0.7777777777777779
40
-0.75555555555555565
40
-0.73333333333333339
40
-0.71111111111111114
40
-0.68888888888888888
40
-0.66666666666666663
40
-0.64444444444444438
40
-0.62222222222222212
40
-0.59999999999999987
40
-0.57777777777777761
40
-0.55555555555555536
40
-0.5333333333333331
40
-0.51111111111111085
40
-0.48888888888888865
40
-0.46666666666666645
40
-0.44444444444444425
40
-0.42222222222222205
40
-0.39999999999999986
40
-0.37777777777777766
40
-0.35555555555555546
40
-0.33333333333333326
40
-0.31111111111111106
40
-0.28888888888888886
40
-0.26666666666666666
40
-0.24444444444444446
40
-0.22222222222222224
40
-0.20000000000000001
40
-0.17777777777777778
40
-0.15555555555555556
40
-0.13333333333333333
40
-0.11111111111111112
40
-0.088888888888888892
40
-0.066666666666666666
40
-0.044444444444444446
40
-0.022222222222222223
40
0
40
0
40
0
40
0
40
0
40
0
41
1
41
1
41
1
41
1
41
1
41
1
41
1
41
1
41
1
41
1
41
1
41
1
41
1
41
1
41
1
41
1
41
1
41
1
41
1
41
1
41
1
41
1
41
1
41
1
41
1
41
1
41
1
41
1
41
1
41
1
41
1
41
1
41
1
41
1
41
1
41
1
41
1
41
1
41
1
41
1
41
1
41
1
41
1
41
1
41
1
41
1
41
1
41
1
41
1
41
1
10
25.965078413683006
20
15.027132227118154
30
0
10
25.935908955888909
20
15.029895435501803
30
0
10
25.877597896675329
20
15.035295074114494
30
0
10
25.790214877039514
20
15.043014197623481
30
0
10
25.673871456439112
20
15.05254508129779
30
0
10
25.5287225000469
20
15.063185772852517
30
0
10
25.383857098845247
20
15.072547364661904
30
0
10
25.239280725132858
20
15.080622146084126
30
0
10
25.095001547029071
20
15.087401443024277
30
0
10
24.951031064915902
20
15.092876282478699
30
0
10
24.807383329299153
20
15.097037541988445
30
0
10
24.664073916617539
20
15.099876020572598
30
0
10
24.521118934477222
20
15.101382617093972
30
0
10
24.378534109948799
20
15.101548460727132
30
0
10
24.236333554309127
20
15.100365273154793
30
0
10
24.094530203557511
20
15.097824825290703
30
0
10
23.953136886591714
20
15.093918095597747
30
0
10
23.812167230917993
20
15.088634520047497
30
0
10
23.671636489916651
20
15.081961387372914
30
0
10
23.531562715984464
20
15.073882902989141
30
0
10
23.39196623956547
20
15.064380955372258
30
0
10
23.252868201091104
20
15.053436811619505
30
0
10
23.114289234927856
20
15.041032748685916
30
0
10
22.97624833994675
20
15.027153407028129
30
0
10
22.838760971648643
20
15.011788244597181
30
0
10
22.701840370047861
20
14.994929615753502
30
0
10
22.56550105155187
20
14.976567946097997
30
0
10
22.429761907142662
20
14.956687451858111
30
0
10
22.294648867512787
20
14.935262489783277
30
0
10
22.160199189559386
20
14.912251676186328
30
0
10
22.026458787432656
20
14.887601667366399
30
0
10
21.893474910434776
20
14.861257397107401
30
0
10
21.761289531413681
20
14.833171370731737
30
0
10
21.62993380951292
20
14.803311443852413
30
0
10
21.49941851212165
20
14.771674336371149
30
0
10
21.369742564447805
20
14.738273546971792
30
0
10
21.240911971603914
20
14.703112621489939
30
0
10
21.11295658856222
20
14.666161496421424
30
0
10
20.985945520385748
20
14.62733475696953
30
0
10
20.860008991495555
20
14.58646086788942
30
0
10
20.735324736962802
20
14.543301057880749
30
0
10
20.612090144263824
20
14.497588159277001
30
0
10
20.490498386864168
20
14.449059874204872
30
0
10
20.370714320904387
20
14.397492389554552
30
0
10
20.252846479856309
20
14.342739455578116
30
0
10
20.136954985143536
20
14.284721294089685
30
0
10
20.04584420519555
20
14.235667189615636
30
0
10
19.978414956920588
20
14.197389205029085
30
0
10
19.933863513918112
20
14.17121000096515
30
0
10
19.911688139319441
20
14.157955262561758
30
0
0
LINE
5
171
100
AcDbEntity
8
0
100
AcDbLine
10
19.911688139319441
20
14.157955262561758
30
0
11
17.114657482194463
21
12.169161814486857
31
0
0
ARC
5
172
100
AcDbEntity
8
0
100
AcDbCircle
10
15.808948125575494
20
14.005505907078957
30
0
40
2.2532280289309989
210
0
220
0
230
1
100
AcDbArc
50
137.66267226538304
51
305.41425081154006
0
LINE
5
173
100
AcDbEntity
8
0
100
AcDbLine
10
14.143378920186935
20
15.523041993115001
30
0
11
16.454816614821159
21
18.059956587622803
31
0
0
SPLINE
5
174
100
AcDbEntity
8
0
100
AcDbSpline
70
4
71
5
72
56
73
50
74
0
42
0.000000001
43
0.0000000001
44
0.0000000001
40
0
40
0
40
0
40
0
40
0
40
0
40
0.022222222222222223
40
0.044444444444444446
40
0.066666666666666666
40
0.088888888888888892
40
0.11111111111111112
40
0.13333333333333333
40
0.15555555555555556
40
0.17777777777777778
40
0.20000000000000001
40
0.22222222222222224
40
0.24444444444444446
40
0.26666666666666666
40
0.28888888888888886
40
0.31111111111111106
40
0.33333333333333326
40
0.35555555555555546
40
0.37777777777777766
40
0.39999999999999986
40
0.42222222222222205
40
0.44444444444444425
40
0.46666666666666645
40
0.48888888888888865
40
0.51111111111111085
40
0.5333333333333331
40
0.55555555555555536
40
0.57777777777777761
40
0.59999999999999987
40
0.62222222222222212
40
0.64444444444444438
40
0.66666666666666663
40
0.68888888888888888
40
0.71111111111111114
40
0.73333333333333339
40
0.75555555555555565
40
0.7777777777777779
40
0.80000000000000016
40
0.82222222222222241
40
0.84444444444444466
40
0.86666666666666692
40
0.88888888888888917
40
0.91111111111111143
40
0.93333333333333368
40
0.95555555555555594
40
0.97777777777777819
40
1
40
1
40
1
40
1
40
1
40
1
41
1
41
1
41
1
41
1
41
1
41
1
41
1
41
1
41
1
41
1
41
1
41
1
41
1
41
1
41
1
41
1
41
1
41
1
41
1
41
1
41
1
41
1
41
1
41
1
41
1
41
1
41
1
41
1
41
1
41
1
41
1
41
1
41
1
41
1
41
1
41
1
41
1
41
1
41
1
41
1
41
1
41
1
41
1
41
1
41
1
41
1
41
1
41
1
41
1
41
1
10
16.454816614821159
20
18.059956587622803
30
0
10
16.470647657295288
20
18.080372596608768
30
0
10
16.502006068525951
20
18.121443655081972
30
0
10
16.548132661246257
20
18.183767367029724
30
0
10
16.607811297018799
20
18.268301027904013
30
0
10
16.679375616830107
20
18.376354226557275
30
0
10
16.747936738540897
20
18.486762941440254
30
0
10
16.813566611827103
20
18.599457873284763
30
0
10
16.876397337846718
20
18.714313651491231
30
0
10
16.936631226648039
20
18.831139644216762
30
0
10
16.994505379169361
20
18.949712469932944
30
0
10
17.050261222693099
20
19.069803976836702
30
0
10
17.104114364012691
20
19.191208945045677
30
0
10
17.156219390868593
20
19.313777423332436
30
0
10
17.206652765592629
20
19.437430514871615
30
0
10
17.255440733872899
20
19.562134958612354
30
0
10
17.302579051890557
20
19.687885220629443
30
0
10
17.348054448934164
20
19.814683994965101
30
0
10
17.391868883321003
20
19.942520197364427
30
0
10
17.434050509249563
20
20.071359021291414
30
0
10
17.474641415840026
20
20.201153075076668
30
0
10
17.513690572539776
20
20.331848816419722
30
0
10
17.551245399774814
20
20.463394236063603
30
0
10
17.587342488675958
20
20.595747360503616
30
0
10
17.622004169926011
20
20.728879357158853
30
0
10
17.655243835159791
20
20.862769570260301
30
0
10
17.687069239208675
20
20.997402435175189
30
0
10
17.717486376059529
20
21.132763886843797
30
0
10
17.746503847943124
20
21.268837311749675
30
0
10
17.774134612353624
20
21.405601998156616
30
0
10
17.800393775916991
20
21.543035325868871
30
0
10
17.825297386754627
20
21.681114050590658
30
0
10
17.848860973772819
20
21.819815807006787
30
0
10
17.871098040420154
20
21.959120770515938
30
0
10
17.892019366692399
20
22.099012266778203
30
0
10
17.911633796979949
20
22.239475494294272
30
0
10
17.929948740690012
20
22.380496630277349
30
0
10
17.946970807647119
20
22.522061841139408
30
0
10
17.962706514883827
20
22.664156120649789
30
0
10
17.977162772858385
20
22.806762787146116
30
0
10
17.99034667479307
20
22.94986475344394
30
0
10
18.002265477051079
20
23.093445447618631
30
0
10
18.012926541977031
20
23.237489822017466
30
0
10
18.022337390933426
20
23.381985378533106
30
0
10
18.030505650213261
20
23.526922963054375
30
0
10
18.037438314626385
20
23.672296213766618
30
0
10
18.042000571513629
20
23.78894018091756
30
0
10
18.044870588203594
20
23.876616517477768
30
0
10
18.04653894053563
20
23.935153277930095
30
0
10
18.047311868659545
20
23.964443125500342
30
0
0
ARC
5
175
100
AcDbEntity
8
0
100
AcDbCircle
10
6.6613381477509392e-15
20
-3.3306690738754696e-13
30
0
40
30.000000000000263
210
0
220
-0
230
1
100
AcDbArc
50
53.017069893472673
51
57.752160875758875
0
SPLINE
5
176
100
AcDbEntity
8
0
100
AcDbSpline
70
4
71
5
72
56
73
50
74
0
42
0.000000001
43
0.0000000001
44
0.0000000001
40
-1
40
-1
40
-1
40
-1
40
-1
40
-1
40
-0.97777777777777819
40
-0.95555555555555594
40
-0.93333333333333368
40
-0.91111111111111143
40
-0.88888888888888917
40
-0.86666666666666692
40
-0.84444444444444466
40
-0.82222222222222241
40
-0.80000000000000016
40
-0.7777777777777779
40
-0.75555555555555565
40
-0.73333333333333339
40
-0.71111111111111114
40
-0.68888888888888888
40
-0.66666666666666663
40
-0.64444444444444438
40
-0.62222222222222212
40
-0.59999999999999987
40
-0.57777777777777761
40
-0.55555555555555536
40
-0.5333333333333331
40
-0.51111111111111085
40
-0.48888888888888865
40
-0.46666666666666645
40
-0.44444444444444425
40
-0.42222222222222205
40
-0.39999999999999986
40
-0.37777777777777766
40
-0.35555555555555546
40
-0.33333333333333326
40
-0.31111111111111106
40
-0.28888888888888886
40
-0.26666666666666666
40
-0.24444444444444446
40
-0.22222222222222224
40
-0.20000000000000001
40
-0.17777777777777778
40
-0.15555555555555556
40
-0.13333333333333333
40
-0.11111111111111112
40
-0.088888888888888892
40
-0.066666666666666666
40
-0.044444444444444446
40
-0.022222222222222223
40
0
40
0
40
0
40
0
40
0
40
0
41
1
41
1
41
1
41
1
41
1
41
1
41
1
41
1
41
1
41
1
41
1
41
1
41
1
41
1
41
1
41
1
41
1
41
1
41
1
41
1
41
1
41
1
41
1
41
1
41
1
41
1
41
1
41
1
41
1
41
1
41
1
41
1
41
1
41
1
41
1
41
1
41
1
41
1
41
1
41
1
41
1
41
1
41
1
41
1
41
1
41
1
41
1
41
1
41
1
41
1
10
16.007478582646218
20
25.372438381561256
30
0
10
15.980366183512334
20
25.361329358121829
30
0
10
15.926224967585467
20
25.339012000264816
30
0
10
15.84526389074667
20
25.305238030620693
30
0
10
15.737817685437431
20
25.259609725532069
30
0
10
15.604349691450622
20
25.201577506552884
30
0
10
15.47172720040691
20
25.142544475664394
30
0
10
15.339958641100086
20
25.082506348536317
30
0
10
15.209055277093546
20
25.021459240553412
30
0
10
15.079031461432553
20
24.959400551009505
30
0
10
14.949903874640198
20
24.896328731963997
30
0
10
14.821690584877034
20
24.832242875084898
30
0
10
14.694410084229341
20
24.767142407293271
30
0
10
14.568080420804678
20
24.70102678259741
30
0
10
14.442717936644033
20
24.633895228748752
30
0
10
14.318337910253012
20
24.565746470911908
30
0
10
14.194955893573777
20
24.496578482798547
30
0
10
14.072588862512671
20
24.426388243443974
30
0
10
13.951256230487521
20
24.355171586179473
30
0
10
13.830981322211411
20
24.282922914961809
30
0
10
13.711790556243376
20
24.209635640861435
30
0
10
13.593711357119787
20
24.13530300116507
30
0
10
13.476770231974477
20
24.059918892164013
30
0
10
13.360991141407974
20
23.983478542873641
30
0
10
13.246392669721095
20
23.905979801302575
30
0
10
13.132990093470164
20
23.827422050514638
30
0
10
13.020800715740762
20
23.747803558911368
30
0
10
12.909848598751575
20
23.667119129733344
30
0
10
12.800168620003316
20
23.585358107603515
30
0
10
12.691813000798426
20
23.50250116323015
30
0
10
12.584847186151736
20
23.4185224004814
30
0
10
12.479338603789177
20
23.333395018489998
30
0
10
12.375346490699094
20
23.247096468562518
30
0
10
12.27291337517439
20
23.159612768633835
30
0
10
12.172050315602355
20
23.070946018176407
30
0
10
12.072750087150697
20
22.981107670200402
30
0
10
11.975016359250514
20
22.890103655102259
30
0
10
11.878889538373912
20
22.797921227268464
30
0
10
11.784470508250601
20
22.704516870376679
30
0
10
11.691954293282008
20
22.609799215816786
30
0
10
11.601609232613939
20
22.513639439708186
30
0
10
11.513734263182158
20
22.415892707364829
30
0
10
11.428622327495434
20
22.316416537739954
30
0
10
11.346523409555122
20
22.215089366635418
30
0
10
11.2676015766246
20
22.111832134349978
30
0
10
11.191947138352262
20
22.00660214062691
30
0
10
11.134069128278304
20
21.920825597572534
30
0
10
11.092152160504476
20
21.855596191323645
30
0
10
11.064869899600559
20
21.811711569427192
30
0
10
11.051394364616486
20
21.7896696710147
30
0
0
LINE
5
177
100
AcDbEntity
8
0
100
AcDbLine
10
11.051394364616486
20
21.7896696710147
30
0
11
9.4989851150576605
21
18.728835569354359
31
0
0
LWPOLYLINE
5
178
100
AcDbEntity
8
0
100
AcDbPolyline
90
4
70
1
43
0.0
10
-1.9999999999999984
20
4.5825756949558407
10
-1.9999999999999984
20
6.2499999999999982
42
-0.99999999999999989
10
2.0000000000000018
20
6.25
10
2.0000000000000022
20
4.5825756949558469
42
-4.7912878474782401
0
ENDSEC
0
SECTION
2
OBJECTS
0
DICTIONARY
5
C
100
AcDbDictionary
3
ACAD_GROUP
350
D
3
ACAD_MLINESTYLE
350
17
0
DICTIONARY
5
D
100
AcDbDictionary
0
DICTIONARY
5
1A
330
C
100
AcDbDictionary
0
DICTIONARY
5
17
100
AcDbDictionary
0
ENDSEC
0
EOF
