0
SECTION
2
HEADER
9
$INSUNITS
70
4
9
$ACADVER
1
AC1014
9
$HANDSEED
5
FFFF
0
ENDSEC
0
SECTION
2
TABLES
0
TABLE
2
VPORT
5
8
100
AcDbSymbolTable
0
ENDTAB
0
TABLE
2
LTYPE
5
5
100
AcDbSymbolTable
0
LTYPE
5
14
100
AcDbSymbolTableRecord
100
AcDbLinetypeTableRecord
2
BYBLOCK
70
0
0
LTYPE
5
15
100
AcDbSymbolTableRecord
100
AcDbLinetypeTableRecord
2
BYLAYER
70
0
0
LTYPE
5
16
100
AcDbSymbolTableRecord
100
AcDbLinetypeTableRecord
2
DASHED
70
0
3
Dashed __ __ __ __ __ __ __ __ __ __ __ __ __ _
72
65
73
2
40
0.75
49
0.5
74
0
49
-0.25
74
0
0
ENDTAB
0
TABLE
2
LAYER
5
2
100
AcDbSymbolTable
70
3
0
LAYER
5
50
100
AcDbSymbolTableRecord
100
AcDbLayerTableRecord
2
1
70
0
62
7
6
DASHED
0
LAYER
5
51
100
AcDbSymbolTableRecord
100
AcDbLayerTableRecord
2
0
70
0
62
7
6
CONTINUOUS
0
ENDTAB
0
TABLE
2
STYLE
5
3
100
AcDbSymbolTable
70
1
0
STYLE
5
11
100
AcDbSymbolTableRecord
100
AcDbTextStyleTableRecord
2
STANDARD
70
0
0
ENDTAB
0
TABLE
2
VIEW
5
6
100
AcDbSymbolTable
70
0
0
ENDTAB
0
TABLE
2
UCS
5
7
100
AcDbSymbolTable
70
0
0
ENDTAB
0
TABLE
2
APPID
5
9
100
AcDbSymbolTable
70
2
0
APPID
5
12
100
AcDbSymbolTableRecord
100
AcDbRegAppTableRecord
2
ACAD
70
0
0
ENDTAB
0
TABLE
2
DIMSTYLE
5
A
100
AcDbSymbolTable
70
1
0
ENDTAB
0
TABLE
2
BLOCK_RECORD
5
1
100
AcDbSymbolTable
70
1
0
BLOCK_RECORD
5
1F
100
AcDbSymbolTableRecord
100
AcDbBlockTableRecord
2
*MODEL_SPACE
0
BLOCK_RECORD
5
1B
100
AcDbSymbolTableRecord
100
AcDbBlockTableRecord
2
*PAPER_SPACE
0
ENDTAB
0
ENDSEC
0
SECTION
2
BLOCKS
0
BLOCK
5
20
100
AcDbEntity
100
AcDbBlockBegin
2
*MODEL_SPACE
0
ENDBLK
5
21
100
AcDbEntity
100
AcDbBlockEnd
0
BLOCK
5
1C
100
AcDbEntity
100
AcDbBlockBegin
2
*PAPER_SPACE
0
ENDBLK
5
1D
100
AcDbEntity
100
AcDbBlockEnd
0
ENDSEC
0
SECTION
2
ENTITIES
0
LWPOLYLINE
5
100
100
AcDbEntity
8
0
100
AcDbPolyline
90
8
70
1
43
0.0
10
11.124297730643493
20
-2.5000000000000022
10
21.534855467358028
20
-2.5000000000000044
42
-0.47592025247432768
10
23.492569600754209
20
-4.9090909090909109
42
-0.29808547038043015
10
4.9090909090909181
20
-23.492569600754216
42
-0.47592025247433051
10
2.4999999999999978
20
-21.534855467358032
10
2.5000000000000004
20
-11.124297730643493
42
-0.30561468458069951
10
3.7499999999999978
20
-9.270248108869577
42
0.20323135713027007
10
9.2702481088695752
20
-3.750000000000008
42
-0.30561468458070185
0
LWPOLYLINE
5
101
100
AcDbEntity
8
0
100
AcDbPolyline
90
8
70
1
43
0.0
10
-2.5000000000000009
20
-11.124297730643493
10
-2.5000000000000036
20
-21.534855467358028
42
-0.47592025247432768
10
-4.9090909090909154
20
-23.492569600754223
42
-0.29808547038043004
10
-23.492569600754216
20
-4.9090909090909189
42
-0.47592025247433045
10
-21.534855467358032
20
-2.4999999999999982
10
-11.124297730643493
20
-2.5000000000000018
42
-0.30561468458069951
10
-9.270248108869577
20
-3.7499999999999996
42
0.20323135713026991
10
-3.750000000000008
20
-9.270248108869577
42
-0.30561468458070101
0
LWPOLYLINE
5
102
100
AcDbEntity
8
0
100
AcDbPolyline
90
8
70
1
43
0.0
10
-11.124297730643493
20
2.5000000000000004
10
-21.534855467358028
20
2.5000000000000022
42
-0.47592025247432768
10
-23.492569600754216
20
4.9090909090909083
42
-0.29808547038043004
10
-4.9090909090909207
20
23.492569600754216
42
-0.4759202524743304
10
-2.5000000000000004
20
21.534855467358032
10
-2.5000000000000009
20
11.124297730643493
42
-0.30561468458069896
10
-3.75
20
9.270248108869577
42
0.20323135713026982
10
-9.270248108869577
20
3.7500000000000071
42
-0.30561468458070123
0
LWPOLYLINE
5
103
100
AcDbEntity
8
0
100
AcDbPolyline
90
8
70
1
43
0.0
10
2.5
20
11.124297730643493
10
2.5
20
21.534855467358028
42
-0.47592025247432768
10
4.9090909090909083
20
23.492569600754223
42
-0.29808547038043015
10
23.492569600754216
20
4.9090909090909216
42
-0.47592025247433034
10
21.534855467358032
20
2.5000000000000022
10
11.124297730643493
20
2.5000000000000027
42
-0.30561468458069951
10
9.270248108869577
20
3.7500000000000004
42
0.20323135713026996
10
3.7500000000000062
20
9.270248108869577
42
-0.30561468458070101
0
CIRCLE
5
104
100
AcDbEntity
8
0
100
AcDbCircle
10
4.4408920985006262e-15
20
-2.2204460492503131e-15
30
0
40
5
210
0
220
0
230
1
0
ARC
5
105
100
AcDbEntity
8
0
100
AcDbCircle
10
10.630981961008297
20
29.208382884499645
30
0
40
2.2687900261628147
210
0
220
0
230
1
100
AcDbArc
50
164.18583044393159
51
335.81416955606835
0
LINE
5
106
100
AcDbEntity
8
0
100
AcDbLine
10
8.4480642131525681
20
29.826669459570088
30
0
11
9.219000310867699
21
32.548530418581414
31
0
0
SPLINE
5
107
100
AcDbEntity
8
0
100
AcDbSpline
70
4
71
5
72
56
73
50
74
0
42
0.000000001
43
0.0000000001
44
0.0000000001
40
0
40
0
40
0
40
0
40
0
40
0
40
0.022222222222222223
40
0.044444444444444446
40
0.066666666666666666
40
0.088888888888888892
40
0.11111111111111112
40
0.13333333333333333
40
0.15555555555555556
40
0.17777777777777778
40
0.20000000000000001
40
0.22222222222222224
40
0.24444444444444446
40
0.26666666666666666
40
0.28888888888888886
40
0.31111111111111106
40
0.33333333333333326
40
0.35555555555555546
40
0.37777777777777766
40
0.39999999999999986
40
0.42222222222222205
40
0.44444444444444425
40
0.46666666666666645
40
0.48888888888888865
40
0.51111111111111085
40
0.5333333333333331
40
0.55555555555555536
40
0.57777777777777761
40
0.59999999999999987
40
0.62222222222222212
40
0.64444444444444438
40
0.66666666666666663
40
0.68888888888888888
40
0.71111111111111114
40
0.73333333333333339
40
0.75555555555555565
40
0.7777777777777779
40
0.80000000000000016
40
0.82222222222222241
40
0.84444444444444466
40
0.86666666666666692
40
0.88888888888888917
40
0.91111111111111143
40
0.93333333333333368
40
0.95555555555555594
40
0.97777777777777819
40
1
40
1
40
1
40
1
40
1
40
1
41
1
41
1
41
1
41
1
41
1
41
1
41
1
41
1
41
1
41
1
41
1
41
1
41
1
41
1
41
1
41
1
41
1
41
1
41
1
41
1
41
1
41
1
41
1
41
1
41
1
41
1
41
1
41
1
41
1
41
1
41
1
41
1
41
1
41
1
41
1
41
1
41
1
41
1
41
1
41
1
41
1
41
1
41
1
41
1
41
1
41
1
41
1
41
1
41
1
41
1
10
9.219000310867699
20
32.548530418581414
30
0
10
9.2247835433087566
20
32.576355730758323
30
0
10
9.2359819255912541
20
32.632085093759692
30
0
10
9.2516752481165625
20
32.715915355084682
30
0
10
9.2703894270367559
20
32.828161842829203
30
0
10
9.2901055545867361
20
32.969255038698243
30
0
10
9.3061849733771389
20
33.111120570566712
30
0
10
9.3187202089671377
20
33.253730262172645
30
0
10
9.3278799331775311
20
33.397033901324193
30
0
10
9.3339233233705361
20
33.540955218932432
30
0
10
9.3371557339568962
20
33.685404440083502
30
0
10
9.3378899205306052
20
33.830289274715156
30
0
10
9.33640753505858
20
33.975525838727258
30
0
10
9.3329153074986344
20
34.121051082550842
30
0
10
9.3275197654787139
20
34.266829993592296
30
0
10
9.3202620255430375
20
34.412845843864396
30
0
10
9.3111429610505603
20
34.559093166183899
30
0
10
9.3001504894686544
20
34.705570133075796
30
0
10
9.2872897546187758
20
34.852270145096476
30
0
10
9.2725997209582296
20
34.999177208857866
30
0
10
9.2561377520048342
20
35.146270237970491
30
0
10
9.2379705642042893
20
35.293525590627056
30
0
10
9.2181634490047131
20
35.440920092219542
30
0
10
9.1967686485889732
20
35.588434319699878
30
0
10
9.1738197677054778
20
35.736054162497851
30
0
10
9.149338605645811
20
35.883768837414529
30
0
10
9.1233394086084516
20
36.031569650652585
30
0
10
9.0958338749210785
20
36.179448558138915
30
0
10
9.0668366559692242
20
36.327396586039107
30
0
10
9.0363681300655525
20
36.475403068593742
30
0
10
9.0044515052326837
20
36.623456562903996
30
0
10
8.971111185580865
20
36.771545411927519
30
0
10
8.9363708092585252
20
36.91965839628508
30
0
10
8.9002512231957933
20
37.067785464197954
30
0
10
8.8627694085758577
20
37.21591804697993
30
0
10
8.8239397330884444
20
37.364048380569521
30
0
10
8.7837747912604733
20
37.512169014022838
30
0
10
8.742286407284638
20
37.660272284579477
30
0
10
8.6994867485941878
20
37.808349713167161
30
0
10
8.655389057400269
20
37.956391725569887
30
0
10
8.6100069172932052
20
38.104388481352515
30
0
10
8.563353817278859
20
38.252330525834459
30
0
10
8.5154426532232481
20
38.400209492265745
30
0
10
8.4662853103015898
20
38.548018839460838
30
0
10
8.415892261503112
20
38.695754430644811
30
0
10
8.3642722001985348
20
38.843413923723809
30
0
10
8.3219998029325168
20
38.961479823205195
30
0
10
8.2897481801575452
20
39.049994446528643
30
0
10
8.2680040383707265
20
39.108988740745723
30
0
10
8.2570712024886799
20
39.138482024179638
30
0
0
ARC
5
108
100
AcDbEntity
8
0
100
AcDbCircle
10
4.4408920985006262e-15
20
-2.2204460492503131e-15
30
0
40
39.999999999999993
210
0
220
-0
230
1
100
AcDbArc
50
78.086965842015459
51
81.913034157984157
0
SPLINE
5
109
100
AcDbEntity
8
0
100
AcDbSpline
70
4
71
5
72
56
73
50
74
0
42
0.000000001
43
0.0000000001
44
0.0000000001
40
-1
40
-1
40
-1
40
-1
40
-1
40
-1
40
-0.97777777777777819
40
-0.95555555555555594
40
-0.93333333333333368
40
-0.91111111111111143
40
-0.88888888888888917
40
-0.86666666666666692
40
-0.84444444444444466
40
-0.82222222222222241
40
-0.80000000000000016
40
-0.7777777777777779
40
-0.75555555555555565
40
-0.73333333333333339
40
-0.71111111111111114
40
-0.68888888888888888
40
-0.66666666666666663
40
-0.64444444444444438
40
-0.62222222222222212
40
-0.59999999999999987
40
-0.57777777777777761
40
-0.55555555555555536
40
-0.5333333333333331
40
-0.51111111111111085
40
-0.48888888888888865
40
-0.46666666666666645
40
-0.44444444444444425
40
-0.42222222222222205
40
-0.39999999999999986
40
-0.37777777777777766
40
-0.35555555555555546
40
-0.33333333333333326
40
-0.31111111111111106
40
-0.28888888888888886
40
-0.26666666666666666
40
-0.24444444444444446
40
-0.22222222222222224
40
-0.20000000000000001
40
-0.17777777777777778
40
-0.15555555555555556
40
-0.13333333333333333
40
-0.11111111111111112
40
-0.088888888888888892
40
-0.066666666666666666
40
-0.044444444444444446
40
-0.022222222222222223
40
0
40
0
40
0
40
0
40
0
40
0
41
1
41
1
41
1
41
1
41
1
41
1
41
1
41
1
41
1
41
1
41
1
41
1
41
1
41
1
41
1
41
1
41
1
41
1
41
1
41
1
41
1
41
1
41
1
41
1
41
1
41
1
41
1
41
1
41
1
41
1
41
1
41
1
41
1
41
1
41
1
41
1
41
1
41
1
41
1
41
1
41
1
41
1
41
1
41
1
41
1
41
1
41
1
41
1
41
1
41
1
10
5.6270403531765929
20
39.602227423008955
30
0
10
5.6066795509465166
20
39.578252052298737
30
0
10
5.5660695044001844
20
39.530252483844961
30
0
10
5.5054891083142499
20
39.458106650120335
30
0
10
5.4253851326777731
20
39.361619006982899
30
0
10
5.3263756209993129
20
39.240519571713406
30
0
10
5.2284930968339207
20
39.118928964622974
30
0
10
5.1317465303209566
20
38.996846413252044
30
0
10
5.0361471777113103
20
38.874272222924255
30
0
10
4.9417084446335737
20
38.751208475374064
30
0
10
4.848445310834931
20
38.627658622128727
30
0
10
4.7563736855259346
20
38.503626934170093
30
0
10
4.6655096987332936
20
38.379118012620935
30
0
10
4.5758690686399213
20
38.254136325198395
30
0
10
4.487466128906612
20
38.128685678116859
30
0
10
4.4003146114584002
20
38.002769227903656
30
0
10
4.314428899652162
20
37.876389668573879
30
0
10
4.2298251501652953
20
37.749549381919522
30
0
10
4.146522250753593
20
37.622250611965079
30
0
10
4.0645432290342329
20
37.494495674222833
30
0
10
3.9839141348545475
20
37.366287026737723
30
0
10
3.9046618875201462
20
37.237627276849153
30
0
10
3.8268122091405328
20
37.108519239753484
30
0
10
3.7503878969703308
20
36.978965968192711
30
0
10
3.6754057880405706
20
36.848970883743846
30
0
10
3.601879626418504
20
36.718537544299288
30
0
10
3.5298257726055398
20
36.587669246869382
30
0
10
3.4592683993063584
20
36.456368668549779
30
0
10
3.3902439107542865
20
36.32463757543831
30
0
10
3.3228080416167143
20
36.192476351351061
30
0
10
3.2570300719683463
20
36.05988444230573
30
0
10
3.192980780735184
20
35.926861245965881
30
0
10
3.1307212839615577
20
35.793406957577488
30
0
10
3.0702936663213705
20
35.659523279380053
30
0
10
3.0117050185684056
20
35.525214653531464
30
0
10
2.9549446118692702
20
35.390486929766034
30
0
10
2.9000151367998011
20
35.255344946849135
30
0
10
2.8469609515818313
20
35.119790361260577
30
0
10
2.7958941344534955
20
34.983819639481638
30
0
10
2.7470305122531204
20
34.847421322917235
30
0
10
2.7006634413073582
20
34.710577906191219
30
0
10
2.6571183808001146
20
34.573269144881017
30
0
10
2.6167129748467071
20
34.435474962451387
30
0
10
2.5797168560666828
20
34.297178384523818
30
0
10
2.5463056977068121
20
34.158368905964061
30
0
10
2.5165760822019605
20
34.019041358192467
30
0
10
2.4957710982114563
20
33.907163535793231
30
0
10
2.4818463595915752
20
33.823021425408072
30
0
10
2.473308832066893
20
33.766822881921158
30
0
10
2.4692264756577345
20
33.738697659408977
30
0
0
LINE
5
110
100
AcDbEntity
8
0
100
AcDbLine
10
2.469226475657734
20
33.738697659408984
30
0
11
2.2627381624645508
21
30.917309326785318
31
0
0
ARC
5
111
100
AcDbEntity
8
0
100
AcDbCircle
10
-8.3266726846886741e-16
20
31.082911835650403
30
0
40
2.2687900261628147
210
0
220
0
230
1
100
AcDbArc
50
184.18583044393176
51
355.81416955606835
0
LINE
5
112
100
AcDbEntity
8
0
100
AcDbLine
10
-2.2627381624645522
20
30.917309326785318
30
0
11
-2.4692264756577318
21
33.738697659408977
31
0
0
SPLINE
5
113
100
AcDbEntity
8
0
100
AcDbSpline
70
4
71
5
72
56
73
50
74
0
42
0.000000001
43
0.0000000001
44
0.0000000001
40
0
40
0
40
0
40
0
40
0
40
0
40
0.022222222222222223
40
0.044444444444444446
40
0.066666666666666666
40
0.088888888888888892
40
0.11111111111111112
40
0.13333333333333333
40
0.15555555555555556
40
0.17777777777777778
40
0.20000000000000001
40
0.22222222222222224
40
0.24444444444444446
40
0.26666666666666666
40
0.28888888888888886
40
0.31111111111111106
40
0.33333333333333326
40
0.35555555555555546
40
0.37777777777777766
40
0.39999999999999986
40
0.42222222222222205
40
0.44444444444444425
40
0.46666666666666645
40
0.48888888888888865
40
0.51111111111111085
40
0.5333333333333331
40
0.55555555555555536
40
0.57777777777777761
40
0.59999999999999987
40
0.62222222222222212
40
0.64444444444444438
40
0.66666666666666663
40
0.68888888888888888
40
0.71111111111111114
40
0.73333333333333339
40
0.75555555555555565
40
0.7777777777777779
40
0.80000000000000016
40
0.82222222222222241
40
0.84444444444444466
40
0.86666666666666692
40
0.88888888888888917
40
0.91111111111111143
40
0.93333333333333368
40
0.95555555555555594
40
0.97777777777777819
40
1
40
1
40
1
40
1
40
1
40
1
41
1
41
1
41
1
41
1
41
1
41
1
41
1
41
1
41
1
41
1
41
1
41
1
41
1
41
1
41
1
41
1
41
1
41
1
41
1
41
1
41
1
41
1
41
1
41
1
41
1
41
1
41
1
41
1
41
1
41
1
41
1
41
1
41
1
41
1
41
1
41
1
41
1
41
1
41
1
41
1
41
1
41
1
41
1
41
1
41
1
41
1
41
1
41
1
41
1
41
1
10
-2.4692264756577318
20
33.738697659408977
30
0
10
-2.4733088320674117
20
33.766822881921065
30
0
10
-2.4818463595929838
20
33.823021425407823
30
0
10
-2.4957710982137398
20
33.907163535792833
30
0
10
-2.5165760822045509
20
34.019041358192005
30
0
10
-2.5463056977087675
20
34.158368905963712
30
0
10
-2.5797168560675225
20
34.297178384523662
30
0
10
-2.6167129748464784
20
34.43547496245143
30
0
10
-2.6571183807992398
20
34.573269144881166
30
0
10
-2.7006634413063342
20
34.710577906191403
30
0
10
-2.7470305122523526
20
34.84742132291737
30
0
10
-2.7958941344531905
20
34.983819639481688
30
0
10
-2.8469609515819601
20
35.119790361260556
30
0
10
-2.9000151368001892
20
35.255344946849064
30
0
10
-2.9549446118697089
20
35.390486929765956
30
0
10
-3.0117050185687293
20
35.525214653531407
30
0
10
-3.0702936663214926
20
35.659523279380025
30
0
10
-3.1307212839614857
20
35.793406957577496
30
0
10
-3.1929807807349913
20
35.92686124596591
30
0
10
-3.2570300719681242
20
36.059884442305766
30
0
10
-3.3228080416165455
20
36.19247635135109
30
0
10
-3.3902439107542199
20
36.324637575438324
30
0
10
-3.4592683993063957
20
36.456368668549771
30
0
10
-3.529825772605653
20
36.587669246869361
30
0
10
-3.6018796264186448
20
36.718537544299259
30
0
10
-3.6754057880406847
20
36.848970883743824
30
0
10
-3.7503878969703797
20
36.978965968192703
30
0
10
-3.8268122091405008
20
37.108519239753491
30
0
10
-3.9046618875200445
20
37.237627276849167
30
0
10
-3.9839141348544138
20
37.366287026737744
30
0
10
-4.064543229034113
20
37.494495674222854
30
0
10
-4.1465222507535273
20
37.622250611965093
30
0
10
-4.2298251501653201
20
37.749549381919522
30
0
10
-4.3144288996522837
20
37.876389668573857
30
0
10
-4.4003146114585965
20
38.00276922790362
30
0
10
-4.4874661289068198
20
38.128685678116824
30
0
10
-4.5758690686400518
20
38.254136325198367
30
0
10
-4.6655096987332598
20
38.379118012620943
30
0
10
-4.7563736855256886
20
38.503626934170136
30
0
10
-4.84844531083451
20
38.627658622128806
30
0
10
-4.9417084446330994
20
38.751208475374149
30
0
10
-5.0361471777109745
20
38.874272222924311
30
0
10
-5.1317465303209744
20
38.996846413252044
30
0
10
-5.2284930968344394
20
39.118928964622881
30
0
10
-5.3263756210003157
20
39.240519571713229
30
0
10
-5.4253851326790192
20
39.361619006982679
30
0
10
-5.5054891083153219
20
39.458106650120143
30
0
10
-5.5660695044008381
20
39.530252483844848
30
0
10
-5.6066795509467564
20
39.578252052298694
30
0
10
-5.6270403531765911
20
39.602227423008955
30
0
0
ARC
5
114
100
AcDbEntity
8
0
100
AcDbCircle
10
4.4408920985006262e-15
20
-2.2204460492503131e-15
30
0
40
40.000000000000007
210
0
220
0
230
1
100
AcDbArc
50
98.086965842015488
51
101.91303415798416
0
SPLINE
5
115
100
AcDbEntity
8
0
100
AcDbSpline
70
4
71
5
72
56
73
50
74
0
42
0.000000001
43
0.0000000001
44
0.0000000001
40
-1
40
-1
40
-1
40
-1
40
-1
40
-1
40
-0.97777777777777819
40
-0.95555555555555594
40
-0.93333333333333368
40
-0.91111111111111143
40
-0.88888888888888917
40
-0.86666666666666692
40
-0.84444444444444466
40
-0.82222222222222241
40
-0.80000000000000016
40
-0.7777777777777779
40
-0.75555555555555565
40
-0.73333333333333339
40
-0.71111111111111114
40
-0.68888888888888888
40
-0.66666666666666663
40
-0.64444444444444438
40
-0.62222222222222212
40
-0.59999999999999987
40
-0.57777777777777761
40
-0.55555555555555536
40
-0.5333333333333331
40
-0.51111111111111085
40
-0.48888888888888865
40
-0.46666666666666645
40
-0.44444444444444425
40
-0.42222222222222205
40
-0.39999999999999986
40
-0.37777777777777766
40
-0.35555555555555546
40
-0.33333333333333326
40
-0.31111111111111106
40
-0.28888888888888886
40
-0.26666666666666666
40
-0.24444444444444446
40
-0.22222222222222224
40
-0.20000000000000001
40
-0.17777777777777778
40
-0.15555555555555556
40
-0.13333333333333333
40
-0.11111111111111112
40
-0.088888888888888892
40
-0.066666666666666666
40
-0.044444444444444446
40
-0.022222222222222223
40
0
40
0
40
0
40
0
40
0
40
0
41
1
41
1
41
1
41
1
41
1
41
1
41
1
41
1
41
1
41
1
41
1
41
1
41
1
41
1
41
1
41
1
41
1
41
1
41
1
41
1
41
1
41
1
41
1
41
1
41
1
41
1
41
1
41
1
41
1
41
1
41
1
41
1
41
1
41
1
41
1
41
1
41
1
41
1
41
1
41
1
41
1
41
1
41
1
41
1
41
1
41
1
41
1
41
1
41
1
41
1
10
-8.2570712024886781
20
39.138482024179638
30
0
10
-8.2680040383709663
20
39.10898874074568
30
0
10
-8.2897481801581989
20
39.049994446528522
30
0
10
-8.321999802933588
20
38.961479823205003
30
0
10
-8.36427220019978
20
38.843413923723588
30
0
10
-8.4158922615041138
20
38.695754430644634
30
0
10
-8.4662853103021067
20
38.548018839460745
30
0
10
-8.5154426532232659
20
38.400209492265745
30
0
10
-8.5633538172785233
20
38.252330525834516
30
0
10
-8.6100069172927309
20
38.104388481352601
30
0
10
-8.655389057399848
20
37.956391725569965
30
0
10
-8.6994867485939409
20
37.808349713167203
30
0
10
-8.742286407284606
20
37.660272284579491
30
0
10
-8.783774791260603
20
37.512169014022817
30
0
10
-8.8239397330886522
20
37.364048380569479
30
0
10
-8.8627694085760549
20
37.215918046979894
30
0
10
-8.9002512231959159
20
37.067785464197932
30
0
10
-8.9363708092585519
20
36.919658396285072
30
0
10
-8.9711111855807975
20
36.771545411927534
30
0
10
-9.0044515052325629
20
36.623456562904025
30
0
10
-9.0363681300654193
20
36.475403068593764
30
0
10
-9.0668366559691211
20
36.327396586039121
30
0
10
-9.0958338749210466
20
36.179448558138922
30
0
10
-9.1233394086084996
20
36.031569650652571
30
0
10
-9.1493386056459247
20
35.883768837414507
30
0
10
-9.1738197677056181
20
35.73605416249783
30
0
10
-9.1967686485890869
20
35.588434319699857
30
0
10
-9.2181634490047504
20
35.440920092219535
30
0
10
-9.2379705642042236
20
35.29352559062707
30
0
10
-9.2561377520046655
20
35.146270237970526
30
0
10
-9.2725997209580076
20
34.999177208857901
30
0
10
-9.2872897546185822
20
34.852270145096512
30
0
10
-9.3001504894685816
20
34.70557013307581
30
0
10
-9.3111429610506828
20
34.559093166183878
30
0
10
-9.3202620255433626
20
34.412845843864339
30
0
10
-9.3275197654791526
20
34.266829993592218
30
0
10
-9.3329153074990234
20
34.121051082550771
30
0
10
-9.3364075350587079
20
33.975525838727236
30
0
10
-9.3378899205302996
20
33.830289274715206
30
0
10
-9.3371557339561289
20
33.685404440083644
30
0
10
-9.3339233233695129
20
33.540955218932609
30
0
10
-9.3278799331766571
20
33.397033901324349
30
0
10
-9.3187202089669086
20
33.253730262172681
30
0
10
-9.3061849733779773
20
33.111120570566555
30
0
10
-9.2901055545886919
20
32.969255038697902
30
0
10
-9.2703894270393477
20
32.828161842828749
30
0
10
-9.2516752481188451
20
32.715915355084277
30
0
10
-9.2359819255926627
20
32.632085093759443
30
0
10
-9.2247835433092753
20
32.576355730758237
30
0
10
-9.2190003108676972
20
32.548530418581414
30
0
0
LINE
5
116
100
AcDbEntity
8
0
100
AcDbLine
10
-9.2190003108676972
20
32.548530418581414
30
0
11
-8.4480642131525467
21
29.826669459570091
31
0
0
ARC
5
117
100
AcDbEntity
8
0
100
AcDbCircle
10
-10.630981961008272
20
29.208382884499656
30
0
40
2.2687900261628147
210
0
220
0
230
1
100
AcDbArc
50
-155.81416955606849
51
15.81416955606827
0
LINE
5
118
100
AcDbEntity
8
0
100
AcDbLine
10
-12.700620921229755
20
28.278865398300926
30
0
11
-13.859628107317224
21
30.859480032365422
31
0
0
SPLINE
5
119
100
AcDbEntity
8
0
100
AcDbSpline
70
4
71
5
72
56
73
50
74
0
42
0.000000001
43
0.0000000001
44
0.0000000001
40
0
40
0
40
0
40
0
40
0
40
0
40
0.022222222222222223
40
0.044444444444444446
40
0.066666666666666666
40
0.088888888888888892
40
0.11111111111111112
40
0.13333333333333333
40
0.15555555555555556
40
0.17777777777777778
40
0.20000000000000001
40
0.22222222222222224
40
0.24444444444444446
40
0.26666666666666666
40
0.28888888888888886
40
0.31111111111111106
40
0.33333333333333326
40
0.35555555555555546
40
0.37777777777777766
40
0.39999999999999986
40
0.42222222222222205
40
0.44444444444444425
40
0.46666666666666645
40
0.48888888888888865
40
0.51111111111111085
40
0.5333333333333331
40
0.55555555555555536
40
0.57777777777777761
40
0.59999999999999987
40
0.62222222222222212
40
0.64444444444444438
40
0.66666666666666663
40
0.68888888888888888
40
0.71111111111111114
40
0.73333333333333339
40
0.75555555555555565
40
0.7777777777777779
40
0.80000000000000016
40
0.82222222222222241
40
0.84444444444444466
40
0.86666666666666692
40
0.88888888888888917
40
0.91111111111111143
40
0.93333333333333368
40
0.95555555555555594
40
0.97777777777777819
40
1
40
1
40
1
40
1
40
1
40
1
41
1
41
1
41
1
41
1
41
1
41
1
41
1
41
1
41
1
41
1
41
1
41
1
41
1
41
1
41
1
41
1
41
1
41
1
41
1
41
1
41
1
41
1
41
1
41
1
41
1
41
1
41
1
41
1
41
1
41
1
41
1
41
1
41
1
41
1
41
1
41
1
41
1
41
1
41
1
41
1
41
1
41
1
41
1
41
1
41
1
41
1
41
1
41
1
41
1
41
1
10
-13.859628107317224
20
30.859480032365422
30
0
10
-13.873083660145468
20
30.884512848293653
30
0
10
-13.900327345659038
20
30.934402198519134
30
0
10
-13.942190616440939
20
31.008707377646438
30
0
10
-14.000005375224603
20
31.106722418178109
30
0
10
-14.075594903390812
20
31.227479359335611
30
0
10
-14.154466760104478
20
31.346490312862993
30
0
10
-14.236531955323084
20
31.463793168774387
30
0
10
-14.321629003160819
20
31.579457882455749
30
0
10
-14.409510337414206
20
31.693592624392465
30
0
10
-14.499884336831425
20
31.806324901042441
30
0
10
-14.59245209381913
20
31.917785049537002
30
0
10
-14.686943930792964
20
32.028089853321973
30
0
10
-14.783160955935774
20
32.137323897080819
30
0
10
-14.880999058688795
20
32.245528834250116
30
0
10
-14.980415989408872
20
32.352718279653374
30
0
10
-15.081407564826588
20
32.458888606569559
30
0
10
-15.18398186602063
20
32.564030648569343
30
0
10
-15.288130710554565
20
32.668142656570311
30
0
10
-15.393813969570706
20
32.771237424796766
30
0
10
-15.500974145995112
20
32.873335672695745
30
0
10
-15.609544935404481
20
32.974462174096793
30
0
10
-15.719461425296906
20
33.074641144754089
30
0
10
-15.830671110943864
20
33.173891286377433
30
0
10
-15.943139179514878
20
33.272223390358832
30
0
10
-16.056842000477097
20
33.369643208603193
30
0
10
-16.171763072344135
20
33.466153238555265
30
0
10
-16.287888263046568
20
33.561754837637615
30
0
10
-16.405200580702338
20
33.656450549223344
30
0
10
-16.52367755880028
20
33.750245301793619
30
0
10
-16.643294063610043
20
33.843145247408756
30
0
10
-16.764023907496185
20
33.935157142915926
30
0
10
-16.885841770908513
20
34.026287588080962
30
0
10
-17.008725223013219
20
34.116542282942987
30
0
10
-17.132655747623961
20
34.205925578801725
30
0
10
-17.257617347809322
20
34.294440763413931
30
0
10
-17.383595586227553
20
34.382090224631312
30
0
10
-17.510576479494091
20
34.468875692883387
30
0
10
-17.638545256571703
20
34.554798493899298
30
0
10
-17.767485619150719
20
34.639859805333323
30
0
10
-17.897380836287461
20
34.724060820338359
30
0
10
-18.028214497452414
20
34.807402966774724
30
0
10
-18.159971345795856
20
34.88988812464298
30
0
10
-18.292638072152346
20
34.971518922747677
30
0
10
-18.426203994679014
20
35.052298924043058
30
0
10
-18.560660948398628
20
35.132231922372156
30
0
10
-18.668934780734709
20
35.195503475397366
30
0
10
-18.750537060291425
20
35.242578667217032
30
0
10
-18.805114840642553
20
35.273794053553914
30
0
10
-18.832447795977817
20
35.289359727994082
30
0
0
ARC
5
120
100
AcDbEntity
8
0
100
AcDbCircle
10
4.4408920985006262e-15
20
-2.2204460492503131e-15
30
0
40
40
210
0
220
0
230
1
100
AcDbArc
50
118.08696584201546
51
121.9130341579844
0
SPLINE
5
121
100
AcDbEntity
8
0
100
AcDbSpline
70
4
71
5
72
56
73
50
74
0
42
0.000000001
43
0.0000000001
44
0.0000000001
40
-1
40
-1
40
-1
40
-1
40
-1
40
-1
40
-0.97777777777777819
40
-0.95555555555555594
40
-0.93333333333333368
40
-0.91111111111111143
40
-0.88888888888888917
40
-0.86666666666666692
40
-0.84444444444444466
40
-0.82222222222222241
40
-0.80000000000000016
40
-0.7777777777777779
40
-0.75555555555555565
40
-0.73333333333333339
40
-0.71111111111111114
40
-0.68888888888888888
40
-0.66666666666666663
40
-0.64444444444444438
40
-0.62222222222222212
40
-0.59999999999999987
40
-0.57777777777777761
40
-0.55555555555555536
40
-0.5333333333333331
40
-0.51111111111111085
40
-0.48888888888888865
40
-0.46666666666666645
40
-0.44444444444444425
40
-0.42222222222222205
40
-0.39999999999999986
40
-0.37777777777777766
40
-0.35555555555555546
40
-0.33333333333333326
40
-0.31111111111111106
40
-0.28888888888888886
40
-0.26666666666666666
40
-0.24444444444444446
40
-0.22222222222222224
40
-0.20000000000000001
40
-0.17777777777777778
40
-0.15555555555555556
40
-0.13333333333333333
40
-0.11111111111111112
40
-0.088888888888888892
40
-0.066666666666666666
40
-0.044444444444444446
40
-0.022222222222222223
40
0
40
0
40
0
40
0
40
0
40
0
41
1
41
1
41
1
41
1
41
1
41
1
41
1
41
1
41
1
41
1
41
1
41
1
41
1
41
1
41
1
41
1
41
1
41
1
41
1
41
1
41
1
41
1
41
1
41
1
41
1
41
1
41
1
41
1
41
1
41
1
41
1
41
1
41
1
41
1
41
1
41
1
41
1
41
1
41
1
41
1
41
1
41
1
41
1
41
1
41
1
41
1
41
1
41
1
41
1
41
1
10
-21.145258109741455
20
33.954058070758101
30
0
10
-21.145444317917082
20
33.922604199857048
30
0
10
-21.145699890536317
20
33.859730762422153
30
0
10
-21.145732718311194
20
33.765523519409271
30
0
10
-21.145074862222661
20
33.640119853528439
30
0
10
-21.143079331928597
20
33.48371021672736
30
0
10
-21.139904759951961
20
33.327648734091909
30
0
10
-21.135543778239906
20
33.17194057977818
30
0
10
-21.129987960262238
20
33.016593223056233
30
0
10
-21.123228374824777
20
32.861616875599154
30
0
10
-21.115255765374393
20
32.707023810226097
30
0
10
-21.106060690082966
20
32.552827524942387
30
0
10
-21.095633750177871
20
32.399041912593887
30
0
10
-21.083965776625657
20
32.245680499103699
30
0
10
-21.071048235792574
20
32.092755413700772
30
0
10
-21.056872637390409
20
31.940277901136589
30
0
10
-21.041429694808066
20
31.788259270590025
30
0
10
-21.024708562299001
20
31.636711731931658
30
0
10
-21.00669621343398
20
31.485649144999371
30
0
10
-20.987376496417433
20
31.335088085445481
30
0
10
-20.966731035909405
20
31.185047180760765
30
0
10
-20.94474088649087
20
31.035545731679186
30
0
10
-20.921388153456132
20
30.886602428619554
30
0
10
-20.896657335359684
20
30.738234263910719
30
0
10
-20.870537733634777
20
30.590454681267659
30
0
10
-20.84302110668423
20
30.443275240710229
30
0
10
-20.814097040914241
20
30.296708984222477
30
0
10
-20.783748739762636
20
30.150773500493692
30
0
10
-20.751949451194562
20
30.005493542623441
30
0
10
-20.718656726690007
20
29.86090523018553
30
0
10
-20.683817138539766
20
29.717052671178511
30
0
10
-20.647376079766477
20
29.573980900002557
30
0
10
-20.609286858265712
20
29.431729350860824
30
0
10
-20.569518329485319
20
29.290326379251361
30
0
10
-20.528067916956839
20
29.14977994591321
30
0
10
-20.484947599580195
20
29.010087635641661
30
0
10
-20.440158426553154
20
28.871254884614853
30
0
10
-20.393667482271066
20
28.733311474685316
30
0
10
-20.34538663852036
20
28.596326741523455
30
0
10
-20.295143196907929
20
28.46043063815371
30
0
10
-20.242701181210979
20
28.325798320491941
30
0
10
-20.187798262366222
20
28.192623481541602
30
0
10
-20.130178205916142
20
28.061094919486056
30
0
10
-20.069623550370657
20
27.93137294770397
30
0
10
-20.005992969645146
20
27.803562439382038
30
0
10
-19.939209155003109
20
27.677721517150946
30
0
10
-19.883233019341283
20
27.578644947064944
30
0
10
-19.839814481974468
20
27.505237701519107
30
0
10
-19.810230880056906
20
27.456699302659349
30
0
10
-19.795279601948465
20
27.43253004412427
30
0
0
LINE
5
122
100
AcDbEntity
8
0
100
AcDbLine
10
-19.795279601948465
20
27.432530044124267
30
0
11
-18.139905364514462
21
25.138493060771552
31
0
0
ARC
5
123
100
AcDbEntity
8
0
100
AcDbCircle
10
-19.979710600935164
20
23.810891887657103
30
0
40
2.2687900261628151
210
0
220
0
230
1
100
AcDbArc
50
-135.81416955606829
51
35.814169556068286
0
LINE
5
124
100
AcDbEntity
8
0
100
AcDbLine
10
-21.606621355692901
20
22.229572951177346
30
0
11
-23.578354042908195
21
24.25815367599877
31
0
0
SPLINE
5
125
100
AcDbEntity
8
0
100
AcDbSpline
70
4
71
5
72
56
73
50
74
0
42
0.000000001
43
0.0000000001
44
0.0000000001
40
0
40
0
40
0
40
0
40
0
40
0
40
0.022222222222222223
40
0.044444444444444446
40
0.066666666666666666
40
0.088888888888888892
40
0.11111111111111112
40
0.13333333333333333
40
0.15555555555555556
40
0.17777777777777778
40
0.20000000000000001
40
0.22222222222222224
40
0.24444444444444446
40
0.26666666666666666
40
0.28888888888888886
40
0.31111111111111106
40
0.33333333333333326
40
0.35555555555555546
40
0.37777777777777766
40
0.39999999999999986
40
0.42222222222222205
40
0.44444444444444425
40
0.46666666666666645
40
0.48888888888888865
40
0.51111111111111085
40
0.5333333333333331
40
0.55555555555555536
40
0.57777777777777761
40
0.59999999999999987
40
0.62222222222222212
40
0.64444444444444438
40
0.66666666666666663
40
0.68888888888888888
40
0.71111111111111114
40
0.73333333333333339
40
0.75555555555555565
40
0.7777777777777779
40
0.80000000000000016
40
0.82222222222222241
40
0.84444444444444466
40
0.86666666666666692
40
0.88888888888888917
40
0.91111111111111143
40
0.93333333333333368
40
0.95555555555555594
40
0.97777777777777819
40
1
40
1
40
1
40
1
40
1
40
1
41
1
41
1
41
1
41
1
41
1
41
1
41
1
41
1
41
1
41
1
41
1
41
1
41
1
41
1
41
1
41
1
41
1
41
1
41
1
41
1
41
1
41
1
41
1
41
1
41
1
41
1
41
1
41
1
41
1
41
1
41
1
41
1
41
1
41
1
41
1
41
1
41
1
41
1
41
1
41
1
41
1
41
1
41
1
41
1
41
1
41
1
41
1
41
1
41
1
41
1
10
-23.578354042908195
20
24.25815367599877
30
0
10
-23.599559853901113
20
24.277074758297175
30
0
10
-23.642223706855766
20
24.314637523335783
30
0
10
-23.706976181506441
20
24.370143469974977
30
0
10
-23.794827401918681
20
24.4424736682031
30
0
10
-23.907159630067412
20
24.530094933460155
30
0
10
-24.021979075191695
20
24.614952884544966
30
0
10
-24.139215073153292
20
24.697113562811296
30
0
10
-24.258739803008101
20
24.776697936244929
30
0
10
-24.380357625106463
20
24.853892324481176
30
0
10
-24.503838114886989
20
24.928916284739962
30
0
10
-24.628944969014249
20
25.001994526279738
30
0
10
-24.755464715743109
20
25.073329024808814
30
0
10
-24.883239387566221
20
25.143067288937893
30
0
10
-25.012185398874117
20
25.211284068002186
30
0
10
-25.142267704532777
20
25.278006605979879
30
0
10
-25.273481133143157
20
25.343232925630392
30
0
10
-25.405830143331791
20
25.406951649436035
30
0
10
-25.539306447902121
20
25.469163932355045
30
0
10
-25.67387671394513
20
25.529895521903256
30
0
10
-25.80949399835297
20
25.589185553149612
30
0
10
-25.946104468497069
20
25.647079983327306
30
0
10
-26.083655408854092
20
25.703623769185032
30
0
10
-26.222103877479569
20
25.75885244225627
30
0
10
-26.361420851887026
20
25.812788049821727
30
0
10
-26.501586093906468
20
25.865444079022236
30
0
10
-26.642584951389303
20
25.916828520528906
30
0
10
-26.784404608800042
20
25.966947483354161
30
0
10
-26.927029968877338
20
26.015809169052851
30
0
10
-27.070441605646266
20
26.063425892881725
30
0
10
-27.214618005254437
20
26.109812032128531
30
0
10
-27.359536870351914
20
26.154982892851521
30
0
10
-27.505176665597055
20
26.198953336598127
30
0
10
-27.651518262429072
20
26.241736391450058
30
0
10
-27.798545749556443
20
26.283342479200247
30
0
10
-27.94624521925979
20
26.323780160602233
30
0
10
-28.094603921568996
20
26.363056617364347
30
0
10
-28.243609308242519
20
26.401178258157628
30
0
10
-28.393247952471757
20
26.438151380752231
30
0
10
-28.543504941636847
20
26.473982666131427
30
0
10
-28.69436496187582
20
26.508678957811917
30
0
10
-28.84581308069216
20
26.542247210275171
30
0
10
-28.997835604334846
20
26.574694408293769
30
0
10
-29.150420925383422
20
26.606027574138615
30
0
10
-29.303560224791092
20
26.63625370929697
30
0
10
-29.457247127559725
20
26.665379171401796
30
0
10
-29.58063139446427
20
26.68780315123125
30
0
10
-29.673413118256274
20
26.704129738256572
30
0
10
-29.735375746620008
20
26.71479590619424
30
0
10
-29.766384097255816
20
26.720074434301935
30
0
0
ARC
5
126
100
AcDbEntity
8
0
100
AcDbCircle
10
4.4408920985006262e-15
20
-2.2204460492503131e-15
30
0
40
40.000000000000007
210
0
220
0
230
1
100
AcDbArc
50
138.0869658420155
51
141.91303415798436
0
SPLINE
5
127
100
AcDbEntity
8
0
100
AcDbSpline
70
4
71
5
72
56
73
50
74
0
42
0.000000001
43
0.0000000001
44
0.0000000001
40
-1
40
-1
40
-1
40
-1
40
-1
40
-1
40
-0.97777777777777819
40
-0.95555555555555594
40
-0.93333333333333368
40
-0.91111111111111143
40
-0.88888888888888917
40
-0.86666666666666692
40
-0.84444444444444466
40
-0.82222222222222241
40
-0.80000000000000016
40
-0.7777777777777779
40
-0.75555555555555565
40
-0.73333333333333339
40
-0.71111111111111114
40
-0.68888888888888888
40
-0.66666666666666663
40
-0.64444444444444438
40
-0.62222222222222212
40
-0.59999999999999987
40
-0.57777777777777761
40
-0.55555555555555536
40
-0.5333333333333331
40
-0.51111111111111085
40
-0.48888888888888865
40
-0.46666666666666645
40
-0.44444444444444425
40
-0.42222222222222205
40
-0.39999999999999986
40
-0.37777777777777766
40
-0.35555555555555546
40
-0.33333333333333326
40
-0.31111111111111106
40
-0.28888888888888886
40
-0.26666666666666666
40
-0.24444444444444446
40
-0.22222222222222224
40
-0.20000000000000001
40
-0.17777777777777778
40
-0.15555555555555556
40
-0.13333333333333333
40
-0.11111111111111112
40
-0.088888888888888892
40
-0.066666666666666666
40
-0.044444444444444446
40
-0.022222222222222223
40
0
40
0
40
0
40
0
40
0
40
0
41
1
41
1
41
1
41
1
41
1
41
1
41
1
41
1
41
1
41
1
41
1
41
1
41
1
41
1
41
1
41
1
41
1
41
1
41
1
41
1
41
1
41
1
41
1
41
1
41
1
41
1
41
1
41
1
41
1
41
1
41
1
41
1
41
1
41
1
41
1
41
1
41
1
41
1
41
1
41
1
41
1
41
1
41
1
41
1
41
1
41
1
41
1
41
1
41
1
41
1
10
-31.483014818186199
20
24.67427360547557
30
0
10
-31.472431939201037
20
24.644652948147787
30
0
10
-31.451168116822544
20
24.585483831962904
30
0
10
-31.418978190082775
20
24.496946753118849
30
0
10
-31.375469427792709
20
24.379330853704811
30
0
10
-31.320098996304608
20
24.233036383740224
30
0
10
-31.263739703785415
20
24.08747232768123
30
0
10
-31.206386396195857
20
23.942646067666619
30
0
10
-31.14803370982851
20
23.798567504557433
30
0
10
-31.088676744703992
20
23.655249288835797
30
0
10
-31.028311000059013
20
23.512706119106959
30
0
10
-30.966932220067068
20
23.370953908642321
30
0
10
-30.90453632440401
20
23.230008927016183
30
0
10
-30.841119323134933
20
23.089887020432812
30
0
10
-30.776677345707782
20
22.950602505313768
30
0
10
-30.711206259792903
20
22.812168852118656
30
0
10
-30.644701206797347
20
22.674599864207451
30
0
10
-30.577156171074805
20
22.537910724569237
30
0
10
-30.508563652129599
20
22.402118912492579
30
0
10
-30.438914141445593
20
22.26724552823509
30
0
10
-30.368196742828488
20
22.133314360648804
30
0
10
-30.296400254647633
20
22.000350026205918
30
0
10
-30.223514253879852
20
21.868376208504895
30
0
10
-30.149529985649941
20
21.73741417691836
30
0
10
-30.074441994614997
20
21.607480223531425
30
0
10
-29.998246489966597
20
21.478588030001671
30
0
10
-29.920938146748767
20
21.350753413444124
30
0
10
-29.842507197041996
20
21.223998646582931
30
0
10
-29.762936968215211
20
21.098356139457874
30
0
10
-29.682199925329186
20
20.973874351614825
30
0
10
-29.600260948583838
20
20.850613004367311
30
0
10
-29.517084126877503
20
20.728633092895077
30
0
10
-29.432639071275997
20
20.607987642868089
30
0
10
-29.346906213625005
20
20.488713951802794
30
0
10
-29.25988585556923
20
20.370820381551059
30
0
10
-29.171588427543881
20
20.254300565537754
30
0
10
-29.082016774754781
20
20.1391592532526
30
0
10
-28.991150152644607
20
20.025435688282478
30
0
10
-28.8989294619773
20
19.913225166469452
30
0
10
-28.805236865899289
20
19.802708870040803
30
0
10
-28.709910526146786
20
19.69413210033969
30
0
10
-28.612770180943595
20
19.587766591075983
30
0
10
-28.513639621442529
20
19.483877391855295
30
0
10
-28.412369331090808
20
19.382689524186581
30
0
10
-28.308862375551929
20
19.28434987299719
30
0
10
-28.203065987487165
20
19.188939496839446
30
0
10
-28.1165794431646
20
19.114982940978727
30
0
10
-28.050672607352954
20
19.060852708400269
30
0
10
-28.006272004799943
20
19.025359720934933
30
0
10
-27.983956025821882
20
19.007761685321206
30
0
0
LINE
5
128
100
AcDbEntity
8
0
100
AcDbLine
10
-27.983956025821882
20
19.007761685321206
30
0
11
-25.643806212425375
21
17.418243394199486
31
0
0
ARC
5
129
100
AcDbEntity
8
0
100
AcDbCircle
10
-26.918591273265243
20
15.541455917825203
30
0
40
2.2687900261628147
210
0
220
0
230
1
100
AcDbArc
50
-115.81416955606822
51
55.814169556068421
0
LINE
5
130
100
AcDbEntity
8
0
100
AcDbLine
10
-27.906544374889918
20
13.49906593258584
30
0
11
-30.453182501479624
21
14.730935974087782
31
0
0
SPLINE
5
131
100
AcDbEntity
8
0
100
AcDbSpline
70
4
71
5
72
56
73
50
74
0
42
0.000000001
43
0.0000000001
44
0.0000000001
40
0
40
0
40
0
40
0
40
0
40
0
40
0.022222222222222223
40
0.044444444444444446
40
0.066666666666666666
40
0.088888888888888892
40
0.11111111111111112
40
0.13333333333333333
40
0.15555555555555556
40
0.17777777777777778
40
0.20000000000000001
40
0.22222222222222224
40
0.24444444444444446
40
0.26666666666666666
40
0.28888888888888886
40
0.31111111111111106
40
0.33333333333333326
40
0.35555555555555546
40
0.37777777777777766
40
0.39999999999999986
40
0.42222222222222205
40
0.44444444444444425
40
0.46666666666666645
40
0.48888888888888865
40
0.51111111111111085
40
0.5333333333333331
40
0.55555555555555536
40
0.57777777777777761
40
0.59999999999999987
40
0.62222222222222212
40
0.64444444444444438
40
0.66666666666666663
40
0.68888888888888888
40
0.71111111111111114
40
0.73333333333333339
40
0.75555555555555565
40
0.7777777777777779
40
0.80000000000000016
40
0.82222222222222241
40
0.84444444444444466
40
0.86666666666666692
40
0.88888888888888917
40
0.91111111111111143
40
0.93333333333333368
40
0.95555555555555594
40
0.97777777777777819
40
1
40
1
40
1
40
1
40
1
40
1
41
1
41
1
41
1
41
1
41
1
41
1
41
1
41
1
41
1
41
1
41
1
41
1
41
1
41
1
41
1
41
1
41
1
41
1
41
1
41
1
41
1
41
1
41
1
41
1
41
1
41
1
41
1
41
1
41
1
41
1
41
1
41
1
41
1
41
1
41
1
41
1
41
1
41
1
41
1
41
1
41
1
41
1
41
1
41
1
41
1
41
1
41
1
41
1
41
1
41
1
10
-30.453182501479624
20
14.730935974087782
30
0
10
-30.479580836867019
20
14.741463160985742
30
0
10
-30.53251896694502
20
14.762168717006466
30
0
10
-30.612350541376856
20
14.792180594812336
30
0
10
-30.719642069690028
20
14.830101861350551
30
0
10
-30.855168073259421
20
14.874019032965011
30
0
10
-30.992086187157785
20
14.914488860336439
30
0
10
-31.130352596289161
20
14.951597570596316
30
0
10
-31.269888561743407
20
14.985502553805874
30
0
10
-31.410573967453786
20
15.016445805852518
30
0
10
-31.552267378152152
20
15.044712452877175
30
0
10
-31.694823596430698
20
15.070594473012481
30
0
10
-31.838111104226488
20
15.094354672977985
30
0
10
-31.982031911554721
20
15.116185693596169
30
0
10
-32.12653303941331
20
15.136186364227866
30
0
10
-32.271590874137758
20
15.154394271980106
30
0
10
-32.417199879946423
20
15.170809327577144
30
0
10
-32.563360355237535
20
15.185419314709474
30
0
10
-32.710064907612619
20
15.198228153070987
30
0
10
-32.857291020552111
20
15.209271437938636
30
0
10
-33.005007966945847
20
15.2186019997364
30
0
10
-33.153180878969472
20
15.226281435980509
30
0
10
-33.301775596348371
20
15.232370021966823
30
0
10
-33.450763919354351
20
15.236915833425154
30
0
10
-33.600126116385155
20
15.239949514297484
30
0
10
-33.749847782655614
20
15.241490660212321
30
0
10
-33.899917882620294
20
15.241551791274315
30
0
10
-34.050326463020383
20
15.240143031248632
30
0
10
-34.20106214216775
20
15.237277250643334
30
0
10
-34.352110877682989
20
15.232972666089051
30
0
10
-34.503457370479786
20
15.227250145987856
30
0
10
-34.655085902883172
20
15.220131699472567
30
0
10
-34.806981321240116
20
15.211638657350267
30
0
10
-34.959130106449557
20
15.201789804366312
30
0
10
-35.111520871251372
20
15.190600375784822
30
0
10
-35.264143474614471
20
15.178083172802895
30
0
10
-35.416988391774908
20
15.164249304765464
30
0
10
-35.570046023137294
20
15.149109085604788
30
0
10
-35.723305905592923
20
15.13267302552801
30
0
10
-35.876756310893803
20
15.114952503022181
30
0
10
-36.030385189337409
20
15.09595918653873
30
0
10
-36.184180887539704
20
15.075704718367158
30
0
10
-36.33813292651682
20
15.054200345585414
30
0
10
-36.492232800619526
20
15.03145663694125
30
0
10
-36.646474617304271
20
15.00748318797223
30
0
10
-36.800854560470924
20
14.982288153276908
30
0
10
-36.924467298397403
20
14.961159897000471
30
0
10
-37.017237621222961
20
14.944768651881443
30
0
10
-37.079111490147639
20
14.933599104150733
30
0
10
-37.110055171362795
20
14.927953817533394
30
0
0
ARC
5
132
100
AcDbEntity
8
0
100
AcDbCircle
10
4.4408920985006262e-15
20
-2.2204460492503131e-15
30
0
40
40.000000000000007
210
0
220
0
230
1
100
AcDbArc
50
158.08696584201547
51
161.91303415798436
0
SPLINE
5
133
100
AcDbEntity
8
0
100
AcDbSpline
70
4
71
5
72
56
73
50
74
0
42
0.000000001
43
0.0000000001
44
0.0000000001
40
-1
40
-1
40
-1
40
-1
40
-1
40
-1
40
-0.97777777777777819
40
-0.95555555555555594
40
-0.93333333333333368
40
-0.91111111111111143
40
-0.88888888888888917
40
-0.86666666666666692
40
-0.84444444444444466
40
-0.82222222222222241
40
-0.80000000000000016
40
-0.7777777777777779
40
-0.75555555555555565
40
-0.73333333333333339
40
-0.71111111111111114
40
-0.68888888888888888
40
-0.66666666666666663
40
-0.64444444444444438
40
-0.62222222222222212
40
-0.59999999999999987
40
-0.57777777777777761
40
-0.55555555555555536
40
-0.5333333333333331
40
-0.51111111111111085
40
-0.48888888888888865
40
-0.46666666666666645
40
-0.44444444444444425
40
-0.42222222222222205
40
-0.39999999999999986
40
-0.37777777777777766
40
-0.35555555555555546
40
-0.33333333333333326
40
-0.31111111111111106
40
-0.28888888888888886
40
-0.26666666666666666
40
-0.24444444444444446
40
-0.22222222222222224
40
-0.20000000000000001
40
-0.17777777777777778
40
-0.15555555555555556
40
-0.13333333333333333
40
-0.11111111111111112
40
-0.088888888888888892
40
-0.066666666666666666
40
-0.044444444444444446
40
-0.022222222222222223
40
0
40
0
40
0
40
0
40
0
40
0
41
1
41
1
41
1
41
1
41
1
41
1
41
1
41
1
41
1
41
1
41
1
41
1
41
1
41
1
41
1
41
1
41
1
41
1
41
1
41
1
41
1
41
1
41
1
41
1
41
1
41
1
41
1
41
1
41
1
41
1
41
1
41
1
41
1
41
1
41
1
41
1
41
1
41
1
41
1
41
1
41
1
41
1
41
1
41
1
41
1
41
1
41
1
41
1
41
1
41
1
10
-38.023455299744498
20
12.418407589877706
30
0
10
-38.003379784990827
20
12.39419283455126
30
0
10
-37.96316129841405
20
12.345864708271447
30
0
10
-37.902631197397163
20
12.273676671972925
30
0
10
-37.821519327758701
20
12.178034752320832
30
0
10
-37.719452486294557
20
12.05950072134689
30
0
10
-37.616706235685193
20
11.941991265321736
30
0
10
-37.513278257558099
20
11.825515083971966
30
0
10
-37.409166897970906
20
11.710083315559618
30
0
10
-37.304371879168869
20
11.595709523541061
30
0
10
-37.198893999036983
20
11.482409059438872
30
0
10
-37.092734701065865
20
11.370198332415168
30
0
10
-36.98589571552715
20
11.259094026421888
30
0
10
-36.878378712829516
20
11.149112396658374
30
0
10
-36.770184952348316
20
11.040268219967096
30
0
10
-36.661315158132368
20
10.932575567779509
30
0
10
-36.551769485624909
20
10.826049072747782
30
0
10
-36.441547474855597
20
10.720705059686937
30
0
10
-36.330648055932755
20
10.616562519076066
30
0
10
-36.219069510487088
20
10.513644530775588
30
0
10
-36.106809735711778
20
10.411977175712151
30
0
10
-35.993866624846532
20
10.31158741698636
30
0
10
-35.880238483721108
20
10.212501074784793
30
0
10
-35.765924359997776
20
10.114741130123635
30
0
10
-35.650924699552327
20
10.018324758392197
30
0
10
-35.535240619592557
20
9.9232661126759965
30
0
10
-35.418872526068583
20
9.8295818774435055
30
0
10
-35.301818857858819
20
9.7372963230344816
30
0
10
-35.184075032701337
20
9.646445607299821
30
0
10
-35.065631750357753
20
9.5570846848210405
30
0
10
-34.946476434903296
20
9.4692816869548242
30
0
10
-34.826596202520832
20
9.3831062127416232
30
0
10
-34.705980632800426
20
9.2986184836398387
30
0
10
-34.584624094193764
20
9.2158602405533916
30
0
10
-34.462529730075936
20
9.1348392378842149
30
0
10
-34.339705164352992
20
9.0555459255896977
30
0
10
-34.216154695065001
20
8.9779837936125801
30
0
10
-34.091872250801735
20
8.9021968139183301
30
0
10
-33.966834889544756
20
8.8282947484357148
30
0
10
-33.840993848843624
20
8.7564881553442824
30
0
10
-33.714280948476649
20
8.687062894452243
30
0
10
-33.586619736185334
20
8.6203359650801019
30
0
10
-33.45793528212036
20
8.5566166993615695
30
0
10
-33.328164048569121
20
8.4961676860209465
30
0
10
-33.197265184654839
20
8.4391601052362279
30
0
10
-33.065216828956345
20
8.3856881746236382
30
0
10
-32.958651429623799
20
8.3457718851075242
30
0
10
-32.878205632447511
20
8.3174475704225657
30
0
10
-32.82434339721005
20
8.2992809724606627
30
0
10
-32.797354353775901
20
8.290376742582648
30
0
0
LINE
5
134
100
AcDbEntity
8
0
100
AcDbLine
10
-32.797354353775901
20
8.290376742582648
30
0
11
-30.054685568845446
21
7.5970965083927497
31
0
0
ARC
5
135
100
AcDbEntity
8
0
100
AcDbCircle
10
-30.610692561943438
20
5.3974909968425546
30
0
40
2.2687900261628147
210
0
220
0
230
1
100
AcDbArc
50
-95.814169556068308
51
75.814169556068322
0
LINE
5
136
100
AcDbEntity
8
0
100
AcDbLine
10
-30.840526285744222
20
3.1403723375293735
30
0
11
-33.6549077092657
21
3.4269499882411552
31
0
0
SPLINE
5
137
100
AcDbEntity
8
0
100
AcDbSpline
70
4
71
5
72
56
73
50
74
0
42
0.000000001
43
0.0000000001
44
0.0000000001
40
0
40
0
40
0
40
0
40
0
40
0
40
0.022222222222222223
40
0.044444444444444446
40
0.066666666666666666
40
0.088888888888888892
40
0.11111111111111112
40
0.13333333333333333
40
0.15555555555555556
40
0.17777777777777778
40
0.20000000000000001
40
0.22222222222222224
40
0.24444444444444446
40
0.26666666666666666
40
0.28888888888888886
40
0.31111111111111106
40
0.33333333333333326
40
0.35555555555555546
40
0.37777777777777766
40
0.39999999999999986
40
0.42222222222222205
40
0.44444444444444425
40
0.46666666666666645
40
0.48888888888888865
40
0.51111111111111085
40
0.5333333333333331
40
0.55555555555555536
40
0.57777777777777761
40
0.59999999999999987
40
0.62222222222222212
40
0.64444444444444438
40
0.66666666666666663
40
0.68888888888888888
40
0.71111111111111114
40
0.73333333333333339
40
0.75555555555555565
40
0.7777777777777779
40
0.80000000000000016
40
0.82222222222222241
40
0.84444444444444466
40
0.86666666666666692
40
0.88888888888888917
40
0.91111111111111143
40
0.93333333333333368
40
0.95555555555555594
40
0.97777777777777819
40
1
40
1
40
1
40
1
40
1
40
1
41
1
41
1
41
1
41
1
41
1
41
1
41
1
41
1
41
1
41
1
41
1
41
1
41
1
41
1
41
1
41
1
41
1
41
1
41
1
41
1
41
1
41
1
41
1
41
1
41
1
41
1
41
1
41
1
41
1
41
1
41
1
41
1
41
1
41
1
41
1
41
1
41
1
41
1
41
1
41
1
41
1
41
1
41
1
41
1
41
1
41
1
41
1
41
1
41
1
41
1
10
-33.6549077092657
20
3.4269499882411552
30
0
10
-33.683314540201927
20
3.4278135456340459
30
0
10
-33.740141827632272
20
3.4291644969993169
30
0
10
-33.825423635780226
20
3.4300624305803344
30
0
10
-33.939214530225442
20
3.4290009010258498
30
0
10
-34.081587873034252
20
3.4239169199525863
30
0
10
-34.224090310474409
20
3.4151173651585962
30
0
10
-34.366710161239439
20
3.4026982492884494
30
0
10
-34.509427265527819
20
3.3868344009145934
30
0
10
-34.652211518626089
20
3.3677943039010474
30
0
10
-34.79502753374004
20
3.345894262889122
30
0
10
-34.93783873233977
20
3.3214583080137072
30
0
10
-35.080611413063927
20
3.2947783786365958
30
0
10
-35.223319382488597
20
3.2660690124657785
30
0
10
-35.365946658268612
20
3.235441198608239
30
0
10
-35.508483906365441
20
3.2029383337400019
30
0
10
-35.650925894311811
20
3.1685622273181413
30
0
10
-35.793268724286413
20
3.1323012977085565
30
0
10
-35.935506790321227
20
3.0941617565678534
30
0
10
-36.07763110811068
20
3.0541847536183742
30
0
10
-36.219630872685272
20
3.0124304425103055
30
0
10
-36.361494386599112
20
2.9689686314733876
30
0
10
-36.503210165059514
20
2.9238676442603784
30
0
10
-36.644768151858017
20
2.8771823021549023
30
0
10
-36.786160286198992
20
2.8289481496485358
30
0
10
-36.927379734111781
20
2.7791885273354833
30
0
10
-37.068420407703783
20
2.7279189746445209
30
0
10
-37.209276416502732
20
2.67515240901808
30
0
10
-37.349941467193311
20
2.6209048175442176
30
0
10
-37.490408594709812
20
2.5651981210329233
30
0
10
-37.630670560027596
20
2.5080571619633352
30
0
10
-37.770720120930235
20
2.4495079979165917
30
0
10
-37.910550333207503
20
2.3895758561492899
30
0
10
-38.050154917821189
20
2.3282830123529021
30
0
10
-38.189528385014199
20
2.2656476776650374
30
0
10
-38.328665583601726
20
2.2016853497130588
30
0
10
-38.467561362853104
20
2.1364097255275487
30
0
10
-38.606210229672001
20
2.0698337802895259
30
0
10
-38.7446059466549
20
2.001970968957036
30
0
10
-38.882741384525495
20
1.9328359951074487
30
0
10
-39.020609211112664
20
1.8624439447394538
30
0
10
-39.15820245771495
20
1.7908097437186621
30
0
10
-39.295515124035759
20
1.7179475448647956
30
0
10
-39.432542832103863
20
1.6438701886554996
30
0
10
-39.569283326606744
20
1.5685887073151945
30
0
10
-39.705735810620205
20
1.4921120688430902
30
0
10
-39.814667499044972
20
1.4299799559875539
30
0
10
-39.896236950827181
20
1.382847904794545
30
0
10
-39.950559158559436
20
1.3511898536967479
30
0
10
-39.97770590571929
20
1.3353016572359837
30
0
0
ARC
5
138
100
AcDbEntity
8
0
100
AcDbCircle
10
4.4408920985006262e-15
20
-2.2204460492503131e-15
30
0
40
40
210
0
220
0
230
1
100
AcDbArc
50
178.08696584201545
51
181.91303415798416
0
SPLINE
5
139
100
AcDbEntity
8
0
100
AcDbSpline
70
4
71
5
72
56
73
50
74
0
42
0.000000001
43
0.0000000001
44
0.0000000001
40
-1
40
-1
40
-1
40
-1
40
-1
40
-1
40
-0.97777777777777819
40
-0.95555555555555594
40
-0.93333333333333368
40
-0.91111111111111143
40
-0.88888888888888917
40
-0.86666666666666692
40
-0.84444444444444466
40
-0.82222222222222241
40
-0.80000000000000016
40
-0.7777777777777779
40
-0.75555555555555565
40
-0.73333333333333339
40
-0.71111111111111114
40
-0.68888888888888888
40
-0.66666666666666663
40
-0.64444444444444438
40
-0.62222222222222212
40
-0.59999999999999987
40
-0.57777777777777761
40
-0.55555555555555536
40
-0.5333333333333331
40
-0.51111111111111085
40
-0.48888888888888865
40
-0.46666666666666645
40
-0.44444444444444425
40
-0.42222222222222205
40
-0.39999999999999986
40
-0.37777777777777766
40
-0.35555555555555546
40
-0.33333333333333326
40
-0.31111111111111106
40
-0.28888888888888886
40
-0.26666666666666666
40
-0.24444444444444446
40
-0.22222222222222224
40
-0.20000000000000001
40
-0.17777777777777778
40
-0.15555555555555556
40
-0.13333333333333333
40
-0.11111111111111112
40
-0.088888888888888892
40
-0.066666666666666666
40
-0.044444444444444446
40
-0.022222222222222223
40
0
40
0
40
0
40
0
40
0
40
0
41
1
41
1
41
1
41
1
41
1
41
1
41
1
41
1
41
1
41
1
41
1
41
1
41
1
41
1
41
1
41
1
41
1
41
1
41
1
41
1
41
1
41
1
41
1
41
1
41
1
41
1
41
1
41
1
41
1
41
1
41
1
41
1
41
1
41
1
41
1
41
1
41
1
41
1
41
1
41
1
41
1
41
1
41
1
41
1
41
1
41
1
41
1
41
1
41
1
41
1
10
-39.97770590571929
20
-1.3353016572359755
30
0
10
-39.950559158559436
20
-1.3511898536969849
30
0
10
-39.896236950827181
20
-1.3828479047952038
30
0
10
-39.814667499044972
20
-1.4299799559886375
30
0
10
-39.705735810620205
20
-1.492112068844349
30
0
10
-39.569283326606744
20
-1.5685887073162066
30
0
10
-39.432542832103863
20
-1.6438701886560214
30
0
10
-39.295515124035759
20
-1.7179475448648087
30
0
10
-39.15820245771495
20
-1.7908097437183177
30
0
10
-39.020609211112664
20
-1.8624439447389678
30
0
10
-38.882741384525495
20
-1.932835995107016
30
0
10
-38.7446059466549
20
-2.0019709689567815
30
0
10
-38.606210229672001
20
-2.0698337802894855
30
0
10
-38.467561362853104
20
-2.1364097255276757
30
0
10
-38.328665583601726
20
-2.2016853497132645
30
0
10
-38.189528385014199
20
-2.2656476776652319
30
0
10
-38.050154917821189
20
-2.3282830123530216
30
0
10
-37.910550333207503
20
-2.3895758561493095
30
0
10
-37.770720120930235
20
-2.4495079979165189
30
0
10
-37.630670560027596
20
-2.5080571619632086
30
0
10
-37.490408594709812
20
-2.5651981210327834
30
0
10
-37.349941467193311
20
-2.6209048175441096
30
0
10
-37.209276416502732
20
-2.6751524090180432
30
0
10
-37.068420407703783
20
-2.7279189746445667
30
0
10
-36.927379734111781
20
-2.7791885273355952
30
0
10
-36.786160286198992
20
-2.8289481496486744
30
0
10
-36.644768151858017
20
-2.8771823021550134
30
0
10
-36.503210165059514
20
-2.9238676442604108
30
0
10
-36.361494386599112
20
-2.9689686314733144
30
0
10
-36.219630872685272
20
-3.01243044251013
30
0
10
-36.07763110811068
20
-3.0541847536181432
30
0
10
-35.935506790321227
20
-3.0941617565676527
30
0
10
-35.793268724286413
20
-3.1323012977084774
30
0
10
-35.650925894311811
20
-3.1685622273182612
30
0
10
-35.508483906365441
20
-3.2029383337403248
30
0
10
-35.365946658268612
20
-3.2354411986086786
30
0
10
-35.223319382488597
20
-3.2660690124661684
30
0
10
-35.080611413063927
20
-3.2947783786367224
30
0
10
-34.93783873233977
20
-3.3214583080133933
30
0
10
-34.79502753374004
20
-3.3458942628883381
30
0
10
-34.652211518626089
20
-3.3677943039000025
30
0
10
-34.509427265527819
20
-3.3868344009136999
30
0
10
-34.366710161239439
20
-3.4026982492882119
30
0
10
-34.224090310474409
20
-3.4151173651594444
30
0
10
-34.081587873034252
20
-3.423916919954566
30
0
10
-33.939214530225442
20
-3.4290009010284765
30
0
10
-33.825423635780226
20
-3.4300624305826504
30
0
10
-33.740141827632272
20
-3.4291644970007447
30
0
10
-33.683314540201927
20
-3.4278135456345686
30
0
10
-33.6549077092657
20
-3.4269499882411498
30
0
0
LINE
5
140
100
AcDbEntity
8
0
100
AcDbLine
10
-33.6549077092657
20
-3.4269499882411498
30
0
11
-30.840526285744222
21
-3.1403723375293717
31
0
0
ARC
5
141
100
AcDbEntity
8
0
100
AcDbCircle
10
-30.610692561943438
20
-5.3974909968425511
30
0
40
2.268790026162816
210
-0
220
0
230
1
100
AcDbArc
50
-75.814169556068435
51
95.814169556068308
0
LINE
5
142
100
AcDbEntity
8
0
100
AcDbLine
10
-30.05468556884545
20
-7.5970965083927489
30
0
11
-32.797354353775901
21
-8.2903767425826391
31
0
0
SPLINE
5
143
100
AcDbEntity
8
0
100
AcDbSpline
70
4
71
5
72
56
73
50
74
0
42
0.000000001
43
0.0000000001
44
0.0000000001
40
0
40
0
40
0
40
0
40
0
40
0
40
0.022222222222222223
40
0.044444444444444446
40
0.066666666666666666
40
0.088888888888888892
40
0.11111111111111112
40
0.13333333333333333
40
0.15555555555555556
40
0.17777777777777778
40
0.20000000000000001
40
0.22222222222222224
40
0.24444444444444446
40
0.26666666666666666
40
0.28888888888888886
40
0.31111111111111106
40
0.33333333333333326
40
0.35555555555555546
40
0.37777777777777766
40
0.39999999999999986
40
0.42222222222222205
40
0.44444444444444425
40
0.46666666666666645
40
0.48888888888888865
40
0.51111111111111085
40
0.5333333333333331
40
0.55555555555555536
40
0.57777777777777761
40
0.59999999999999987
40
0.62222222222222212
40
0.64444444444444438
40
0.66666666666666663
40
0.68888888888888888
40
0.71111111111111114
40
0.73333333333333339
40
0.75555555555555565
40
0.7777777777777779
40
0.80000000000000016
40
0.82222222222222241
40
0.84444444444444466
40
0.86666666666666692
40
0.88888888888888917
40
0.91111111111111143
40
0.93333333333333368
40
0.95555555555555594
40
0.97777777777777819
40
1
40
1
40
1
40
1
40
1
40
1
41
1
41
1
41
1
41
1
41
1
41
1
41
1
41
1
41
1
41
1
41
1
41
1
41
1
41
1
41
1
41
1
41
1
41
1
41
1
41
1
41
1
41
1
41
1
41
1
41
1
41
1
41
1
41
1
41
1
41
1
41
1
41
1
41
1
41
1
41
1
41
1
41
1
41
1
41
1
41
1
41
1
41
1
41
1
41
1
41
1
41
1
41
1
41
1
41
1
41
1
10
-32.797354353775901
20
-8.2903767425826391
30
0
10
-32.824343397209866
20
-8.2992809724611547
30
0
10
-32.87820563244702
20
-8.3174475704239015
30
0
10
-32.958651429623004
20
-8.3457718851096985
30
0
10
-33.065216828955442
20
-8.3856881746261038
30
0
10
-33.19726518465415
20
-8.4391601052380878
30
0
10
-33.32816404856883
20
-8.4961676860217423
30
0
10
-33.457935282120431
20
-8.5566166993613457
30
0
10
-33.586619736185632
20
-8.6203359650792599
30
0
10
-33.714280948477004
20
-8.6870628944512553
30
0
10
-33.840993848843887
20
-8.7564881553435452
30
0
10
-33.966834889544856
20
-8.8282947484354182
30
0
10
-34.091872250801693
20
-8.9021968139184455
30
0
10
-34.216154695064859
20
-8.9779837936129443
30
0
10
-34.339705164352836
20
-9.0555459255901098
30
0
10
-34.462529730075822
20
-9.1348392378845169
30
0
10
-34.584624094193721
20
-9.2158602405535017
30
0
10
-34.705980632800447
20
-9.2986184836397605
30
0
10
-34.826596202520903
20
-9.3831062127414331
30
0
10
-34.946476434903374
20
-9.4692816869546057
30
0
10
-35.065631750357802
20
-9.5570846848208717
30
0
10
-35.184075032701358
20
-9.6464456072997482
30
0
10
-35.301818857858805
20
-9.7372963230345082
30
0
10
-35.41887252606854
20
-9.8295818774436068
30
0
10
-35.535240619592507
20
-9.9232661126761244
30
0
10
-35.650924699552277
20
-10.018324758392298
30
0
10
-35.765924359997754
20
-10.114741130123674
30
0
10
-35.880238483721115
20
-10.212501074784758
30
0
10
-35.993866624846568
20
-10.311587416986256
30
0
10
-36.106809735711821
20
-10.411977175712018
30
0
10
-36.219069510487124
20
-10.513644530775466
30
0
10
-36.330648055932777
20
-10.616562519075995
30
0
10
-36.441547474855589
20
-10.720705059686953
30
0
10
-36.551769485624867
20
-10.826049072747894
30
0
10
-36.661315158132297
20
-10.932575567779688
30
0
10
-36.770184952348245
20
-11.040268219967286
30
0
10
-36.878378712829473
20
-11.149112396658492
30
0
10
-36.985895715527164
20
-11.259094026421849
30
0
10
-37.092734701065943
20
-11.370198332414924
30
0
10
-37.198893999037125
20
-11.482409059438465
30
0
10
-37.304371879169025
20
-11.595709523540602
30
0
10
-37.409166897971026
20
-11.710083315559295
30
0
10
-37.513278257558092
20
-11.825515083971975
30
0
10
-37.616706235685015
20
-11.941991265322223
30
0
10
-37.719452486294202
20
-12.059500721347838
30
0
10
-37.821519327758267
20
-12.178034752322013
30
0
10
-37.902631197396786
20
-12.273676671973943
30
0
10
-37.963161298413823
20
-12.345864708272066
30
0
10
-38.003379784990742
20
-12.394192834551482
30
0
10
-38.023455299744498
20
-12.418407589877699
30
0
0
ARC
5
144
100
AcDbEntity
8
0
100
AcDbCircle
10
4.4408920985006262e-15
20
-2.2204460492503131e-15
30
0
40
40
210
0
220
0
230
1
100
AcDbArc
50
198.08696584201545
51
201.91303415798427
0
SPLINE
5
145
100
AcDbEntity
8
0
100
AcDbSpline
70
4
71
5
72
56
73
50
74
0
42
0.000000001
43
0.0000000001
44
0.0000000001
40
-1
40
-1
40
-1
40
-1
40
-1
40
-1
40
-0.97777777777777819
40
-0.95555555555555594
40
-0.93333333333333368
40
-0.91111111111111143
40
-0.88888888888888917
40
-0.86666666666666692
40
-0.84444444444444466
40
-0.82222222222222241
40
-0.80000000000000016
40
-0.7777777777777779
40
-0.75555555555555565
40
-0.73333333333333339
40
-0.71111111111111114
40
-0.68888888888888888
40
-0.66666666666666663
40
-0.64444444444444438
40
-0.62222222222222212
40
-0.59999999999999987
40
-0.57777777777777761
40
-0.55555555555555536
40
-0.5333333333333331
40
-0.51111111111111085
40
-0.48888888888888865
40
-0.46666666666666645
40
-0.44444444444444425
40
-0.42222222222222205
40
-0.39999999999999986
40
-0.37777777777777766
40
-0.35555555555555546
40
-0.33333333333333326
40
-0.31111111111111106
40
-0.28888888888888886
40
-0.26666666666666666
40
-0.24444444444444446
40
-0.22222222222222224
40
-0.20000000000000001
40
-0.17777777777777778
40
-0.15555555555555556
40
-0.13333333333333333
40
-0.11111111111111112
40
-0.088888888888888892
40
-0.066666666666666666
40
-0.044444444444444446
40
-0.022222222222222223
40
0
40
0
40
0
40
0
40
0
40
0
41
1
41
1
41
1
41
1
41
1
41
1
41
1
41
1
41
1
41
1
41
1
41
1
41
1
41
1
41
1
41
1
41
1
41
1
41
1
41
1
41
1
41
1
41
1
41
1
41
1
41
1
41
1
41
1
41
1
41
1
41
1
41
1
41
1
41
1
41
1
41
1
41
1
41
1
41
1
41
1
41
1
41
1
41
1
41
1
41
1
41
1
41
1
41
1
41
1
41
1
10
-37.110055171362795
20
-14.927953817533385
30
0
10
-37.079111490147554
20
-14.933599104150957
30
0
10
-37.017237621222733
20
-14.944768651882061
30
0
10
-36.924467298397026
20
-14.961159897001487
30
0
10
-36.800854560470484
20
-14.982288153278089
30
0
10
-36.646474617303923
20
-15.007483187973179
30
0
10
-36.492232800619341
20
-15.031456636941737
30
0
10
-36.338132926516813
20
-15.054200345585421
30
0
10
-36.184180887539824
20
-15.075704718366831
30
0
10
-36.030385189337572
20
-15.095959186538273
30
0
10
-35.876756310893953
20
-15.114952503021774
30
0
10
-35.723305905593001
20
-15.132673025527769
30
0
10
-35.570046023137309
20
-15.149109085604751
30
0
10
-35.416988391774858
20
-15.164249304765583
30
0
10
-35.2641434746144
20
-15.178083172803085
30
0
10
-35.111520871251301
20
-15.190600375785001
30
0
10
-34.959130106449507
20
-15.201789804366424
30
0
10
-34.806981321240109
20
-15.211638657350283
30
0
10
-34.655085902883194
20
-15.220131699472496
30
0
10
-34.503457370479829
20
-15.227250145987735
30
0
10
-34.352110877683032
20
-15.232972666088918
30
0
10
-34.201062142167785
20
-15.237277250643233
30
0
10
-34.05032646302039
20
-15.240143031248595
30
0
10
-33.899917882620279
20
-15.241551791274354
30
0
10
-33.749847782655571
20
-15.241490660212422
30
0
10
-33.600126116385105
20
-15.239949514297614
30
0
10
-33.450763919354308
20
-15.236915833425257
30
0
10
-33.301775596348357
20
-15.232370021966851
30
0
10
-33.153180878969494
20
-15.226281435980438
30
0
10
-33.005007966945904
20
-15.218601999736233
30
0
10
-32.857291020552196
20
-15.209271437938416
30
0
10
-32.71006490761269
20
-15.198228153070797
30
0
10
-32.563360355237556
20
-15.185419314709396
30
0
10
-32.417199879946381
20
-15.170809327577253
30
0
10
-32.271590874137644
20
-15.154394271980408
30
0
10
-32.126533039413154
20
-15.136186364228276
30
0
10
-31.982031911554586
20
-15.116185693596535
30
0
10
-31.838111104226442
20
-15.094354672978101
30
0
10
-31.694823596430801
20
-15.070594473012182
30
0
10
-31.552267378152415
20
-15.044712452876436
30
0
10
-31.410573967454141
20
-15.016445805851532
30
0
10
-31.269888561743713
20
-14.985502553805032
30
0
10
-31.130352596289242
20
-14.951597570596093
30
0
10
-30.992086187157494
20
-14.914488860337233
30
0
10
-30.855168073258746
20
-14.874019032966871
30
0
10
-30.719642069689126
20
-14.830101861353018
30
0
10
-30.61235054137606
20
-14.792180594814511
30
0
10
-30.532518966944533
20
-14.762168717007802
30
0
10
-30.479580836866841
20
-14.741463160986232
30
0
10
-30.453182501479624
20
-14.730935974087773
30
0
0
LINE
5
146
100
AcDbEntity
8
0
100
AcDbLine
10
-30.453182501479624
20
-14.730935974087771
30
0
11
-27.906544374889922
21
-13.49906593258584
31
0
0
ARC
5
147
100
AcDbEntity
8
0
100
AcDbCircle
10
-26.918591273265243
20
-15.541455917825196
30
0
40
2.2687900261628133
210
-0
220
0
230
1
100
AcDbArc
50
-55.814169556068443
51
115.81416955606841
0
LINE
5
148
100
AcDbEntity
8
0
100
AcDbLine
10
-25.643806212425375
20
-17.418243394199479
30
0
11
-27.983956025821893
21
-19.007761685321203
31
0
0
SPLINE
5
149
100
AcDbEntity
8
0
100
AcDbSpline
70
4
71
5
72
56
73
50
74
0
42
0.000000001
43
0.0000000001
44
0.0000000001
40
0
40
0
40
0
40
0
40
0
40
0
40
0.022222222222222223
40
0.044444444444444446
40
0.066666666666666666
40
0.088888888888888892
40
0.11111111111111112
40
0.13333333333333333
40
0.15555555555555556
40
0.17777777777777778
40
0.20000000000000001
40
0.22222222222222224
40
0.24444444444444446
40
0.26666666666666666
40
0.28888888888888886
40
0.31111111111111106
40
0.33333333333333326
40
0.35555555555555546
40
0.37777777777777766
40
0.39999999999999986
40
0.42222222222222205
40
0.44444444444444425
40
0.46666666666666645
40
0.48888888888888865
40
0.51111111111111085
40
0.5333333333333331
40
0.55555555555555536
40
0.57777777777777761
40
0.59999999999999987
40
0.62222222222222212
40
0.64444444444444438
40
0.66666666666666663
40
0.68888888888888888
40
0.71111111111111114
40
0.73333333333333339
40
0.75555555555555565
40
0.7777777777777779
40
0.80000000000000016
40
0.82222222222222241
40
0.84444444444444466
40
0.86666666666666692
40
0.88888888888888917
40
0.91111111111111143
40
0.93333333333333368
40
0.95555555555555594
40
0.97777777777777819
40
1
40
1
40
1
40
1
40
1
40
1
41
1
41
1
41
1
41
1
41
1
41
1
41
1
41
1
41
1
41
1
41
1
41
1
41
1
41
1
41
1
41
1
41
1
41
1
41
1
41
1
41
1
41
1
41
1
41
1
41
1
41
1
41
1
41
1
41
1
41
1
41
1
41
1
41
1
41
1
41
1
41
1
41
1
41
1
41
1
41
1
41
1
41
1
41
1
41
1
41
1
41
1
41
1
41
1
41
1
41
1
10
-27.983956025821893
20
-19.007761685321203
30
0
10
-28.006272004799612
20
-19.025359720935334
30
0
10
-28.050672607352038
20
-19.060852708401367
30
0
10
-28.116579443163111
20
-19.114982940980504
30
0
10
-28.203065987485477
20
-19.188939496841463
30
0
10
-28.30886237555066
20
-19.28434987299871
30
0
10
-28.412369331090265
20
-19.382689524187231
30
0
10
-28.513639621442685
20
-19.483877391855113
30
0
10
-28.612770180944167
20
-19.587766591075301
30
0
10
-28.709910526147461
20
-19.694132100338891
30
0
10
-28.805236865899797
20
-19.802708870040203
30
0
10
-28.898929461977506
20
-19.913225166469214
30
0
10
-28.991150152644529
20
-20.025435688282577
30
0
10
-29.082016774754536
20
-20.139159253252899
30
0
10
-29.171588427543604
20
-20.254300565538092
30
0
10
-29.259885855569028
20
-20.370820381551308
30
0
10
-29.346906213624933
20
-20.488713951802886
30
0
10
-29.43263907127605
20
-20.607987642868029
30
0
10
-29.517084126877631
20
-20.728633092894924
30
0
10
-29.60026094858399
20
-20.850613004367137
30
0
10
-29.6821999253293
20
-20.973874351614693
30
0
10
-29.762936968215254
20
-21.098356139457817
30
0
10
-29.842507197041979
20
-21.223998646582956
30
0
10
-29.9209381467487
20
-21.35075341344421
30
0
10
-29.998246489966512
20
-21.478588030001777
30
0
10
-30.074441994614926
20
-21.60748022353151
30
0
10
-30.149529985649913
20
-21.737414176918399
30
0
10
-30.22351425387988
20
-21.868376208504866
30
0
10
-30.296400254647704
20
-22.00035002620584
30
0
10
-30.36819674282858
20
-22.133314360648701
30
0
10
-30.438914141445679
20
-22.267245528234998
30
0
10
-30.508563652129649
20
-22.402118912492526
30
0
10
-30.577156171074797
20
-22.537910724569254
30
0
10
-30.644701206797276
20
-22.674599864207543
30
0
10
-30.711206259792775
20
-22.812168852118809
30
0
10
-30.776677345707654
20
-22.950602505313928
30
0
10
-30.841119323134851
20
-23.089887020432908
30
0
10
-30.904536324404042
20
-23.230008927016151
30
0
10
-30.966932220067235
20
-23.370953908642132
30
0
10
-31.028311000059293
20
-23.512706119106632
30
0
10
-31.088676744704308
20
-23.655249288835421
30
0
10
-31.148033709828731
20
-23.79856750455717
30
0
10
-31.206386396195853
20
-23.942646067666633
30
0
10
-31.263739703785085
20
-24.087472327681635
30
0
10
-31.320098996303962
20
-24.233036383741002
30
0
10
-31.375469427791902
20
-24.379330853705778
30
0
10
-31.418978190082079
20
-24.496946753119676
30
0
10
-31.451168116822124
20
-24.585483831963412
30
0
10
-31.472431939200884
20
-24.644652948147968
30
0
10
-31.483014818186206
20
-24.674273605475566
30
0
0
ARC
5
150
100
AcDbEntity
8
0
100
AcDbCircle
10
4.4408920985006262e-15
20
-2.2204460492503131e-15
30
0
40
40.000000000000007
210
0
220
0
230
1
100
AcDbArc
50
218.08696584201547
51
221.91303415798427
0
SPLINE
5
151
100
AcDbEntity
8
0
100
AcDbSpline
70
4
71
5
72
56
73
50
74
0
42
0.000000001
43
0.0000000001
44
0.0000000001
40
-1
40
-1
40
-1
40
-1
40
-1
40
-1
40
-0.97777777777777819
40
-0.95555555555555594
40
-0.93333333333333368
40
-0.91111111111111143
40
-0.88888888888888917
40
-0.86666666666666692
40
-0.84444444444444466
40
-0.82222222222222241
40
-0.80000000000000016
40
-0.7777777777777779
40
-0.75555555555555565
40
-0.73333333333333339
40
-0.71111111111111114
40
-0.68888888888888888
40
-0.66666666666666663
40
-0.64444444444444438
40
-0.62222222222222212
40
-0.59999999999999987
40
-0.57777777777777761
40
-0.55555555555555536
40
-0.5333333333333331
40
-0.51111111111111085
40
-0.48888888888888865
40
-0.46666666666666645
40
-0.44444444444444425
40
-0.42222222222222205
40
-0.39999999999999986
40
-0.37777777777777766
40
-0.35555555555555546
40
-0.33333333333333326
40
-0.31111111111111106
40
-0.28888888888888886
40
-0.26666666666666666
40
-0.24444444444444446
40
-0.22222222222222224
40
-0.20000000000000001
40
-0.17777777777777778
40
-0.15555555555555556
40
-0.13333333333333333
40
-0.11111111111111112
40
-0.088888888888888892
40
-0.066666666666666666
40
-0.044444444444444446
40
-0.022222222222222223
40
0
40
0
40
0
40
0
40
0
40
0
41
1
41
1
41
1
41
1
41
1
41
1
41
1
41
1
41
1
41
1
41
1
41
1
41
1
41
1
41
1
41
1
41
1
41
1
41
1
41
1
41
1
41
1
41
1
41
1
41
1
41
1
41
1
41
1
41
1
41
1
41
1
41
1
41
1
41
1
41
1
41
1
41
1
41
1
41
1
41
1
41
1
41
1
41
1
41
1
41
1
41
1
41
1
41
1
41
1
41
1
10
-29.766384097255827
20
-26.720074434301932
30
0
10
-29.735375746619859
20
-26.714795906194428
30
0
10
-29.673413118255851
20
-26.704129738257084
30
0
10
-29.580631394463577
20
-26.687803151232078
30
0
10
-29.457247127558919
20
-26.665379171402765
30
0
10
-29.303560224790441
20
-26.636253709297748
30
0
10
-29.150420925383088
20
-26.606027574139016
30
0
10
-28.997835604334842
20
-26.57469440829378
30
0
10
-28.845813080692384
20
-26.542247210274908
30
0
10
-28.694364961876136
20
-26.508678957811547
30
0
10
-28.543504941637131
20
-26.473982666131096
30
0
10
-28.393247952471921
20
-26.438151380752043
30
0
10
-28.243609308242551
20
-26.4011782581576
30
0
10
-28.094603921568915
20
-26.363056617364443
30
0
10
-27.946245219259662
20
-26.323780160602396
30
0
10
-27.798545749556315
20
-26.2833424792004
30
0
10
-27.651518262429001
20
-26.24173639145015
30
0
10
-27.505176665597048
20
-26.198953336598144
30
0
10
-27.35953687035196
20
-26.154982892851471
30
0
10
-27.214618005254522
20
-26.109812032128438
30
0
10
-27.070441605646359
20
-26.063425892881625
30
0
10
-26.92702996887741
20
-26.015809169052773
30
0
10
-26.784404608800067
20
-25.966947483354133
30
0
10
-26.642584951389271
20
-25.916828520528945
30
0
10
-26.501586093906397
20
-25.865444079022325
30
0
10
-26.361420851886944
20
-25.812788049821837
30
0
10
-26.222103877479501
20
-25.758852442256355
30
0
10
-26.083655408854078
20
-25.703623769185061
30
0
10
-25.946104468497111
20
-25.647079983327252
30
0
10
-25.809493998353084
20
-25.589185553149491
30
0
10
-25.673876713945283
20
-25.529895521903082
30
0
10
-25.539306447902248
20
-25.469163932354896
30
0
10
-25.405830143331841
20
-25.406951649435978
30
0
10
-25.273481133143086
20
-25.343232925630488
30
0
10
-25.142267704532575
20
-25.278006605980128
30
0
10
-25.012185398873839
20
-25.21128406800252
30
0
10
-24.883239387565975
20
-25.143067288938195
30
0
10
-24.755464715743027
20
-25.073329024808913
30
0
10
-24.628944969014452
20
-25.0019945262795
30
0
10
-24.503838114887493
20
-24.928916284739365
30
0
10
-24.380357625107138
20
-24.853892324480384
30
0
10
-24.258739803008673
20
-24.776697936244251
30
0
10
-24.139215073153451
20
-24.697113562811115
30
0
10
-24.021979075191148
20
-24.614952884545616
30
0
10
-23.90715963006614
20
-24.530094933461683
30
0
10
-23.794827401916994
20
-24.442473668205118
30
0
10
-23.706976181504956
20
-24.37014346997676
30
0
10
-23.642223706854853
20
-24.314637523336884
30
0
10
-23.599559853900779
20
-24.27707475829758
30
0
10
-23.578354042908206
20
-24.25815367599877
30
0
0
LINE
5
152
100
AcDbEntity
8
0
100
AcDbLine
10
-23.578354042908206
20
-24.25815367599877
30
0
11
-21.606621355692898
21
-22.229572951177346
31
0
0
ARC
5
153
100
AcDbEntity
8
0
100
AcDbCircle
10
-19.979710600935164
20
-23.8108918876571
30
0
40
2.2687900261628116
210
0
220
0
230
1
100
AcDbArc
50
-35.814169556068471
51
135.81416955606829
0
LINE
5
154
100
AcDbEntity
8
0
100
AcDbLine
10
-18.139905364514473
20
-25.138493060771548
30
0
11
-19.795279601948486
21
-27.432530044124256
31
0
0
SPLINE
5
155
100
AcDbEntity
8
0
100
AcDbSpline
70
4
71
5
72
56
73
50
74
0
42
0.000000001
43
0.0000000001
44
0.0000000001
40
0
40
0
40
0
40
0
40
0
40
0
40
0.022222222222222223
40
0.044444444444444446
40
0.066666666666666666
40
0.088888888888888892
40
0.11111111111111112
40
0.13333333333333333
40
0.15555555555555556
40
0.17777777777777778
40
0.20000000000000001
40
0.22222222222222224
40
0.24444444444444446
40
0.26666666666666666
40
0.28888888888888886
40
0.31111111111111106
40
0.33333333333333326
40
0.35555555555555546
40
0.37777777777777766
40
0.39999999999999986
40
0.42222222222222205
40
0.44444444444444425
40
0.46666666666666645
40
0.48888888888888865
40
0.51111111111111085
40
0.5333333333333331
40
0.55555555555555536
40
0.57777777777777761
40
0.59999999999999987
40
0.62222222222222212
40
0.64444444444444438
40
0.66666666666666663
40
0.68888888888888888
40
0.71111111111111114
40
0.73333333333333339
40
0.75555555555555565
40
0.7777777777777779
40
0.80000000000000016
40
0.82222222222222241
40
0.84444444444444466
40
0.86666666666666692
40
0.88888888888888917
40
0.91111111111111143
40
0.93333333333333368
40
0.95555555555555594
40
0.97777777777777819
40
1
40
1
40
1
40
1
40
1
40
1
41
1
41
1
41
1
41
1
41
1
41
1
41
1
41
1
41
1
41
1
41
1
41
1
41
1
41
1
41
1
41
1
41
1
41
1
41
1
41
1
41
1
41
1
41
1
41
1
41
1
41
1
41
1
41
1
41
1
41
1
41
1
41
1
41
1
41
1
41
1
41
1
41
1
41
1
41
1
41
1
41
1
41
1
41
1
41
1
41
1
41
1
41
1
41
1
41
1
41
1
10
-19.795279601948486
20
-27.432530044124256
30
0
10
-19.810230880056469
20
-27.456699302659597
30
0
10
-19.839814481973242
20
-27.505237701519803
30
0
10
-19.88323301933929
20
-27.578644947066088
30
0
10
-19.939209155000849
20
-27.677721517152243
30
0
10
-20.005992969643444
20
-27.803562439383008
30
0
10
-20.069623550369936
20
-27.931372947704386
30
0
10
-20.130178205916359
20
-28.061094919485924
30
0
10
-20.187798262367007
20
-28.192623481541141
30
0
10
-20.242701181211892
20
-28.325798320491401
30
0
10
-20.295143196908615
20
-28.460430638153305
30
0
10
-20.345386638520644
20
-28.596326741523285
30
0
10
-20.39366748227097
20
-28.733311474685369
30
0
10
-20.440158426552827
20
-28.871254884615031
30
0
10
-20.484947599579826
20
-29.010087635641867
30
0
10
-20.528067916956573
20
-29.149779945913359
30
0
10
-20.569518329485234
20
-29.290326379251404
30
0
10
-20.60928685826579
20
-29.431729350860778
30
0
10
-20.647376079766669
20
-29.573980900002439
30
0
10
-20.683817138539979
20
-29.717052671178376
30
0
10
-20.71865672669017
20
-29.860905230185423
30
0
10
-20.751949451194637
20
-30.005493542623391
30
0
10
-20.783748739762618
20
-30.150773500493699
30
0
10
-20.814097040914163
20
-30.296708984222516
30
0
10
-20.843021106684123
20
-30.443275240710285
30
0
10
-20.870537733634691
20
-30.590454681267705
30
0
10
-20.896657335359659
20
-30.738234263910726
30
0
10
-20.921388153456174
20
-30.886602428619518
30
0
10
-20.944740886490976
20
-31.035545731679115
30
0
10
-20.966731035909536
20
-31.18504718076068
30
0
10
-20.987376496417561
20
-31.335088085445406
30
0
10
-21.006696213434061
20
-31.485649144999321
30
0
10
-21.024708562298997
20
-31.636711731931655
30
0
10
-21.041429694807977
20
-31.788259270590082
30
0
10
-21.056872637390253
20
-31.940277901136675
30
0
10
-21.071048235792411
20
-32.092755413700857
30
0
10
-21.083965776625565
20
-32.245680499103749
30
0
10
-21.095633750177921
20
-32.399041912593852
30
0
10
-21.106060690083201
20
-32.552827524942245
30
0
10
-21.115255765374783
20
-32.707023810225863
30
0
10
-21.123228374825214
20
-32.861616875598891
30
0
10
-21.129987960262547
20
-33.016593223056049
30
0
10
-21.13554377823991
20
-33.171940579778173
30
0
10
-21.139904759951524
20
-33.327648734092165
30
0
10
-21.143079331927733
20
-33.48371021672785
30
0
10
-21.145074862221588
20
-33.64011985352905
30
0
10
-21.145732718310271
20
-33.765523519409804
30
0
10
-21.145699890535763
20
-33.859730762422473
30
0
10
-21.14544431791689
20
-33.922604199857155
30
0
10
-21.145258109741476
20
-33.95405807075808
30
0
0
ARC
5
156
100
AcDbEntity
8
0
100
AcDbCircle
10
4.4408920985006262e-15
20
-2.2204460492503131e-15
30
0
40
39.999999999999993
210
0
220
0
230
1
100
AcDbArc
50
238.08696584201547
51
241.91303415798419
0
SPLINE
5
157
100
AcDbEntity
8
0
100
AcDbSpline
70
4
71
5
72
56
73
50
74
0
42
0.000000001
43
0.0000000001
44
0.0000000001
40
-1
40
-1
40
-1
40
-1
40
-1
40
-1
40
-0.97777777777777819
40
-0.95555555555555594
40
-0.93333333333333368
40
-0.91111111111111143
40
-0.88888888888888917
40
-0.86666666666666692
40
-0.84444444444444466
40
-0.82222222222222241
40
-0.80000000000000016
40
-0.7777777777777779
40
-0.75555555555555565
40
-0.73333333333333339
40
-0.71111111111111114
40
-0.68888888888888888
40
-0.66666666666666663
40
-0.64444444444444438
40
-0.62222222222222212
40
-0.59999999999999987
40
-0.57777777777777761
40
-0.55555555555555536
40
-0.5333333333333331
40
-0.51111111111111085
40
-0.48888888888888865
40
-0.46666666666666645
40
-0.44444444444444425
40
-0.42222222222222205
40
-0.39999999999999986
40
-0.37777777777777766
40
-0.35555555555555546
40
-0.33333333333333326
40
-0.31111111111111106
40
-0.28888888888888886
40
-0.26666666666666666
40
-0.24444444444444446
40
-0.22222222222222224
40
-0.20000000000000001
40
-0.17777777777777778
40
-0.15555555555555556
40
-0.13333333333333333
40
-0.11111111111111112
40
-0.088888888888888892
40
-0.066666666666666666
40
-0.044444444444444446
40
-0.022222222222222223
40
0
40
0
40
0
40
0
40
0
40
0
41
1
41
1
41
1
41
1
41
1
41
1
41
1
41
1
41
1
41
1
41
1
41
1
41
1
41
1
41
1
41
1
41
1
41
1
41
1
41
1
41
1
41
1
41
1
41
1
41
1
41
1
41
1
41
1
41
1
41
1
41
1
41
1
41
1
41
1
41
1
41
1
41
1
41
1
41
1
41
1
41
1
41
1
41
1
41
1
41
1
41
1
41
1
41
1
41
1
41
1
10
-18.832447795977842
20
-35.289359727994061
30
0
10
-18.805114840642364
20
-35.27379405355402
30
0
10
-18.750537060290874
20
-35.242578667217344
30
0
10
-18.668934780733785
20
-35.195503475397899
30
0
10
-18.560660948397555
20
-35.132231922372775
30
0
10
-18.426203994678158
20
-35.052298924043555
30
0
10
-18.292638072151913
20
-34.971518922747926
30
0
10
-18.15997134579586
20
-34.88988812464298
30
0
10
-18.02821449745273
20
-34.807402966774539
30
0
10
-17.897380836287901
20
-34.72406082033811
30
0
10
-17.76748561915111
20
-34.639859805333096
30
0
10
-17.638545256571941
20
-34.554798493899156
30
0
10
-17.510576479494141
20
-34.468875692883358
30
0
10
-17.383595586227461
20
-34.382090224631362
30
0
10
-17.257617347809166
20
-34.294440763414023
30
0
10
-17.132655747623808
20
-34.205925578801811
30
0
10
-17.008725223013133
20
-34.116542282943044
30
0
10
-16.885841770908513
20
-34.026287588080962
30
0
10
-16.764023907496266
20
-33.935157142915877
30
0
10
-16.64329406361017
20
-33.843145247408678
30
0
10
-16.523677558800419
20
-33.750245301793534
30
0
10
-16.405200580702449
20
-33.65645054922328
30
0
10
-16.287888263046614
20
-33.561754837637579
30
0
10
-16.171763072344113
20
-33.466153238555272
30
0
10
-16.056842000477015
20
-33.369643208603243
30
0
10
-15.943139179514773
20
-33.272223390358889
30
0
10
-15.830671110943783
20
-33.173891286377476
30
0
10
-15.719461425296895
20
-33.074641144754096
30
0
10
-15.609544935404557
20
-32.974462174096743
30
0
10
-15.500974145995281
20
-32.873335672695646
30
0
10
-15.393813969570921
20
-32.771237424796638
30
0
10
-15.288130710554757
20
-32.668142656570197
30
0
10
-15.183981866020716
20
-32.564030648569293
30
0
10
-15.081407564826501
20
-32.458888606569609
30
0
10
-14.980415989408609
20
-32.35271827965353
30
0
10
-14.880999058688431
20
-32.245528834250329
30
0
10
-14.783160955935452
20
-32.137323897081004
30
0
10
-14.686943930792872
20
-32.02808985332203
30
0
10
-14.59245209381942
20
-31.917785049536839
30
0
10
-14.499884336832123
20
-31.806324901042039
30
0
10
-14.409510337415128
20
-31.693592624391933
30
0
10
-14.321629003161608
20
-31.579457882455291
30
0
10
-14.236531955323306
20
-31.463793168774256
30
0
10
-14.154466760103759
20
-31.346490312863406
30
0
10
-14.075594903389113
20
-31.227479359336591
30
0
10
-14.000005375222347
20
-31.106722418179409
30
0
10
-13.942190616438952
20
-31.008707377647582
30
0
10
-13.90032734565782
20
-30.934402198519834
30
0
10
-13.873083660145031
20
-30.884512848293909
30
0
10
-13.859628107317244
20
-30.859480032365415
30
0
0
LINE
5
158
100
AcDbEntity
8
0
100
AcDbLine
10
-13.859628107317244
20
-30.859480032365415
30
0
11
-12.700620921229767
21
-28.278865398300912
31
0
0
ARC
5
159
100
AcDbEntity
8
0
100
AcDbCircle
10
-10.630981961008281
20
-29.208382884499656
30
0
40
2.2687900261628147
210
0
220
0
230
1
100
AcDbArc
50
-15.814169556068238
51
155.81416955606818
0
LINE
5
160
100
AcDbEntity
8
0
100
AcDbLine
10
-8.4480642131525503
20
-29.826669459570091
30
0
11
-9.2190003108676954
21
-32.548530418581414
31
0
0
SPLINE
5
161
100
AcDbEntity
8
0
100
AcDbSpline
70
4
71
5
72
56
73
50
74
0
42
0.000000001
43
0.0000000001
44
0.0000000001
40
0
40
0
40
0
40
0
40
0
40
0
40
0.022222222222222223
40
0.044444444444444446
40
0.066666666666666666
40
0.088888888888888892
40
0.11111111111111112
40
0.13333333333333333
40
0.15555555555555556
40
0.17777777777777778
40
0.20000000000000001
40
0.22222222222222224
40
0.24444444444444446
40
0.26666666666666666
40
0.28888888888888886
40
0.31111111111111106
40
0.33333333333333326
40
0.35555555555555546
40
0.37777777777777766
40
0.39999999999999986
40
0.42222222222222205
40
0.44444444444444425
40
0.46666666666666645
40
0.48888888888888865
40
0.51111111111111085
40
0.5333333333333331
40
0.55555555555555536
40
0.57777777777777761
40
0.59999999999999987
40
0.62222222222222212
40
0.64444444444444438
40
0.66666666666666663
40
0.68888888888888888
40
0.71111111111111114
40
0.73333333333333339
40
0.75555555555555565
40
0.7777777777777779
40
0.80000000000000016
40
0.82222222222222241
40
0.84444444444444466
40
0.86666666666666692
40
0.88888888888888917
40
0.91111111111111143
40
0.93333333333333368
40
0.95555555555555594
40
0.97777777777777819
40
1
40
1
40
1
40
1
40
1
40
1
41
1
41
1
41
1
41
1
41
1
41
1
41
1
41
1
41
1
41
1
41
1
41
1
41
1
41
1
41
1
41
1
41
1
41
1
41
1
41
1
41
1
41
1
41
1
41
1
41
1
41
1
41
1
41
1
41
1
41
1
41
1
41
1
41
1
41
1
41
1
41
1
41
1
41
1
41
1
41
1
41
1
41
1
41
1
41
1
41
1
41
1
41
1
41
1
41
1
41
1
10
-9.2190003108676954
20
-32.548530418581414
30
0
10
-9.2247835433087548
20
-32.57635573075833
30
0
10
-9.2359819255912505
20
-32.632085093759692
30
0
10
-9.2516752481165572
20
-32.715915355084682
30
0
10
-9.2703894270367542
20
-32.828161842829203
30
0
10
-9.2901055545867326
20
-32.96925503869825
30
0
10
-9.3061849733771336
20
-33.111120570566712
30
0
10
-9.3187202089671359
20
-33.253730262172645
30
0
10
-9.3278799331775293
20
-33.397033901324193
30
0
10
-9.3339233233705343
20
-33.540955218932432
30
0
10
-9.3371557339568945
20
-33.685404440083509
30
0
10
-9.3378899205306016
20
-33.830289274715156
30
0
10
-9.3364075350585765
20
-33.975525838727258
30
0
10
-9.3329153074986309
20
-34.121051082550842
30
0
10
-9.3275197654787121
20
-34.266829993592296
30
0
10
-9.3202620255430357
20
-34.412845843864396
30
0
10
-9.3111429610505585
20
-34.559093166183899
30
0
10
-9.3001504894686526
20
-34.705570133075796
30
0
10
-9.2872897546187723
20
-34.852270145096483
30
0
10
-9.2725997209582278
20
-34.999177208857866
30
0
10
-9.2561377520048289
20
-35.146270237970491
30
0
10
-9.2379705642042875
20
-35.293525590627056
30
0
10
-9.2181634490047095
20
-35.440920092219542
30
0
10
-9.1967686485889679
20
-35.588434319699878
30
0
10
-9.1738197677054742
20
-35.736054162497851
30
0
10
-9.1493386056458075
20
-35.883768837414529
30
0
10
-9.1233394086084481
20
-36.031569650652585
30
0
10
-9.095833874921075
20
-36.179448558138915
30
0
10
-9.0668366559692206
20
-36.327396586039107
30
0
10
-9.036368130065549
20
-36.475403068593742
30
0
10
-9.0044515052326801
20
-36.623456562903996
30
0
10
-8.9711111855808632
20
-36.771545411927519
30
0
10
-8.9363708092585235
20
-36.91965839628508
30
0
10
-8.9002512231957898
20
-37.067785464197954
30
0
10
-8.8627694085758542
20
-37.21591804697993
30
0
10
-8.8239397330884408
20
-37.364048380569521
30
0
10
-8.7837747912604698
20
-37.512169014022838
30
0
10
-8.7422864072846345
20
-37.660272284579477
30
0
10
-8.6994867485941825
20
-37.808349713167161
30
0
10
-8.6553890574002654
20
-37.956391725569887
30
0
10
-8.6100069172932017
20
-38.104388481352515
30
0
10
-8.5633538172788555
20
-38.252330525834459
30
0
10
-8.5154426532232446
20
-38.400209492265745
30
0
10
-8.4662853103015863
20
-38.548018839460838
30
0
10
-8.4158922615031084
20
-38.695754430644811
30
0
10
-8.364272200198533
20
-38.843413923723809
30
0
10
-8.3219998029325133
20
-38.961479823205195
30
0
10
-8.2897481801575417
20
-39.049994446528643
30
0
10
-8.2680040383707247
20
-39.108988740745723
30
0
10
-8.2570712024886763
20
-39.138482024179638
30
0
0
ARC
5
162
100
AcDbEntity
8
0
100
AcDbCircle
10
4.4408920985006262e-15
20
-2.2204460492503131e-15
30
0
40
39.999999999999993
210
0
220
0
230
1
100
AcDbArc
50
258.08696584201545
51
261.91303415798433
0
SPLINE
5
163
100
AcDbEntity
8
0
100
AcDbSpline
70
4
71
5
72
56
73
50
74
0
42
0.000000001
43
0.0000000001
44
0.0000000001
40
-1
40
-1
40
-1
40
-1
40
-1
40
-1
40
-0.97777777777777819
40
-0.95555555555555594
40
-0.93333333333333368
40
-0.91111111111111143
40
-0.88888888888888917
40
-0.86666666666666692
40
-0.84444444444444466
40
-0.82222222222222241
40
-0.80000000000000016
40
-0.7777777777777779
40
-0.75555555555555565
40
-0.73333333333333339
40
-0.71111111111111114
40
-0.68888888888888888
40
-0.66666666666666663
40
-0.64444444444444438
40
-0.62222222222222212
40
-0.59999999999999987
40
-0.57777777777777761
40
-0.55555555555555536
40
-0.5333333333333331
40
-0.51111111111111085
40
-0.48888888888888865
40
-0.46666666666666645
40
-0.44444444444444425
40
-0.42222222222222205
40
-0.39999999999999986
40
-0.37777777777777766
40
-0.35555555555555546
40
-0.33333333333333326
40
-0.31111111111111106
40
-0.28888888888888886
40
-0.26666666666666666
40
-0.24444444444444446
40
-0.22222222222222224
40
-0.20000000000000001
40
-0.17777777777777778
40
-0.15555555555555556
40
-0.13333333333333333
40
-0.11111111111111112
40
-0.088888888888888892
40
-0.066666666666666666
40
-0.044444444444444446
40
-0.022222222222222223
40
0
40
0
40
0
40
0
40
0
40
0
41
1
41
1
41
1
41
1
41
1
41
1
41
1
41
1
41
1
41
1
41
1
41
1
41
1
41
1
41
1
41
1
41
1
41
1
41
1
41
1
41
1
41
1
41
1
41
1
41
1
41
1
41
1
41
1
41
1
41
1
41
1
41
1
41
1
41
1
41
1
41
1
41
1
41
1
41
1
41
1
41
1
41
1
41
1
41
1
41
1
41
1
41
1
41
1
41
1
41
1
10
-5.6270403531765911
20
-39.602227423008955
30
0
10
-5.6066795509465139
20
-39.578252052298737
30
0
10
-5.5660695044001809
20
-39.530252483844961
30
0
10
-5.5054891083142463
20
-39.458106650120335
30
0
10
-5.4253851326777705
20
-39.361619006982899
30
0
10
-5.3263756209993112
20
-39.240519571713406
30
0
10
-5.2284930968339172
20
-39.118928964622974
30
0
10
-5.1317465303209531
20
-38.996846413252044
30
0
10
-5.0361471777113049
20
-38.874272222924255
30
0
10
-4.9417084446335702
20
-38.751208475374064
30
0
10
-4.8484453108349275
20
-38.627658622128727
30
0
10
-4.7563736855259311
20
-38.503626934170093
30
0
10
-4.66550969873329
20
-38.379118012620935
30
0
10
-4.5758690686399186
20
-38.254136325198388
30
0
10
-4.4874661289066085
20
-38.128685678116859
30
0
10
-4.4003146114583966
20
-38.002769227903656
30
0
10
-4.3144288996521585
20
-37.876389668573879
30
0
10
-4.2298251501652926
20
-37.749549381919522
30
0
10
-4.1465222507535913
20
-37.622250611965079
30
0
10
-4.0645432290342303
20
-37.494495674222833
30
0
10
-3.9839141348545444
20
-37.366287026737723
30
0
10
-3.9046618875201426
20
-37.237627276849153
30
0
10
-3.8268122091405292
20
-37.108519239753484
30
0
10
-3.7503878969703273
20
-36.978965968192711
30
0
10
-3.6754057880405671
20
-36.848970883743846
30
0
10
-3.6018796264185005
20
-36.718537544299281
30
0
10
-3.5298257726055366
20
-36.587669246869382
30
0
10
-3.4592683993063562
20
-36.456368668549779
30
0
10
-3.3902439107542843
20
-36.32463757543831
30
0
10
-3.3228080416167112
20
-36.192476351351061
30
0
10
-3.2570300719683445
20
-36.05988444230573
30
0
10
-3.1929807807351818
20
-35.926861245965881
30
0
10
-3.1307212839615555
20
-35.793406957577488
30
0
10
-3.0702936663213669
20
-35.659523279380053
30
0
10
-3.0117050185684038
20
-35.525214653531464
30
0
10
-2.9549446118692679
20
-35.390486929766027
30
0
10
-2.9000151367997979
20
-35.255344946849135
30
0
10
-2.8469609515818277
20
-35.119790361260577
30
0
10
-2.795894134453492
20
-34.983819639481638
30
0
10
-2.7470305122531169
20
-34.847421322917235
30
0
10
-2.7006634413073547
20
-34.710577906191219
30
0
10
-2.6571183808001124
20
-34.57326914488101
30
0
10
-2.6167129748467048
20
-34.435474962451387
30
0
10
-2.5797168560666792
20
-34.297178384523818
30
0
10
-2.546305697706809
20
-34.158368905964061
30
0
10
-2.5165760822019574
20
-34.019041358192467
30
0
10
-2.4957710982114527
20
-33.907163535793231
30
0
10
-2.4818463595915716
20
-33.823021425408072
30
0
10
-2.4733088320668895
20
-33.766822881921158
30
0
10
-2.4692264756577309
20
-33.738697659408977
30
0
0
LINE
5
164
100
AcDbEntity
8
0
100
AcDbLine
10
-2.4692264756577305
20
-33.738697659408984
30
0
11
-2.2627381624645491
21
-30.917309326785318
31
0
0
ARC
5
165
100
AcDbEntity
8
0
100
AcDbCircle
10
-3.8857805861880479e-15
20
-31.082911835650403
30
0
40
2.268790026162816
210
0
220
-0
230
1
100
AcDbArc
50
4.1858304439316969
51
175.81416955606829
0
LINE
5
166
100
AcDbEntity
8
0
100
AcDbLine
10
2.2627381624645491
20
-30.917309326785322
30
0
11
2.4692264756577198
21
-33.738697659408977
31
0
0
SPLINE
5
167
100
AcDbEntity
8
0
100
AcDbSpline
70
4
71
5
72
56
73
50
74
0
42
0.000000001
43
0.0000000001
44
0.0000000001
40
0
40
0
40
0
40
0
40
0
40
0
40
0.022222222222222223
40
0.044444444444444446
40
0.066666666666666666
40
0.088888888888888892
40
0.11111111111111112
40
0.13333333333333333
40
0.15555555555555556
40
0.17777777777777778
40
0.20000000000000001
40
0.22222222222222224
40
0.24444444444444446
40
0.26666666666666666
40
0.28888888888888886
40
0.31111111111111106
40
0.33333333333333326
40
0.35555555555555546
40
0.37777777777777766
40
0.39999999999999986
40
0.42222222222222205
40
0.44444444444444425
40
0.46666666666666645
40
0.48888888888888865
40
0.51111111111111085
40
0.5333333333333331
40
0.55555555555555536
40
0.57777777777777761
40
0.59999999999999987
40
0.62222222222222212
40
0.64444444444444438
40
0.66666666666666663
40
0.68888888888888888
40
0.71111111111111114
40
0.73333333333333339
40
0.75555555555555565
40
0.7777777777777779
40
0.80000000000000016
40
0.82222222222222241
40
0.84444444444444466
40
0.86666666666666692
40
0.88888888888888917
40
0.91111111111111143
40
0.93333333333333368
40
0.95555555555555594
40
0.97777777777777819
40
1
40
1
40
1
40
1
40
1
40
1
41
1
41
1
41
1
41
1
41
1
41
1
41
1
41
1
41
1
41
1
41
1
41
1
41
1
41
1
41
1
41
1
41
1
41
1
41
1
41
1
41
1
41
1
41
1
41
1
41
1
41
1
41
1
41
1
41
1
41
1
41
1
41
1
41
1
41
1
41
1
41
1
41
1
41
1
41
1
41
1
41
1
41
1
41
1
41
1
41
1
41
1
41
1
41
1
41
1
41
1
10
2.4692264756577198
20
-33.738697659408977
30
0
10
2.4733088320673997
20
-33.766822881921065
30
0
10
2.4818463595929718
20
-33.823021425407823
30
0
10
2.4957710982137278
20
-33.907163535792833
30
0
10
2.5165760822045384
20
-34.019041358192005
30
0
10
2.5463056977087541
20
-34.158368905963712
30
0
10
2.5797168560675106
20
-34.297178384523662
30
0
10
2.6167129748464664
20
-34.43547496245143
30
0
10
2.6571183807992278
20
-34.573269144881166
30
0
10
2.7006634413063217
20
-34.710577906191403
30
0
10
2.7470305122523402
20
-34.84742132291737
30
0
10
2.7958941344531785
20
-34.983819639481688
30
0
10
2.8469609515819476
20
-35.119790361260556
30
0
10
2.9000151368001772
20
-35.255344946849064
30
0
10
2.9549446118696956
20
-35.390486929765956
30
0
10
3.011705018568716
20
-35.525214653531407
30
0
10
3.0702936663214793
20
-35.659523279380025
30
0
10
3.1307212839614724
20
-35.793406957577496
30
0
10
3.1929807807349779
20
-35.92686124596591
30
0
10
3.2570300719681109
20
-36.059884442305766
30
0
10
3.3228080416165335
20
-36.19247635135109
30
0
10
3.3902439107542066
20
-36.324637575438324
30
0
10
3.4592683993063824
20
-36.456368668549771
30
0
10
3.5298257726056397
20
-36.587669246869361
30
0
10
3.6018796264186315
20
-36.718537544299259
30
0
10
3.6754057880406714
20
-36.848970883743824
30
0
10
3.7503878969703663
20
-36.978965968192703
30
0
10
3.8268122091404875
20
-37.108519239753491
30
0
10
3.9046618875200312
20
-37.237627276849167
30
0
10
3.9839141348544005
20
-37.366287026737744
30
0
10
4.0645432290340997
20
-37.494495674222847
30
0
10
4.1465222507535131
20
-37.622250611965093
30
0
10
4.2298251501653059
20
-37.749549381919515
30
0
10
4.3144288996522704
20
-37.876389668573857
30
0
10
4.4003146114585832
20
-38.00276922790362
30
0
10
4.4874661289068065
20
-38.128685678116824
30
0
10
4.5758690686400385
20
-38.254136325198367
30
0
10
4.6655096987332456
20
-38.379118012620935
30
0
10
4.7563736855256735
20
-38.503626934170136
30
0
10
4.8484453108344976
20
-38.627658622128799
30
0
10
4.9417084446330861
20
-38.751208475374149
30
0
10
5.0361471777109603
20
-38.874272222924311
30
0
10
5.1317465303209602
20
-38.996846413252044
30
0
10
5.2284930968344243
20
-39.118928964622881
30
0
10
5.3263756210003006
20
-39.240519571713229
30
0
10
5.4253851326790041
20
-39.361619006982679
30
0
10
5.5054891083153095
20
-39.458106650120143
30
0
10
5.5660695044008239
20
-39.530252483844848
30
0
10
5.6066795509467404
20
-39.578252052298694
30
0
10
5.6270403531765769
20
-39.602227423008955
30
0
0
ARC
5
168
100
AcDbEntity
8
0
100
AcDbCircle
10
4.4408920985006262e-15
20
-2.2204460492503131e-15
30
0
40
40
210
0
220
0
230
1
100
AcDbArc
50
278.08696584201539
51
281.91303415798444
0
SPLINE
5
169
100
AcDbEntity
8
0
100
AcDbSpline
70
4
71
5
72
56
73
50
74
0
42
0.000000001
43
0.0000000001
44
0.0000000001
40
-1
40
-1
40
-1
40
-1
40
-1
40
-1
40
-0.97777777777777819
40
-0.95555555555555594
40
-0.93333333333333368
40
-0.91111111111111143
40
-0.88888888888888917
40
-0.86666666666666692
40
-0.84444444444444466
40
-0.82222222222222241
40
-0.80000000000000016
40
-0.7777777777777779
40
-0.75555555555555565
40
-0.73333333333333339
40
-0.71111111111111114
40
-0.68888888888888888
40
-0.66666666666666663
40
-0.64444444444444438
40
-0.62222222222222212
40
-0.59999999999999987
40
-0.57777777777777761
40
-0.55555555555555536
40
-0.5333333333333331
40
-0.51111111111111085
40
-0.48888888888888865
40
-0.46666666666666645
40
-0.44444444444444425
40
-0.42222222222222205
40
-0.39999999999999986
40
-0.37777777777777766
40
-0.35555555555555546
40
-0.33333333333333326
40
-0.31111111111111106
40
-0.28888888888888886
40
-0.26666666666666666
40
-0.24444444444444446
40
-0.22222222222222224
40
-0.20000000000000001
40
-0.17777777777777778
40
-0.15555555555555556
40
-0.13333333333333333
40
-0.11111111111111112
40
-0.088888888888888892
40
-0.066666666666666666
40
-0.044444444444444446
40
-0.022222222222222223
40
0
40
0
40
0
40
0
40
0
40
0
41
1
41
1
41
1
41
1
41
1
41
1
41
1
41
1
41
1
41
1
41
1
41
1
41
1
41
1
41
1
41
1
41
1
41
1
41
1
41
1
41
1
41
1
41
1
41
1
41
1
41
1
41
1
41
1
41
1
41
1
41
1
41
1
41
1
41
1
41
1
41
1
41
1
41
1
41
1
41
1
41
1
41
1
41
1
41
1
41
1
41
1
41
1
41
1
41
1
41
1
10
8.2570712024886621
20
-39.138482024179638
30
0
10
8.2680040383709503
20
-39.10898874074568
30
0
10
8.2897481801581847
20
-39.049994446528522
30
0
10
8.3219998029335756
20
-38.961479823205003
30
0
10
8.3642722001997658
20
-38.843413923723588
30
0
10
8.4158922615040979
20
-38.695754430644634
30
0
10
8.4662853103020925
20
-38.548018839460745
30
0
10
8.5154426532232499
20
-38.400209492265745
30
0
10
8.5633538172785091
20
-38.252330525834516
30
0
10
8.6100069172927167
20
-38.104388481352601
30
0
10
8.6553890573998356
20
-37.956391725569965
30
0
10
8.6994867485939267
20
-37.808349713167203
30
0
10
8.7422864072845901
20
-37.660272284579491
30
0
10
8.7837747912605906
20
-37.512169014022817
30
0
10
8.8239397330886398
20
-37.364048380569486
30
0
10
8.8627694085760407
20
-37.215918046979894
30
0
10
8.9002512231959017
20
-37.067785464197932
30
0
10
8.9363708092585377
20
-36.91965839628508
30
0
10
8.971111185580785
20
-36.771545411927534
30
0
10
9.0044515052325504
20
-36.623456562904025
30
0
10
9.0363681300654068
20
-36.475403068593771
30
0
10
9.0668366559691087
20
-36.327396586039121
30
0
10
9.0958338749210341
20
-36.179448558138922
30
0
10
9.1233394086084871
20
-36.031569650652571
30
0
10
9.1493386056459123
20
-35.883768837414515
30
0
10
9.1738197677056057
20
-35.73605416249783
30
0
10
9.1967686485890727
20
-35.588434319699857
30
0
10
9.2181634490047379
20
-35.440920092219542
30
0
10
9.2379705642042094
20
-35.29352559062707
30
0
10
9.2561377520046513
20
-35.146270237970526
30
0
10
9.2725997209579951
20
-34.999177208857908
30
0
10
9.2872897546185698
20
-34.852270145096512
30
0
10
9.3001504894685674
20
-34.70557013307581
30
0
10
9.3111429610506686
20
-34.559093166183878
30
0
10
9.3202620255433484
20
-34.412845843864346
30
0
10
9.3275197654791384
20
-34.266829993592218
30
0
10
9.332915307499011
20
-34.121051082550771
30
0
10
9.3364075350586972
20
-33.975525838727236
30
0
10
9.337889920530289
20
-33.830289274715213
30
0
10
9.3371557339561164
20
-33.685404440083644
30
0
10
9.3339233233695005
20
-33.540955218932616
30
0
10
9.3278799331766464
20
-33.397033901324349
30
0
10
9.3187202089668979
20
-33.253730262172681
30
0
10
9.3061849733779649
20
-33.111120570566555
30
0
10
9.2901055545886777
20
-32.969255038697902
30
0
10
9.2703894270393334
20
-32.828161842828749
30
0
10
9.2516752481188327
20
-32.715915355084277
30
0
10
9.2359819255926503
20
-32.632085093759443
30
0
10
9.2247835433092646
20
-32.576355730758237
30
0
10
9.2190003108676848
20
-32.548530418581414
30
0
0
LINE
5
170
100
AcDbEntity
8
0
100
AcDbLine
10
9.2190003108676848
20
-32.548530418581414
30
0
11
8.4480642131525361
21
-29.826669459570098
31
0
0
ARC
5
171
100
AcDbEntity
8
0
100
AcDbCircle
10
10.630981961008272
20
-29.20838288449966
30
0
40
2.2687900261628164
210
0
220
-0
230
1
100
AcDbArc
50
24.185830443931721
51
195.81416955606826
0
LINE
5
172
100
AcDbEntity
8
0
100
AcDbLine
10
12.700620921229753
20
-28.278865398300923
30
0
11
13.859628107317235
21
-30.859480032365418
31
0
0
SPLINE
5
173
100
AcDbEntity
8
0
100
AcDbSpline
70
4
71
5
72
56
73
50
74
0
42
0.000000001
43
0.0000000001
44
0.0000000001
40
0
40
0
40
0
40
0
40
0
40
0
40
0.022222222222222223
40
0.044444444444444446
40
0.066666666666666666
40
0.088888888888888892
40
0.11111111111111112
40
0.13333333333333333
40
0.15555555555555556
40
0.17777777777777778
40
0.20000000000000001
40
0.22222222222222224
40
0.24444444444444446
40
0.26666666666666666
40
0.28888888888888886
40
0.31111111111111106
40
0.33333333333333326
40
0.35555555555555546
40
0.37777777777777766
40
0.39999999999999986
40
0.42222222222222205
40
0.44444444444444425
40
0.46666666666666645
40
0.48888888888888865
40
0.51111111111111085
40
0.5333333333333331
40
0.55555555555555536
40
0.57777777777777761
40
0.59999999999999987
40
0.62222222222222212
40
0.64444444444444438
40
0.66666666666666663
40
0.68888888888888888
40
0.71111111111111114
40
0.73333333333333339
40
0.75555555555555565
40
0.7777777777777779
40
0.80000000000000016
40
0.82222222222222241
40
0.84444444444444466
40
0.86666666666666692
40
0.88888888888888917
40
0.91111111111111143
40
0.93333333333333368
40
0.95555555555555594
40
0.97777777777777819
40
1
40
1
40
1
40
1
40
1
40
1
41
1
41
1
41
1
41
1
41
1
41
1
41
1
41
1
41
1
41
1
41
1
41
1
41
1
41
1
41
1
41
1
41
1
41
1
41
1
41
1
41
1
41
1
41
1
41
1
41
1
41
1
41
1
41
1
41
1
41
1
41
1
41
1
41
1
41
1
41
1
41
1
41
1
41
1
41
1
41
1
41
1
41
1
41
1
41
1
41
1
41
1
41
1
41
1
41
1
41
1
10
13.859628107317235
20
-30.859480032365418
30
0
10
13.873083660145479
20
-30.884512848293646
30
0
10
13.900327345659051
20
-30.934402198519123
30
0
10
13.942190616440953
20
-31.008707377646427
30
0
10
14.000005375224616
20
-31.106722418178098
30
0
10
14.075594903390822
20
-31.227479359335604
30
0
10
14.154466760104489
20
-31.34649031286299
30
0
10
14.236531955323098
20
-31.463793168774377
30
0
10
14.32162900316083
20
-31.579457882455738
30
0
10
14.409510337414218
20
-31.693592624392455
30
0
10
14.499884336831439
20
-31.806324901042437
30
0
10
14.592452093819144
20
-31.917785049536999
30
0
10
14.686943930792975
20
-32.028089853321966
30
0
10
14.783160955935786
20
-32.137323897080819
30
0
10
14.880999058688806
20
-32.245528834250109
30
0
10
14.980415989408886
20
-32.352718279653367
30
0
10
15.081407564826602
20
-32.458888606569552
30
0
10
15.183981866020641
20
-32.564030648569336
30
0
10
15.288130710554578
20
-32.668142656570296
30
0
10
15.393813969570719
20
-32.771237424796759
30
0
10
15.500974145995123
20
-32.873335672695731
30
0
10
15.609544935404491
20
-32.974462174096786
30
0
10
15.719461425296917
20
-33.074641144754075
30
0
10
15.830671110943877
20
-33.173891286377426
30
0
10
15.94313917951489
20
-33.272223390358832
30
0
10
16.056842000477111
20
-33.369643208603193
30
0
10
16.171763072344149
20
-33.46615323855525
30
0
10
16.287888263046579
20
-33.561754837637608
30
0
10
16.405200580702349
20
-33.656450549223337
30
0
10
16.523677558800291
20
-33.750245301793612
30
0
10
16.643294063610053
20
-33.843145247408742
30
0
10
16.764023907496195
20
-33.935157142915919
30
0
10
16.885841770908524
20
-34.026287588080947
30
0
10
17.008725223013229
20
-34.11654228294298
30
0
10
17.132655747623971
20
-34.205925578801718
30
0
10
17.257617347809337
20
-34.294440763413924
30
0
10
17.383595586227564
20
-34.382090224631305
30
0
10
17.510576479494102
20
-34.46887569288338
30
0
10
17.638545256571717
20
-34.554798493899284
30
0
10
17.767485619150733
20
-34.639859805333316
30
0
10
17.897380836287475
20
-34.724060820338359
30
0
10
18.028214497452424
20
-34.807402966774717
30
0
10
18.159971345795867
20
-34.889888124642972
30
0
10
18.292638072152361
20
-34.971518922747663
30
0
10
18.426203994679028
20
-35.05229892404305
30
0
10
18.560660948398638
20
-35.132231922372142
30
0
10
18.66893478073472
20
-35.195503475397359
30
0
10
18.750537060291439
20
-35.242578667217018
30
0
10
18.805114840642563
20
-35.273794053553907
30
0
10
18.832447795977828
20
-35.289359727994068
30
0
0
ARC
5
174
100
AcDbEntity
8
0
100
AcDbCircle
10
4.4408920985006262e-15
20
-2.2204460492503131e-15
30
0
40
39.999999999999993
210
0
220
0
230
1
100
AcDbArc
50
298.0869658420155
51
301.91303415798433
0
SPLINE
5
175
100
AcDbEntity
8
0
100
AcDbSpline
70
4
71
5
72
56
73
50
74
0
42
0.000000001
43
0.0000000001
44
0.0000000001
40
-1
40
-1
40
-1
40
-1
40
-1
40
-1
40
-0.97777777777777819
40
-0.95555555555555594
40
-0.93333333333333368
40
-0.91111111111111143
40
-0.88888888888888917
40
-0.86666666666666692
40
-0.84444444444444466
40
-0.82222222222222241
40
-0.80000000000000016
40
-0.7777777777777779
40
-0.75555555555555565
40
-0.73333333333333339
40
-0.71111111111111114
40
-0.68888888888888888
40
-0.66666666666666663
40
-0.64444444444444438
40
-0.62222222222222212
40
-0.59999999999999987
40
-0.57777777777777761
40
-0.55555555555555536
40
-0.5333333333333331
40
-0.51111111111111085
40
-0.48888888888888865
40
-0.46666666666666645
40
-0.44444444444444425
40
-0.42222222222222205
40
-0.39999999999999986
40
-0.37777777777777766
40
-0.35555555555555546
40
-0.33333333333333326
40
-0.31111111111111106
40
-0.28888888888888886
40
-0.26666666666666666
40
-0.24444444444444446
40
-0.22222222222222224
40
-0.20000000000000001
40
-0.17777777777777778
40
-0.15555555555555556
40
-0.13333333333333333
40
-0.11111111111111112
40
-0.088888888888888892
40
-0.066666666666666666
40
-0.044444444444444446
40
-0.022222222222222223
40
0
40
0
40
0
40
0
40
0
40
0
41
1
41
1
41
1
41
1
41
1
41
1
41
1
41
1
41
1
41
1
41
1
41
1
41
1
41
1
41
1
41
1
41
1
41
1
41
1
41
1
41
1
41
1
41
1
41
1
41
1
41
1
41
1
41
1
41
1
41
1
41
1
41
1
41
1
41
1
41
1
41
1
41
1
41
1
41
1
41
1
41
1
41
1
41
1
41
1
41
1
41
1
41
1
41
1
41
1
41
1
10
21.145258109741469
20
-33.954058070758094
30
0
10
21.145444317917097
20
-33.922604199857041
30
0
10
21.145699890536331
20
-33.859730762422146
30
0
10
21.145732718311208
20
-33.765523519409264
30
0
10
21.145074862222671
20
-33.640119853528432
30
0
10
21.143079331928611
20
-33.483710216727353
30
0
10
21.139904759951975
20
-33.327648734091902
30
0
10
21.135543778239917
20
-33.171940579778166
30
0
10
21.129987960262248
20
-33.016593223056226
30
0
10
21.123228374824787
20
-32.86161687559914
30
0
10
21.115255765374407
20
-32.707023810226083
30
0
10
21.10606069008298
20
-32.55282752494238
30
0
10
21.095633750177882
20
-32.399041912593873
30
0
10
21.083965776625671
20
-32.245680499103692
30
0
10
21.071048235792581
20
-32.092755413700765
30
0
10
21.05687263739042
20
-31.940277901136582
30
0
10
21.041429694808077
20
-31.788259270590018
30
0
10
21.024708562299011
20
-31.636711731931651
30
0
10
21.006696213433994
20
-31.485649144999361
30
0
10
20.987376496417447
20
-31.335088085445474
30
0
10
20.966731035909412
20
-31.185047180760755
30
0
10
20.94474088649088
20
-31.035545731679175
30
0
10
20.921388153456139
20
-30.886602428619547
30
0
10
20.896657335359695
20
-30.738234263910709
30
0
10
20.870537733634791
20
-30.590454681267655
30
0
10
20.84302110668424
20
-30.443275240710221
30
0
10
20.814097040914255
20
-30.296708984222466
30
0
10
20.783748739762643
20
-30.150773500493685
30
0
10
20.751949451194569
20
-30.005493542623434
30
0
10
20.718656726690018
20
-29.860905230185516
30
0
10
20.683817138539776
20
-29.717052671178497
30
0
10
20.647376079766492
20
-29.573980900002542
30
0
10
20.609286858265719
20
-29.431729350860817
30
0
10
20.56951832948533
20
-29.290326379251354
30
0
10
20.52806791695685
20
-29.149779945913203
30
0
10
20.484947599580202
20
-29.010087635641653
30
0
10
20.440158426553161
20
-28.871254884614839
30
0
10
20.393667482271077
20
-28.733311474685308
30
0
10
20.345386638520367
20
-28.596326741523448
30
0
10
20.295143196907937
20
-28.460430638153703
30
0
10
20.242701181210986
20
-28.325798320491931
30
0
10
20.187798262366229
20
-28.192623481541595
30
0
10
20.130178205916156
20
-28.061094919486045
30
0
10
20.069623550370672
20
-27.931372947703967
30
0
10
20.00599296964516
20
-27.803562439382024
30
0
10
19.93920915500312
20
-27.677721517150935
30
0
10
19.88323301934129
20
-27.57864494706493
30
0
10
19.839814481974475
20
-27.505237701519093
30
0
10
19.810230880056917
20
-27.456699302659338
30
0
10
19.795279601948476
20
-27.432530044124267
30
0
0
LINE
5
176
100
AcDbEntity
8
0
100
AcDbLine
10
19.795279601948476
20
-27.432530044124263
30
0
11
18.139905364514473
21
-25.138493060771545
31
0
0
ARC
5
177
100
AcDbEntity
8
0
100
AcDbCircle
10
19.979710600935164
20
-23.810891887657103
30
0
40
2.2687900261628133
210
0
220
-0
230
1
100
AcDbArc
50
44.185830443931827
51
215.81416955606829
0
LINE
5
178
100
AcDbEntity
8
0
100
AcDbLine
10
21.606621355692898
20
-22.229572951177342
30
0
11
23.578354042908192
21
-24.258153675998777
31
0
0
SPLINE
5
179
100
AcDbEntity
8
0
100
AcDbSpline
70
4
71
5
72
56
73
50
74
0
42
0.000000001
43
0.0000000001
44
0.0000000001
40
0
40
0
40
0
40
0
40
0
40
0
40
0.022222222222222223
40
0.044444444444444446
40
0.066666666666666666
40
0.088888888888888892
40
0.11111111111111112
40
0.13333333333333333
40
0.15555555555555556
40
0.17777777777777778
40
0.20000000000000001
40
0.22222222222222224
40
0.24444444444444446
40
0.26666666666666666
40
0.28888888888888886
40
0.31111111111111106
40
0.33333333333333326
40
0.35555555555555546
40
0.37777777777777766
40
0.39999999999999986
40
0.42222222222222205
40
0.44444444444444425
40
0.46666666666666645
40
0.48888888888888865
40
0.51111111111111085
40
0.5333333333333331
40
0.55555555555555536
40
0.57777777777777761
40
0.59999999999999987
40
0.62222222222222212
40
0.64444444444444438
40
0.66666666666666663
40
0.68888888888888888
40
0.71111111111111114
40
0.73333333333333339
40
0.75555555555555565
40
0.7777777777777779
40
0.80000000000000016
40
0.82222222222222241
40
0.84444444444444466
40
0.86666666666666692
40
0.88888888888888917
40
0.91111111111111143
40
0.93333333333333368
40
0.95555555555555594
40
0.97777777777777819
40
1
40
1
40
1
40
1
40
1
40
1
41
1
41
1
41
1
41
1
41
1
41
1
41
1
41
1
41
1
41
1
41
1
41
1
41
1
41
1
41
1
41
1
41
1
41
1
41
1
41
1
41
1
41
1
41
1
41
1
41
1
41
1
41
1
41
1
41
1
41
1
41
1
41
1
41
1
41
1
41
1
41
1
41
1
41
1
41
1
41
1
41
1
41
1
41
1
41
1
41
1
41
1
41
1
41
1
41
1
41
1
10
23.578354042908192
20
-24.258153675998777
30
0
10
23.599559853901106
20
-24.277074758297182
30
0
10
23.642223706855763
20
-24.31463752333579
30
0
10
23.706976181506437
20
-24.370143469974984
30
0
10
23.794827401918678
20
-24.442473668203103
30
0
10
23.907159630067408
20
-24.530094933460159
30
0
10
24.021979075191688
20
-24.614952884544969
30
0
10
24.139215073153288
20
-24.697113562811303
30
0
10
24.258739803008098
20
-24.776697936244933
30
0
10
24.380357625106459
20
-24.85389232448118
30
0
10
24.503838114886982
20
-24.928916284739966
30
0
10
24.628944969014242
20
-25.001994526279738
30
0
10
24.755464715743102
20
-25.073329024808821
30
0
10
24.883239387566221
20
-25.143067288937893
30
0
10
25.012185398874113
20
-25.21128406800219
30
0
10
25.142267704532777
20
-25.278006605979883
30
0
10
25.27348113314315
20
-25.343232925630396
30
0
10
25.405830143331784
20
-25.406951649436035
30
0
10
25.539306447902117
20
-25.469163932355052
30
0
10
25.67387671394513
20
-25.52989552190326
30
0
10
25.80949399835297
20
-25.589185553149619
30
0
10
25.946104468497065
20
-25.647079983327309
30
0
10
26.083655408854089
20
-25.703623769185036
30
0
10
26.222103877479569
20
-25.758852442256273
30
0
10
26.361420851887022
20
-25.81278804982173
30
0
10
26.501586093906461
20
-25.865444079022236
30
0
10
26.642584951389296
20
-25.91682852052891
30
0
10
26.784404608800038
20
-25.966947483354165
30
0
10
26.927029968877328
20
-26.015809169052858
30
0
10
27.070441605646263
20
-26.063425892881725
30
0
10
27.214618005254433
20
-26.109812032128534
30
0
10
27.35953687035191
20
-26.154982892851525
30
0
10
27.505176665597052
20
-26.19895333659813
30
0
10
27.651518262429068
20
-26.241736391450061
30
0
10
27.798545749556432
20
-26.28334247920025
30
0
10
27.946245219259787
20
-26.323780160602233
30
0
10
28.094603921568986
20
-26.36305661736435
30
0
10
28.243609308242515
20
-26.401178258157636
30
0
10
28.393247952471754
20
-26.438151380752238
30
0
10
28.543504941636844
20
-26.47398266613143
30
0
10
28.694364961875817
20
-26.508678957811924
30
0
10
28.845813080692157
20
-26.542247210275175
30
0
10
28.997835604334842
20
-26.574694408293773
30
0
10
29.150420925383415
20
-26.606027574138619
30
0
10
29.303560224791084
20
-26.636253709296973
30
0
10
29.457247127559722
20
-26.665379171401803
30
0
10
29.580631394464266
20
-26.687803151231254
30
0
10
29.673413118256271
20
-26.704129738256576
30
0
10
29.735375746620004
20
-26.714795906194247
30
0
10
29.766384097255813
20
-26.720074434301942
30
0
0
ARC
5
180
100
AcDbEntity
8
0
100
AcDbCircle
10
4.4408920985006262e-15
20
-2.2204460492503131e-15
30
0
40
39.999999999999993
210
0
220
0
230
1
100
AcDbArc
50
318.08696584201545
51
321.91303415798427
0
SPLINE
5
181
100
AcDbEntity
8
0
100
AcDbSpline
70
4
71
5
72
56
73
50
74
0
42
0.000000001
43
0.0000000001
44
0.0000000001
40
-1
40
-1
40
-1
40
-1
40
-1
40
-1
40
-0.97777777777777819
40
-0.95555555555555594
40
-0.93333333333333368
40
-0.91111111111111143
40
-0.88888888888888917
40
-0.86666666666666692
40
-0.84444444444444466
40
-0.82222222222222241
40
-0.80000000000000016
40
-0.7777777777777779
40
-0.75555555555555565
40
-0.73333333333333339
40
-0.71111111111111114
40
-0.68888888888888888
40
-0.66666666666666663
40
-0.64444444444444438
40
-0.62222222222222212
40
-0.59999999999999987
40
-0.57777777777777761
40
-0.55555555555555536
40
-0.5333333333333331
40
-0.51111111111111085
40
-0.48888888888888865
40
-0.46666666666666645
40
-0.44444444444444425
40
-0.42222222222222205
40
-0.39999999999999986
40
-0.37777777777777766
40
-0.35555555555555546
40
-0.33333333333333326
40
-0.31111111111111106
40
-0.28888888888888886
40
-0.26666666666666666
40
-0.24444444444444446
40
-0.22222222222222224
40
-0.20000000000000001
40
-0.17777777777777778
40
-0.15555555555555556
40
-0.13333333333333333
40
-0.11111111111111112
40
-0.088888888888888892
40
-0.066666666666666666
40
-0.044444444444444446
40
-0.022222222222222223
40
0
40
0
40
0
40
0
40
0
40
0
41
1
41
1
41
1
41
1
41
1
41
1
41
1
41
1
41
1
41
1
41
1
41
1
41
1
41
1
41
1
41
1
41
1
41
1
41
1
41
1
41
1
41
1
41
1
41
1
41
1
41
1
41
1
41
1
41
1
41
1
41
1
41
1
41
1
41
1
41
1
41
1
41
1
41
1
41
1
41
1
41
1
41
1
41
1
41
1
41
1
41
1
41
1
41
1
41
1
41
1
10
31.483014818186192
20
-24.674273605475573
30
0
10
31.47243193920103
20
-24.64465294814779
30
0
10
31.45116811682254
20
-24.585483831962907
30
0
10
31.418978190082768
20
-24.496946753118852
30
0
10
31.375469427792705
20
-24.379330853704815
30
0
10
31.320098996304605
20
-24.233036383740227
30
0
10
31.263739703785411
20
-24.087472327681233
30
0
10
31.206386396195853
20
-23.942646067666622
30
0
10
31.148033709828503
20
-23.798567504557436
30
0
10
31.088676744703989
20
-23.655249288835801
30
0
10
31.028311000059009
20
-23.512706119106962
30
0
10
30.966932220067065
20
-23.370953908642328
30
0
10
30.904536324404006
20
-23.230008927016186
30
0
10
30.841119323134926
20
-23.089887020432815
30
0
10
30.776677345707778
20
-22.950602505313775
30
0
10
30.711206259792899
20
-22.81216885211866
30
0
10
30.644701206797343
20
-22.674599864207458
30
0
10
30.577156171074801
20
-22.53791072456924
30
0
10
30.508563652129595
20
-22.40211891249259
30
0
10
30.43891414144559
20
-22.267245528235094
30
0
10
30.368196742828481
20
-22.133314360648804
30
0
10
30.296400254647629
20
-22.000350026205922
30
0
10
30.223514253879848
20
-21.868376208504898
30
0
10
30.149529985649938
20
-21.737414176918364
30
0
10
30.074441994614993
20
-21.607480223531425
30
0
10
29.998246489966593
20
-21.478588030001674
30
0
10
29.920938146748771
20
-21.350753413444128
30
0
10
29.842507197041993
20
-21.223998646582935
30
0
10
29.762936968215207
20
-21.098356139457877
30
0
10
29.682199925329186
20
-20.973874351614828
30
0
10
29.600260948583838
20
-20.850613004367315
30
0
10
29.517084126877499
20
-20.728633092895087
30
0
10
29.432639071275993
20
-20.607987642868096
30
0
10
29.346906213624997
20
-20.488713951802797
30
0
10
29.25988585556923
20
-20.370820381551063
30
0
10
29.171588427543877
20
-20.254300565537761
30
0
10
29.082016774754781
20
-20.139159253252604
30
0
10
28.991150152644604
20
-20.025435688282482
30
0
10
28.8989294619773
20
-19.913225166469452
30
0
10
28.805236865899285
20
-19.802708870040806
30
0
10
28.709910526146778
20
-19.694132100339697
30
0
10
28.612770180943592
20
-19.587766591075987
30
0
10
28.513639621442522
20
-19.483877391855302
30
0
10
28.412369331090805
20
-19.382689524186585
30
0
10
28.308862375551925
20
-19.284349872997193
30
0
10
28.203065987487157
20
-19.188939496839449
30
0
10
28.116579443164596
20
-19.114982940978731
30
0
10
28.050672607352951
20
-19.060852708400272
30
0
10
28.006272004799943
20
-19.025359720934937
30
0
10
27.983956025821882
20
-19.007761685321213
30
0
0
LINE
5
182
100
AcDbEntity
8
0
100
AcDbLine
10
27.983956025821882
20
-19.007761685321213
30
0
11
25.643806212425364
21
-17.418243394199489
31
0
0
ARC
5
183
100
AcDbEntity
8
0
100
AcDbCircle
10
26.918591273265235
20
-15.541455917825214
30
0
40
2.2687900261628164
210
0
220
-0
230
1
100
AcDbArc
50
64.185830443931508
51
235.81416955606824
0
LINE
5
184
100
AcDbEntity
8
0
100
AcDbLine
10
27.906544374889922
20
-13.499065932585852
30
0
11
30.45318250147961
21
-14.730935974087796
31
0
0
SPLINE
5
185
100
AcDbEntity
8
0
100
AcDbSpline
70
4
71
5
72
56
73
50
74
0
42
0.000000001
43
0.0000000001
44
0.0000000001
40
0
40
0
40
0
40
0
40
0
40
0
40
0.022222222222222223
40
0.044444444444444446
40
0.066666666666666666
40
0.088888888888888892
40
0.11111111111111112
40
0.13333333333333333
40
0.15555555555555556
40
0.17777777777777778
40
0.20000000000000001
40
0.22222222222222224
40
0.24444444444444446
40
0.26666666666666666
40
0.28888888888888886
40
0.31111111111111106
40
0.33333333333333326
40
0.35555555555555546
40
0.37777777777777766
40
0.39999999999999986
40
0.42222222222222205
40
0.44444444444444425
40
0.46666666666666645
40
0.48888888888888865
40
0.51111111111111085
40
0.5333333333333331
40
0.55555555555555536
40
0.57777777777777761
40
0.59999999999999987
40
0.62222222222222212
40
0.64444444444444438
40
0.66666666666666663
40
0.68888888888888888
40
0.71111111111111114
40
0.73333333333333339
40
0.75555555555555565
40
0.7777777777777779
40
0.80000000000000016
40
0.82222222222222241
40
0.84444444444444466
40
0.86666666666666692
40
0.88888888888888917
40
0.91111111111111143
40
0.93333333333333368
40
0.95555555555555594
40
0.97777777777777819
40
1
40
1
40
1
40
1
40
1
40
1
41
1
41
1
41
1
41
1
41
1
41
1
41
1
41
1
41
1
41
1
41
1
41
1
41
1
41
1
41
1
41
1
41
1
41
1
41
1
41
1
41
1
41
1
41
1
41
1
41
1
41
1
41
1
41
1
41
1
41
1
41
1
41
1
41
1
41
1
41
1
41
1
41
1
41
1
41
1
41
1
41
1
41
1
41
1
41
1
41
1
41
1
41
1
41
1
41
1
41
1
10
30.45318250147961
20
-14.730935974087796
30
0
10
30.479580836867012
20
-14.741463160985759
30
0
10
30.532518966945009
20
-14.762168717006478
30
0
10
30.612350541376841
20
-14.792180594812351
30
0
10
30.719642069690011
20
-14.830101861350569
30
0
10
30.85516807325941
20
-14.874019032965027
30
0
10
30.992086187157774
20
-14.914488860336455
30
0
10
31.13035259628915
20
-14.951597570596334
30
0
10
31.269888561743393
20
-14.985502553805892
30
0
10
31.410573967453779
20
-15.016445805852532
30
0
10
31.552267378152138
20
-15.044712452877192
30
0
10
31.69482359643068
20
-15.070594473012495
30
0
10
31.838111104226474
20
-15.094354672978003
30
0
10
31.98203191155471
20
-15.116185693596185
30
0
10
32.126533039413296
20
-15.136186364227884
30
0
10
32.271590874137743
20
-15.154394271980124
30
0
10
32.417199879946409
20
-15.17080932757716
30
0
10
32.563360355237513
20
-15.18541931470949
30
0
10
32.710064907612605
20
-15.198228153071003
30
0
10
32.857291020552097
20
-15.209271437938652
30
0
10
33.005007966945833
20
-15.218601999736416
30
0
10
33.153180878969465
20
-15.226281435980527
30
0
10
33.301775596348357
20
-15.232370021966839
30
0
10
33.450763919354344
20
-15.236915833425172
30
0
10
33.600126116385148
20
-15.239949514297502
30
0
10
33.749847782655593
20
-15.241490660212339
30
0
10
33.899917882620279
20
-15.241551791274331
30
0
10
34.050326463020362
20
-15.240143031248648
30
0
10
34.201062142167736
20
-15.237277250643352
30
0
10
34.352110877682975
20
-15.232972666089069
30
0
10
34.503457370479772
20
-15.227250145987876
30
0
10
34.655085902883158
20
-15.220131699472583
30
0
10
34.806981321240102
20
-15.211638657350289
30
0
10
34.959130106449543
20
-15.201789804366332
30
0
10
35.111520871251358
20
-15.19060037578484
30
0
10
35.264143474614457
20
-15.178083172802914
30
0
10
35.416988391774893
20
-15.164249304765484
30
0
10
35.57004602313728
20
-15.149109085604806
30
0
10
35.723305905592909
20
-15.13267302552803
30
0
10
35.876756310893789
20
-15.114952503022201
30
0
10
36.030385189337395
20
-15.095959186538748
30
0
10
36.184180887539689
20
-15.075704718367174
30
0
10
36.338132926516813
20
-15.054200345585432
30
0
10
36.492232800619504
20
-15.03145663694127
30
0
10
36.646474617304257
20
-15.00748318797225
30
0
10
36.80085456047091
20
-14.982288153276928
30
0
10
36.924467298397389
20
-14.961159897000492
30
0
10
37.017237621222947
20
-14.944768651881464
30
0
10
37.079111490147625
20
-14.933599104150755
30
0
10
37.110055171362781
20
-14.927953817533414
30
0
0
ARC
5
186
100
AcDbEntity
8
0
100
AcDbCircle
10
4.4408920985006262e-15
20
-2.2204460492503131e-15
30
0
40
39.999999999999993
210
0
220
0
230
1
100
AcDbArc
50
338.08696584201539
51
341.91303415798438
0
SPLINE
5
187
100
AcDbEntity
8
0
100
AcDbSpline
70
4
71
5
72
56
73
50
74
0
42
0.000000001
43
0.0000000001
44
0.0000000001
40
-1
40
-1
40
-1
40
-1
40
-1
40
-1
40
-0.97777777777777819
40
-0.95555555555555594
40
-0.93333333333333368
40
-0.91111111111111143
40
-0.88888888888888917
40
-0.86666666666666692
40
-0.84444444444444466
40
-0.82222222222222241
40
-0.80000000000000016
40
-0.7777777777777779
40
-0.75555555555555565
40
-0.73333333333333339
40
-0.71111111111111114
40
-0.68888888888888888
40
-0.66666666666666663
40
-0.64444444444444438
40
-0.62222222222222212
40
-0.59999999999999987
40
-0.57777777777777761
40
-0.55555555555555536
40
-0.5333333333333331
40
-0.51111111111111085
40
-0.48888888888888865
40
-0.46666666666666645
40
-0.44444444444444425
40
-0.42222222222222205
40
-0.39999999999999986
40
-0.37777777777777766
40
-0.35555555555555546
40
-0.33333333333333326
40
-0.31111111111111106
40
-0.28888888888888886
40
-0.26666666666666666
40
-0.24444444444444446
40
-0.22222222222222224
40
-0.20000000000000001
40
-0.17777777777777778
40
-0.15555555555555556
40
-0.13333333333333333
40
-0.11111111111111112
40
-0.088888888888888892
40
-0.066666666666666666
40
-0.044444444444444446
40
-0.022222222222222223
40
0
40
0
40
0
40
0
40
0
40
0
41
1
41
1
41
1
41
1
41
1
41
1
41
1
41
1
41
1
41
1
41
1
41
1
41
1
41
1
41
1
41
1
41
1
41
1
41
1
41
1
41
1
41
1
41
1
41
1
41
1
41
1
41
1
41
1
41
1
41
1
41
1
41
1
41
1
41
1
41
1
41
1
41
1
41
1
41
1
41
1
41
1
41
1
41
1
41
1
41
1
41
1
41
1
41
1
41
1
41
1
10
38.023455299744491
20
-12.418407589877727
30
0
10
38.003379784990813
20
-12.39419283455128
30
0
10
37.963161298414036
20
-12.345864708271467
30
0
10
37.902631197397156
20
-12.273676671972948
30
0
10
37.821519327758686
20
-12.178034752320851
30
0
10
37.719452486294543
20
-12.059500721346909
30
0
10
37.616706235685186
20
-11.941991265321757
30
0
10
37.513278257558092
20
-11.825515083971986
30
0
10
37.409166897970898
20
-11.710083315559636
30
0
10
37.304371879168855
20
-11.59570952354108
30
0
10
37.198893999036969
20
-11.482409059438892
30
0
10
37.092734701065851
20
-11.370198332415187
30
0
10
36.985895715527143
20
-11.259094026421909
30
0
10
36.878378712829509
20
-11.149112396658394
30
0
10
36.770184952348302
20
-11.040268219967116
30
0
10
36.661315158132361
20
-10.932575567779526
30
0
10
36.551769485624909
20
-10.826049072747805
30
0
10
36.441547474855589
20
-10.720705059686956
30
0
10
36.330648055932741
20
-10.616562519076084
30
0
10
36.219069510487074
20
-10.513644530775609
30
0
10
36.106809735711764
20
-10.41197717571217
30
0
10
35.993866624846518
20
-10.311587416986379
30
0
10
35.880238483721094
20
-10.212501074784813
30
0
10
35.765924359997761
20
-10.114741130123655
30
0
10
35.650924699552313
20
-10.018324758392215
30
0
10
35.535240619592557
20
-9.923266112676016
30
0
10
35.418872526068576
20
-9.8295818774435233
30
0
10
35.301818857858805
20
-9.7372963230345011
30
0
10
35.184075032701323
20
-9.6464456072998388
30
0
10
35.065631750357738
20
-9.5570846848210582
30
0
10
34.946476434903282
20
-9.4692816869548437
30
0
10
34.826596202520825
20
-9.3831062127416409
30
0
10
34.705980632800411
20
-9.2986184836398564
30
0
10
34.584624094193757
20
-9.2158602405534111
30
0
10
34.462529730075929
20
-9.1348392378842327
30
0
10
34.339705164352978
20
-9.055545925589719
30
0
10
34.216154695064986
20
-8.9779837936125979
30
0
10
34.091872250801728
20
-8.9021968139183478
30
0
10
33.966834889544742
20
-8.8282947484357344
30
0
10
33.84099384884361
20
-8.7564881553443019
30
0
10
33.714280948476642
20
-8.6870628944522572
30
0
10
33.58661973618532
20
-8.6203359650801215
30
0
10
33.457935282120346
20
-8.5566166993615873
30
0
10
33.328164048569121
20
-8.4961676860209643
30
0
10
33.197265184654825
20
-8.4391601052362475
30
0
10
33.065216828956331
20
-8.385688174623656
30
0
10
32.958651429623785
20
-8.3457718851075402
30
0
10
32.878205632447504
20
-8.3174475704225799
30
0
10
32.824343397210043
20
-8.2992809724606822
30
0
10
32.797354353775887
20
-8.2903767425826658
30
0
0
LINE
5
188
100
AcDbEntity
8
0
100
AcDbLine
10
32.797354353775887
20
-8.2903767425826658
30
0
11
30.054685568845439
21
-7.5970965083927666
31
0
0
ARC
5
189
100
AcDbEntity
8
0
100
AcDbCircle
10
30.610692561943438
20
-5.3974909968425528
30
0
40
2.268790026162816
210
0
220
-0
230
1
100
AcDbArc
50
84.185830443931692
51
255.81416955606829
0
LINE
5
190
100
AcDbEntity
8
0
100
AcDbLine
10
30.840526285744222
20
-3.1403723375293713
30
0
11
33.6549077092657
21
-3.4269499882411516
31
0
0
SPLINE
5
191
100
AcDbEntity
8
0
100
AcDbSpline
70
4
71
5
72
56
73
50
74
0
42
0.000000001
43
0.0000000001
44
0.0000000001
40
0
40
0
40
0
40
0
40
0
40
0
40
0.022222222222222223
40
0.044444444444444446
40
0.066666666666666666
40
0.088888888888888892
40
0.11111111111111112
40
0.13333333333333333
40
0.15555555555555556
40
0.17777777777777778
40
0.20000000000000001
40
0.22222222222222224
40
0.24444444444444446
40
0.26666666666666666
40
0.28888888888888886
40
0.31111111111111106
40
0.33333333333333326
40
0.35555555555555546
40
0.37777777777777766
40
0.39999999999999986
40
0.42222222222222205
40
0.44444444444444425
40
0.46666666666666645
40
0.48888888888888865
40
0.51111111111111085
40
0.5333333333333331
40
0.55555555555555536
40
0.57777777777777761
40
0.59999999999999987
40
0.62222222222222212
40
0.64444444444444438
40
0.66666666666666663
40
0.68888888888888888
40
0.71111111111111114
40
0.73333333333333339
40
0.75555555555555565
40
0.7777777777777779
40
0.80000000000000016
40
0.82222222222222241
40
0.84444444444444466
40
0.86666666666666692
40
0.88888888888888917
40
0.91111111111111143
40
0.93333333333333368
40
0.95555555555555594
40
0.97777777777777819
40
1
40
1
40
1
40
1
40
1
40
1
41
1
41
1
41
1
41
1
41
1
41
1
41
1
41
1
41
1
41
1
41
1
41
1
41
1
41
1
41
1
41
1
41
1
41
1
41
1
41
1
41
1
41
1
41
1
41
1
41
1
41
1
41
1
41
1
41
1
41
1
41
1
41
1
41
1
41
1
41
1
41
1
41
1
41
1
41
1
41
1
41
1
41
1
41
1
41
1
41
1
41
1
41
1
41
1
41
1
41
1
10
33.6549077092657
20
-3.4269499882411516
30
0
10
33.683314540201927
20
-3.4278135456340419
30
0
10
33.740141827632272
20
-3.4291644969993129
30
0
10
33.825423635780226
20
-3.4300624305803309
30
0
10
33.939214530225442
20
-3.4290009010258462
30
0
10
34.081587873034252
20
-3.4239169199525818
30
0
10
34.224090310474409
20
-3.4151173651585918
30
0
10
34.366710161239439
20
-3.402698249288445
30
0
10
34.509427265527819
20
-3.386834400914589
30
0
10
34.652211518626089
20
-3.367794303901043
30
0
10
34.79502753374004
20
-3.3458942628891175
30
0
10
34.93783873233977
20
-3.3214583080137028
30
0
10
35.080611413063927
20
-3.2947783786365914
30
0
10
35.223319382488597
20
-3.2660690124657741
30
0
10
35.365946658268612
20
-3.2354411986082345
30
0
10
35.508483906365441
20
-3.2029383337399975
30
0
10
35.650925894311811
20
-3.1685622273181369
30
0
10
35.793268724286413
20
-3.132301297708552
30
0
10
35.935506790321227
20
-3.094161756567849
30
0
10
36.07763110811068
20
-3.0541847536183697
30
0
10
36.219630872685272
20
-3.012430442510301
30
0
10
36.361494386599112
20
-2.9689686314733832
30
0
10
36.503210165059514
20
-2.9238676442603739
30
0
10
36.644768151858017
20
-2.8771823021548979
30
0
10
36.786160286198992
20
-2.8289481496485314
30
0
10
36.927379734111781
20
-2.7791885273354788
30
0
10
37.068420407703783
20
-2.7279189746445165
30
0
10
37.209276416502732
20
-2.6751524090180756
30
0
10
37.349941467193311
20
-2.6209048175442131
30
0
10
37.490408594709812
20
-2.5651981210329189
30
0
10
37.630670560027596
20
-2.5080571619633307
30
0
10
37.770720120930235
20
-2.4495079979165868
30
0
10
37.910550333207503
20
-2.3895758561492855
30
0
10
38.050154917821189
20
-2.3282830123528973
30
0
10
38.189528385014199
20
-2.2656476776650325
30
0
10
38.328665583601726
20
-2.2016853497130544
30
0
10
38.467561362853104
20
-2.1364097255275443
30
0
10
38.606210229672001
20
-2.069833780289521
30
0
10
38.7446059466549
20
-2.0019709689570311
30
0
10
38.882741384525495
20
-1.9328359951074439
30
0
10
39.020609211112664
20
-1.8624439447394492
30
0
10
39.15820245771495
20
-1.7908097437186574
30
0
10
39.295515124035759
20
-1.717947544864791
30
0
10
39.432542832103863
20
-1.6438701886554949
30
0
10
39.569283326606744
20
-1.5685887073151896
30
0
10
39.705735810620205
20
-1.4921120688430853
30
0
10
39.814667499044972
20
-1.429979955987549
30
0
10
39.896236950827181
20
-1.3828479047945399
30
0
10
39.950559158559436
20
-1.3511898536967428
30
0
10
39.97770590571929
20
-1.3353016572359788
30
0
0
ARC
5
192
100
AcDbEntity
8
0
100
AcDbCircle
10
4.4408920985006262e-15
20
-2.2204460492503131e-15
30
0
40
39.999999999999993
210
0
220
0
230
1
100
AcDbArc
50
-1.9130341579843799
51
1.9130341579841823
0
SPLINE
5
193
100
AcDbEntity
8
0
100
AcDbSpline
70
4
71
5
72
56
73
50
74
0
42
0.000000001
43
0.0000000001
44
0.0000000001
40
-1
40
-1
40
-1
40
-1
40
-1
40
-1
40
-0.97777777777777819
40
-0.95555555555555594
40
-0.93333333333333368
40
-0.91111111111111143
40
-0.88888888888888917
40
-0.86666666666666692
40
-0.84444444444444466
40
-0.82222222222222241
40
-0.80000000000000016
40
-0.7777777777777779
40
-0.75555555555555565
40
-0.73333333333333339
40
-0.71111111111111114
40
-0.68888888888888888
40
-0.66666666666666663
40
-0.64444444444444438
40
-0.62222222222222212
40
-0.59999999999999987
40
-0.57777777777777761
40
-0.55555555555555536
40
-0.5333333333333331
40
-0.51111111111111085
40
-0.48888888888888865
40
-0.46666666666666645
40
-0.44444444444444425
40
-0.42222222222222205
40
-0.39999999999999986
40
-0.37777777777777766
40
-0.35555555555555546
40
-0.33333333333333326
40
-0.31111111111111106
40
-0.28888888888888886
40
-0.26666666666666666
40
-0.24444444444444446
40
-0.22222222222222224
40
-0.20000000000000001
40
-0.17777777777777778
40
-0.15555555555555556
40
-0.13333333333333333
40
-0.11111111111111112
40
-0.088888888888888892
40
-0.066666666666666666
40
-0.044444444444444446
40
-0.022222222222222223
40
0
40
0
40
0
40
0
40
0
40
0
41
1
41
1
41
1
41
1
41
1
41
1
41
1
41
1
41
1
41
1
41
1
41
1
41
1
41
1
41
1
41
1
41
1
41
1
41
1
41
1
41
1
41
1
41
1
41
1
41
1
41
1
41
1
41
1
41
1
41
1
41
1
41
1
41
1
41
1
41
1
41
1
41
1
41
1
41
1
41
1
41
1
41
1
41
1
41
1
41
1
41
1
41
1
41
1
41
1
41
1
10
39.97770590571929
20
1.3353016572359806
30
0
10
39.950559158559436
20
1.35118985369699
30
0
10
39.896236950827181
20
1.3828479047952089
30
0
10
39.814667499044972
20
1.4299799559886426
30
0
10
39.705735810620205
20
1.4921120688443539
30
0
10
39.569283326606744
20
1.5685887073162115
30
0
10
39.432542832103863
20
1.6438701886560261
30
0
10
39.295515124035759
20
1.7179475448648134
30
0
10
39.15820245771495
20
1.7908097437183224
30
0
10
39.020609211112664
20
1.8624439447389727
30
0
10
38.882741384525495
20
1.9328359951070206
30
0
10
38.7446059466549
20
2.0019709689567864
30
0
10
38.606210229672001
20
2.0698337802894899
30
0
10
38.467561362853104
20
2.1364097255276806
30
0
10
38.328665583601726
20
2.2016853497132693
30
0
10
38.189528385014199
20
2.2656476776652368
30
0
10
38.050154917821189
20
2.328283012353026
30
0
10
37.910550333207503
20
2.3895758561493139
30
0
10
37.770720120930235
20
2.4495079979165237
30
0
10
37.630670560027596
20
2.508057161963213
30
0
10
37.490408594709812
20
2.5651981210327879
30
0
10
37.349941467193311
20
2.6209048175441141
30
0
10
37.209276416502732
20
2.6751524090180476
30
0
10
37.068420407703783
20
2.7279189746445711
30
0
10
36.927379734111781
20
2.7791885273355996
30
0
10
36.786160286198992
20
2.8289481496486788
30
0
10
36.644768151858017
20
2.8771823021550178
30
0
10
36.503210165059514
20
2.9238676442604152
30
0
10
36.361494386599112
20
2.9689686314733188
30
0
10
36.219630872685272
20
3.0124304425101345
30
0
10
36.07763110811068
20
3.0541847536181477
30
0
10
35.935506790321227
20
3.0941617565676571
30
0
10
35.793268724286413
20
3.1323012977084819
30
0
10
35.650925894311811
20
3.1685622273182656
30
0
10
35.508483906365441
20
3.2029383337403292
30
0
10
35.365946658268612
20
3.2354411986086831
30
0
10
35.223319382488597
20
3.2660690124661729
30
0
10
35.080611413063927
20
3.2947783786367268
30
0
10
34.93783873233977
20
3.3214583080133977
30
0
10
34.79502753374004
20
3.3458942628883426
30
0
10
34.652211518626089
20
3.3677943039000069
30
0
10
34.509427265527819
20
3.3868344009137044
30
0
10
34.366710161239439
20
3.4026982492882163
30
0
10
34.224090310474409
20
3.4151173651594489
30
0
10
34.081587873034252
20
3.4239169199545705
30
0
10
33.939214530225442
20
3.4290009010284805
30
0
10
33.825423635780226
20
3.4300624305826544
30
0
10
33.740141827632272
20
3.4291644970007482
30
0
10
33.683314540201927
20
3.4278135456345726
30
0
10
33.6549077092657
20
3.4269499882411534
30
0
0
LINE
5
194
100
AcDbEntity
8
0
100
AcDbLine
10
33.6549077092657
20
3.4269499882411534
30
0
11
30.840526285744222
21
3.1403723375293757
31
0
0
ARC
5
195
100
AcDbEntity
8
0
100
AcDbCircle
10
30.610692561943438
20
5.3974909968425413
30
0
40
2.2687900261628182
210
0
220
0
230
1
100
AcDbArc
50
104.18583044393156
51
275.81416955606835
0
LINE
5
196
100
AcDbEntity
8
0
100
AcDbLine
10
30.05468556884545
20
7.5970965083927409
30
0
11
32.797354353775901
21
8.2903767425826409
31
0
0
SPLINE
5
197
100
AcDbEntity
8
0
100
AcDbSpline
70
4
71
5
72
56
73
50
74
0
42
0.000000001
43
0.0000000001
44
0.0000000001
40
0
40
0
40
0
40
0
40
0
40
0
40
0.022222222222222223
40
0.044444444444444446
40
0.066666666666666666
40
0.088888888888888892
40
0.11111111111111112
40
0.13333333333333333
40
0.15555555555555556
40
0.17777777777777778
40
0.20000000000000001
40
0.22222222222222224
40
0.24444444444444446
40
0.26666666666666666
40
0.28888888888888886
40
0.31111111111111106
40
0.33333333333333326
40
0.35555555555555546
40
0.37777777777777766
40
0.39999999999999986
40
0.42222222222222205
40
0.44444444444444425
40
0.46666666666666645
40
0.48888888888888865
40
0.51111111111111085
40
0.5333333333333331
40
0.55555555555555536
40
0.57777777777777761
40
0.59999999999999987
40
0.62222222222222212
40
0.64444444444444438
40
0.66666666666666663
40
0.68888888888888888
40
0.71111111111111114
40
0.73333333333333339
40
0.75555555555555565
40
0.7777777777777779
40
0.80000000000000016
40
0.82222222222222241
40
0.84444444444444466
40
0.86666666666666692
40
0.88888888888888917
40
0.91111111111111143
40
0.93333333333333368
40
0.95555555555555594
40
0.97777777777777819
40
1
40
1
40
1
40
1
40
1
40
1
41
1
41
1
41
1
41
1
41
1
41
1
41
1
41
1
41
1
41
1
41
1
41
1
41
1
41
1
41
1
41
1
41
1
41
1
41
1
41
1
41
1
41
1
41
1
41
1
41
1
41
1
41
1
41
1
41
1
41
1
41
1
41
1
41
1
41
1
41
1
41
1
41
1
41
1
41
1
41
1
41
1
41
1
41
1
41
1
41
1
41
1
41
1
41
1
41
1
41
1
10
32.797354353775901
20
8.2903767425826409
30
0
10
32.824343397209866
20
8.2992809724611565
30
0
10
32.87820563244702
20
8.3174475704239033
30
0
10
32.958651429623004
20
8.3457718851096985
30
0
10
33.065216828955442
20
8.3856881746261074
30
0
10
33.19726518465415
20
8.4391601052380913
30
0
10
33.32816404856883
20
8.4961676860217423
30
0
10
33.457935282120431
20
8.5566166993613475
30
0
10
33.586619736185639
20
8.6203359650792617
30
0
10
33.714280948477004
20
8.6870628944512589
30
0
10
33.840993848843887
20
8.7564881553435452
30
0
10
33.966834889544856
20
8.8282947484354217
30
0
10
34.091872250801693
20
8.9021968139184473
30
0
10
34.216154695064859
20
8.9779837936129443
30
0
10
34.339705164352836
20
9.0555459255901116
30
0
10
34.462529730075822
20
9.1348392378845169
30
0
10
34.584624094193721
20
9.2158602405535035
30
0
10
34.705980632800447
20
9.2986184836397623
30
0
10
34.826596202520903
20
9.3831062127414349
30
0
10
34.946476434903374
20
9.4692816869546075
30
0
10
35.065631750357802
20
9.5570846848208735
30
0
10
35.184075032701358
20
9.64644560729975
30
0
10
35.301818857858805
20
9.7372963230345118
30
0
10
35.41887252606854
20
9.8295818774436086
30
0
10
35.535240619592507
20
9.9232661126761261
30
0
10
35.650924699552277
20
10.0183247583923
30
0
10
35.765924359997754
20
10.114741130123676
30
0
10
35.880238483721115
20
10.212501074784758
30
0
10
35.993866624846568
20
10.311587416986258
30
0
10
36.106809735711821
20
10.411977175712019
30
0
10
36.219069510487131
20
10.513644530775469
30
0
10
36.330648055932777
20
10.616562519075996
30
0
10
36.441547474855589
20
10.720705059686955
30
0
10
36.551769485624867
20
10.826049072747896
30
0
10
36.661315158132297
20
10.93257556777969
30
0
10
36.770184952348245
20
11.040268219967288
30
0
10
36.878378712829473
20
11.149112396658493
30
0
10
36.985895715527164
20
11.259094026421852
30
0
10
37.092734701065943
20
11.370198332414926
30
0
10
37.198893999037125
20
11.482409059438467
30
0
10
37.304371879169025
20
11.595709523540606
30
0
10
37.409166897971026
20
11.710083315559295
30
0
10
37.513278257558092
20
11.825515083971979
30
0
10
37.616706235685015
20
11.941991265322226
30
0
10
37.719452486294202
20
12.05950072134784
30
0
10
37.821519327758267
20
12.178034752322016
30
0
10
37.902631197396786
20
12.273676671973945
30
0
10
37.963161298413823
20
12.345864708272067
30
0
10
38.003379784990742
20
12.394192834551486
30
0
10
38.023455299744498
20
12.418407589877701
30
0
0
ARC
5
198
100
AcDbEntity
8
0
100
AcDbCircle
10
4.4408920985006262e-15
20
-2.2204460492503131e-15
30
0
40
40
210
0
220
-0
230
1
100
AcDbArc
50
18.086965842015463
51
21.913034157984242
0
SPLINE
5
199
100
AcDbEntity
8
0
100
AcDbSpline
70
4
71
5
72
56
73
50
74
0
42
0.000000001
43
0.0000000001
44
0.0000000001
40
-1
40
-1
40
-1
40
-1
40
-1
40
-1
40
-0.97777777777777819
40
-0.95555555555555594
40
-0.93333333333333368
40
-0.91111111111111143
40
-0.88888888888888917
40
-0.86666666666666692
40
-0.84444444444444466
40
-0.82222222222222241
40
-0.80000000000000016
40
-0.7777777777777779
40
-0.75555555555555565
40
-0.73333333333333339
40
-0.71111111111111114
40
-0.68888888888888888
40
-0.66666666666666663
40
-0.64444444444444438
40
-0.62222222222222212
40
-0.59999999999999987
40
-0.57777777777777761
40
-0.55555555555555536
40
-0.5333333333333331
40
-0.51111111111111085
40
-0.48888888888888865
40
-0.46666666666666645
40
-0.44444444444444425
40
-0.42222222222222205
40
-0.39999999999999986
40
-0.37777777777777766
40
-0.35555555555555546
40
-0.33333333333333326
40
-0.31111111111111106
40
-0.28888888888888886
40
-0.26666666666666666
40
-0.24444444444444446
40
-0.22222222222222224
40
-0.20000000000000001
40
-0.17777777777777778
40
-0.15555555555555556
40
-0.13333333333333333
40
-0.11111111111111112
40
-0.088888888888888892
40
-0.066666666666666666
40
-0.044444444444444446
40
-0.022222222222222223
40
0
40
0
40
0
40
0
40
0
40
0
41
1
41
1
41
1
41
1
41
1
41
1
41
1
41
1
41
1
41
1
41
1
41
1
41
1
41
1
41
1
41
1
41
1
41
1
41
1
41
1
41
1
41
1
41
1
41
1
41
1
41
1
41
1
41
1
41
1
41
1
41
1
41
1
41
1
41
1
41
1
41
1
41
1
41
1
41
1
41
1
41
1
41
1
41
1
41
1
41
1
41
1
41
1
41
1
41
1
41
1
10
37.110055171362795
20
14.927953817533389
30
0
10
37.079111490147554
20
14.933599104150959
30
0
10
37.017237621222733
20
14.944768651882063
30
0
10
36.924467298397026
20
14.96115989700149
30
0
10
36.800854560470484
20
14.982288153278091
30
0
10
36.646474617303923
20
15.007483187973181
30
0
10
36.492232800619341
20
15.031456636941741
30
0
10
36.338132926516813
20
15.054200345585425
30
0
10
36.184180887539824
20
15.075704718366833
30
0
10
36.030385189337572
20
15.095959186538275
30
0
10
35.876756310893953
20
15.114952503021776
30
0
10
35.723305905593001
20
15.132673025527769
30
0
10
35.570046023137309
20
15.149109085604753
30
0
10
35.416988391774858
20
15.164249304765585
30
0
10
35.2641434746144
20
15.178083172803088
30
0
10
35.111520871251301
20
15.190600375785003
30
0
10
34.959130106449507
20
15.201789804366426
30
0
10
34.806981321240109
20
15.211638657350285
30
0
10
34.655085902883194
20
15.2201316994725
30
0
10
34.503457370479829
20
15.227250145987739
30
0
10
34.352110877683032
20
15.232972666088919
30
0
10
34.201062142167785
20
15.237277250643235
30
0
10
34.05032646302039
20
15.240143031248596
30
0
10
33.899917882620279
20
15.241551791274357
30
0
10
33.749847782655571
20
15.241490660212424
30
0
10
33.600126116385105
20
15.239949514297615
30
0
10
33.450763919354308
20
15.236915833425259
30
0
10
33.301775596348357
20
15.232370021966853
30
0
10
33.153180878969494
20
15.226281435980439
30
0
10
33.005007966945904
20
15.218601999736235
30
0
10
32.857291020552196
20
15.209271437938419
30
0
10
32.71006490761269
20
15.198228153070799
30
0
10
32.563360355237556
20
15.185419314709399
30
0
10
32.417199879946381
20
15.170809327577256
30
0
10
32.271590874137644
20
15.154394271980408
30
0
10
32.126533039413154
20
15.13618636422828
30
0
10
31.982031911554586
20
15.116185693596535
30
0
10
31.838111104226442
20
15.094354672978106
30
0
10
31.694823596430801
20
15.070594473012186
30
0
10
31.552267378152415
20
15.044712452876436
30
0
10
31.410573967454141
20
15.016445805851536
30
0
10
31.269888561743713
20
14.985502553805034
30
0
10
31.130352596289242
20
14.951597570596093
30
0
10
30.992086187157494
20
14.914488860337233
30
0
10
30.855168073258746
20
14.874019032966874
30
0
10
30.719642069689126
20
14.83010186135302
30
0
10
30.61235054137606
20
14.792180594814511
30
0
10
30.532518966944533
20
14.762168717007803
30
0
10
30.479580836866841
20
14.741463160986235
30
0
10
30.453182501479624
20
14.730935974087775
30
0
0
LINE
5
200
100
AcDbEntity
8
0
100
AcDbLine
10
30.453182501479624
20
14.730935974087773
30
0
11
27.906544374889926
21
13.49906593258584
31
0
0
ARC
5
201
100
AcDbEntity
8
0
100
AcDbCircle
10
26.918591273265243
20
15.541455917825207
30
0
40
2.2687900261628124
210
0
220
0
230
1
100
AcDbArc
50
124.18583044393178
51
295.81416955606835
0
LINE
5
202
100
AcDbEntity
8
0
100
AcDbLine
10
25.643806212425368
20
17.418243394199486
30
0
11
27.983956025821893
21
19.007761685321203
31
0
0
SPLINE
5
203
100
AcDbEntity
8
0
100
AcDbSpline
70
4
71
5
72
56
73
50
74
0
42
0.000000001
43
0.0000000001
44
0.0000000001
40
0
40
0
40
0
40
0
40
0
40
0
40
0.022222222222222223
40
0.044444444444444446
40
0.066666666666666666
40
0.088888888888888892
40
0.11111111111111112
40
0.13333333333333333
40
0.15555555555555556
40
0.17777777777777778
40
0.20000000000000001
40
0.22222222222222224
40
0.24444444444444446
40
0.26666666666666666
40
0.28888888888888886
40
0.31111111111111106
40
0.33333333333333326
40
0.35555555555555546
40
0.37777777777777766
40
0.39999999999999986
40
0.42222222222222205
40
0.44444444444444425
40
0.46666666666666645
40
0.48888888888888865
40
0.51111111111111085
40
0.5333333333333331
40
0.55555555555555536
40
0.57777777777777761
40
0.59999999999999987
40
0.62222222222222212
40
0.64444444444444438
40
0.66666666666666663
40
0.68888888888888888
40
0.71111111111111114
40
0.73333333333333339
40
0.75555555555555565
40
0.7777777777777779
40
0.80000000000000016
40
0.82222222222222241
40
0.84444444444444466
40
0.86666666666666692
40
0.88888888888888917
40
0.91111111111111143
40
0.93333333333333368
40
0.95555555555555594
40
0.97777777777777819
40
1
40
1
40
1
40
1
40
1
40
1
41
1
41
1
41
1
41
1
41
1
41
1
41
1
41
1
41
1
41
1
41
1
41
1
41
1
41
1
41
1
41
1
41
1
41
1
41
1
41
1
41
1
41
1
41
1
41
1
41
1
41
1
41
1
41
1
41
1
41
1
41
1
41
1
41
1
41
1
41
1
41
1
41
1
41
1
41
1
41
1
41
1
41
1
41
1
41
1
41
1
41
1
41
1
41
1
41
1
41
1
10
27.983956025821893
20
19.007761685321203
30
0
10
28.006272004799612
20
19.025359720935334
30
0
10
28.050672607352038
20
19.060852708401367
30
0
10
28.116579443163111
20
19.114982940980504
30
0
10
28.203065987485477
20
19.188939496841463
30
0
10
28.30886237555066
20
19.28434987299871
30
0
10
28.412369331090265
20
19.382689524187231
30
0
10
28.513639621442685
20
19.483877391855113
30
0
10
28.612770180944167
20
19.587766591075301
30
0
10
28.709910526147461
20
19.694132100338891
30
0
10
28.805236865899797
20
19.802708870040203
30
0
10
28.898929461977506
20
19.913225166469214
30
0
10
28.991150152644529
20
20.025435688282577
30
0
10
29.082016774754536
20
20.139159253252899
30
0
10
29.171588427543604
20
20.254300565538092
30
0
10
29.259885855569028
20
20.370820381551308
30
0
10
29.346906213624933
20
20.488713951802886
30
0
10
29.43263907127605
20
20.607987642868029
30
0
10
29.517084126877631
20
20.728633092894924
30
0
10
29.60026094858399
20
20.850613004367137
30
0
10
29.6821999253293
20
20.973874351614693
30
0
10
29.762936968215254
20
21.098356139457817
30
0
10
29.842507197041979
20
21.223998646582956
30
0
10
29.9209381467487
20
21.35075341344421
30
0
10
29.998246489966512
20
21.478588030001777
30
0
10
30.074441994614926
20
21.60748022353151
30
0
10
30.149529985649913
20
21.737414176918399
30
0
10
30.22351425387988
20
21.868376208504866
30
0
10
30.296400254647704
20
22.00035002620584
30
0
10
30.36819674282858
20
22.133314360648701
30
0
10
30.438914141445679
20
22.267245528234998
30
0
10
30.508563652129649
20
22.402118912492526
30
0
10
30.577156171074797
20
22.537910724569254
30
0
10
30.644701206797276
20
22.674599864207543
30
0
10
30.711206259792775
20
22.812168852118809
30
0
10
30.776677345707654
20
22.950602505313928
30
0
10
30.841119323134851
20
23.089887020432908
30
0
10
30.904536324404042
20
23.230008927016151
30
0
10
30.966932220067235
20
23.370953908642132
30
0
10
31.028311000059293
20
23.512706119106632
30
0
10
31.088676744704308
20
23.655249288835421
30
0
10
31.148033709828731
20
23.79856750455717
30
0
10
31.206386396195853
20
23.942646067666633
30
0
10
31.263739703785085
20
24.087472327681635
30
0
10
31.320098996303962
20
24.233036383741002
30
0
10
31.375469427791902
20
24.379330853705778
30
0
10
31.418978190082079
20
24.496946753119676
30
0
10
31.451168116822124
20
24.585483831963412
30
0
10
31.472431939200884
20
24.644652948147968
30
0
10
31.483014818186206
20
24.674273605475566
30
0
0
ARC
5
204
100
AcDbEntity
8
0
100
AcDbCircle
10
4.4408920985006262e-15
20
-2.2204460492503131e-15
30
0
40
40
210
0
220
-0
230
1
100
AcDbArc
50
38.086965842015481
51
41.91303415798432
0
SPLINE
5
205
100
AcDbEntity
8
0
100
AcDbSpline
70
4
71
5
72
56
73
50
74
0
42
0.000000001
43
0.0000000001
44
0.0000000001
40
-1
40
-1
40
-1
40
-1
40
-1
40
-1
40
-0.97777777777777819
40
-0.95555555555555594
40
-0.93333333333333368
40
-0.91111111111111143
40
-0.88888888888888917
40
-0.86666666666666692
40
-0.84444444444444466
40
-0.82222222222222241
40
-0.80000000000000016
40
-0.7777777777777779
40
-0.75555555555555565
40
-0.73333333333333339
40
-0.71111111111111114
40
-0.68888888888888888
40
-0.66666666666666663
40
-0.64444444444444438
40
-0.62222222222222212
40
-0.59999999999999987
40
-0.57777777777777761
40
-0.55555555555555536
40
-0.5333333333333331
40
-0.51111111111111085
40
-0.48888888888888865
40
-0.46666666666666645
40
-0.44444444444444425
40
-0.42222222222222205
40
-0.39999999999999986
40
-0.37777777777777766
40
-0.35555555555555546
40
-0.33333333333333326
40
-0.31111111111111106
40
-0.28888888888888886
40
-0.26666666666666666
40
-0.24444444444444446
40
-0.22222222222222224
40
-0.20000000000000001
40
-0.17777777777777778
40
-0.15555555555555556
40
-0.13333333333333333
40
-0.11111111111111112
40
-0.088888888888888892
40
-0.066666666666666666
40
-0.044444444444444446
40
-0.022222222222222223
40
0
40
0
40
0
40
0
40
0
40
0
41
1
41
1
41
1
41
1
41
1
41
1
41
1
41
1
41
1
41
1
41
1
41
1
41
1
41
1
41
1
41
1
41
1
41
1
41
1
41
1
41
1
41
1
41
1
41
1
41
1
41
1
41
1
41
1
41
1
41
1
41
1
41
1
41
1
41
1
41
1
41
1
41
1
41
1
41
1
41
1
41
1
41
1
41
1
41
1
41
1
41
1
41
1
41
1
41
1
41
1
10
29.766384097255827
20
26.720074434301932
30
0
10
29.735375746619859
20
26.714795906194428
30
0
10
29.673413118255851
20
26.704129738257084
30
0
10
29.580631394463577
20
26.687803151232078
30
0
10
29.457247127558919
20
26.665379171402765
30
0
10
29.303560224790441
20
26.636253709297748
30
0
10
29.150420925383088
20
26.606027574139016
30
0
10
28.997835604334842
20
26.57469440829378
30
0
10
28.845813080692384
20
26.542247210274908
30
0
10
28.694364961876136
20
26.508678957811547
30
0
10
28.543504941637131
20
26.473982666131096
30
0
10
28.393247952471921
20
26.438151380752043
30
0
10
28.243609308242551
20
26.4011782581576
30
0
10
28.094603921568915
20
26.363056617364443
30
0
10
27.946245219259662
20
26.323780160602396
30
0
10
27.798545749556315
20
26.2833424792004
30
0
10
27.651518262429001
20
26.24173639145015
30
0
10
27.505176665597048
20
26.198953336598144
30
0
10
27.35953687035196
20
26.154982892851471
30
0
10
27.214618005254522
20
26.109812032128438
30
0
10
27.070441605646359
20
26.063425892881625
30
0
10
26.92702996887741
20
26.015809169052773
30
0
10
26.784404608800067
20
25.966947483354133
30
0
10
26.642584951389271
20
25.916828520528945
30
0
10
26.501586093906397
20
25.865444079022325
30
0
10
26.361420851886944
20
25.812788049821837
30
0
10
26.222103877479501
20
25.758852442256355
30
0
10
26.083655408854078
20
25.703623769185061
30
0
10
25.946104468497111
20
25.647079983327252
30
0
10
25.809493998353084
20
25.589185553149491
30
0
10
25.673876713945283
20
25.529895521903082
30
0
10
25.539306447902248
20
25.469163932354896
30
0
10
25.405830143331841
20
25.406951649435978
30
0
10
25.273481133143086
20
25.343232925630488
30
0
10
25.142267704532575
20
25.278006605980128
30
0
10
25.012185398873839
20
25.21128406800252
30
0
10
24.883239387565975
20
25.143067288938195
30
0
10
24.755464715743027
20
25.073329024808913
30
0
10
24.628944969014452
20
25.0019945262795
30
0
10
24.503838114887493
20
24.928916284739365
30
0
10
24.380357625107138
20
24.853892324480384
30
0
10
24.258739803008673
20
24.776697936244251
30
0
10
24.139215073153451
20
24.697113562811115
30
0
10
24.021979075191148
20
24.614952884545616
30
0
10
23.90715963006614
20
24.530094933461683
30
0
10
23.794827401916994
20
24.442473668205118
30
0
10
23.706976181504956
20
24.37014346997676
30
0
10
23.642223706854853
20
24.314637523336884
30
0
10
23.599559853900779
20
24.27707475829758
30
0
10
23.578354042908206
20
24.25815367599877
30
0
0
LINE
5
206
100
AcDbEntity
8
0
100
AcDbLine
10
23.578354042908206
20
24.25815367599877
30
0
11
21.606621355692898
21
22.229572951177346
31
0
0
ARC
5
207
100
AcDbEntity
8
0
100
AcDbCircle
10
19.979710600935167
20
23.810891887657093
30
0
40
2.268790026162816
210
0
220
0
230
1
100
AcDbArc
50
144.18583044393148
51
315.81416955606835
0
LINE
5
208
100
AcDbEntity
8
0
100
AcDbLine
10
18.139905364514476
20
25.138493060771545
30
0
11
19.795279601948476
21
27.43253004412427
31
0
0
SPLINE
5
209
100
AcDbEntity
8
0
100
AcDbSpline
70
4
71
5
72
56
73
50
74
0
42
0.000000001
43
0.0000000001
44
0.0000000001
40
0
40
0
40
0
40
0
40
0
40
0
40
0.022222222222222223
40
0.044444444444444446
40
0.066666666666666666
40
0.088888888888888892
40
0.11111111111111112
40
0.13333333333333333
40
0.15555555555555556
40
0.17777777777777778
40
0.20000000000000001
40
0.22222222222222224
40
0.24444444444444446
40
0.26666666666666666
40
0.28888888888888886
40
0.31111111111111106
40
0.33333333333333326
40
0.35555555555555546
40
0.37777777777777766
40
0.39999999999999986
40
0.42222222222222205
40
0.44444444444444425
40
0.46666666666666645
40
0.48888888888888865
40
0.51111111111111085
40
0.5333333333333331
40
0.55555555555555536
40
0.57777777777777761
40
0.59999999999999987
40
0.62222222222222212
40
0.64444444444444438
40
0.66666666666666663
40
0.68888888888888888
40
0.71111111111111114
40
0.73333333333333339
40
0.75555555555555565
40
0.7777777777777779
40
0.80000000000000016
40
0.82222222222222241
40
0.84444444444444466
40
0.86666666666666692
40
0.88888888888888917
40
0.91111111111111143
40
0.93333333333333368
40
0.95555555555555594
40
0.97777777777777819
40
1
40
1
40
1
40
1
40
1
40
1
41
1
41
1
41
1
41
1
41
1
41
1
41
1
41
1
41
1
41
1
41
1
41
1
41
1
41
1
41
1
41
1
41
1
41
1
41
1
41
1
41
1
41
1
41
1
41
1
41
1
41
1
41
1
41
1
41
1
41
1
41
1
41
1
41
1
41
1
41
1
41
1
41
1
41
1
41
1
41
1
41
1
41
1
41
1
41
1
41
1
41
1
41
1
41
1
41
1
41
1
10
19.795279601948476
20
27.43253004412427
30
0
10
19.810230880056459
20
27.456699302659608
30
0
10
19.839814481973232
20
27.50523770151981
30
0
10
19.883233019339279
20
27.578644947066095
30
0
10
19.939209155000839
20
27.677721517152257
30
0
10
20.005992969643437
20
27.803562439383018
30
0
10
20.069623550369926
20
27.931372947704393
30
0
10
20.130178205916351
20
28.061094919485932
30
0
10
20.187798262366996
20
28.192623481541151
30
0
10
20.242701181211885
20
28.325798320491415
30
0
10
20.295143196908608
20
28.460430638153316
30
0
10
20.345386638520637
20
28.596326741523296
30
0
10
20.393667482270956
20
28.733311474685376
30
0
10
20.440158426552813
20
28.871254884615038
30
0
10
20.484947599579819
20
29.010087635641874
30
0
10
20.528067916956559
20
29.149779945913373
30
0
10
20.56951832948522
20
29.290326379251415
30
0
10
20.609286858265783
20
29.431729350860781
30
0
10
20.647376079766655
20
29.57398090000245
30
0
10
20.683817138539968
20
29.717052671178386
30
0
10
20.71865672669016
20
29.860905230185434
30
0
10
20.75194945119463
20
30.005493542623398
30
0
10
20.783748739762608
20
30.150773500493703
30
0
10
20.814097040914149
20
30.296708984222526
30
0
10
20.843021106684109
20
30.443275240710292
30
0
10
20.870537733634684
20
30.590454681267715
30
0
10
20.896657335359645
20
30.738234263910734
30
0
10
20.921388153456167
20
30.886602428619533
30
0
10
20.944740886490965
20
31.035545731679125
30
0
10
20.966731035909525
20
31.185047180760691
30
0
10
20.98737649641755
20
31.335088085445413
30
0
10
21.006696213434047
20
31.485649144999329
30
0
10
21.02470856229899
20
31.636711731931669
30
0
10
21.041429694807967
20
31.788259270590085
30
0
10
21.056872637390242
20
31.940277901136685
30
0
10
21.071048235792396
20
32.092755413700871
30
0
10
21.083965776625551
20
32.245680499103756
30
0
10
21.095633750177907
20
32.399041912593859
30
0
10
21.10606069008319
20
32.552827524942252
30
0
10
21.115255765374773
20
32.70702381022587
30
0
10
21.123228374825199
20
32.861616875598905
30
0
10
21.12998796026254
20
33.016593223056056
30
0
10
21.135543778239896
20
33.17194057977818
30
0
10
21.139904759951513
20
33.327648734092172
30
0
10
21.143079331927723
20
33.483710216727864
30
0
10
21.145074862221573
20
33.640119853529065
30
0
10
21.145732718310263
20
33.765523519409811
30
0
10
21.145699890535749
20
33.85973076242248
30
0
10
21.145444317916883
20
33.922604199857162
30
0
10
21.145258109741466
20
33.954058070758094
30
0
0
ARC
5
210
100
AcDbEntity
8
0
100
AcDbCircle
10
4.4408920985006262e-15
20
-2.2204460492503131e-15
30
0
40
40
210
0
220
-0
230
1
100
AcDbArc
50
58.086965842015481
51
61.913034157984448
0
SPLINE
5
211
100
AcDbEntity
8
0
100
AcDbSpline
70
4
71
5
72
56
73
50
74
0
42
0.000000001
43
0.0000000001
44
0.0000000001
40
-1
40
-1
40
-1
40
-1
40
-1
40
-1
40
-0.97777777777777819
40
-0.95555555555555594
40
-0.93333333333333368
40
-0.91111111111111143
40
-0.88888888888888917
40
-0.86666666666666692
40
-0.84444444444444466
40
-0.82222222222222241
40
-0.80000000000000016
40
-0.7777777777777779
40
-0.75555555555555565
40
-0.73333333333333339
40
-0.71111111111111114
40
-0.68888888888888888
40
-0.66666666666666663
40
-0.64444444444444438
40
-0.62222222222222212
40
-0.59999999999999987
40
-0.57777777777777761
40
-0.55555555555555536
40
-0.5333333333333331
40
-0.51111111111111085
40
-0.48888888888888865
40
-0.46666666666666645
40
-0.44444444444444425
40
-0.42222222222222205
40
-0.39999999999999986
40
-0.37777777777777766
40
-0.35555555555555546
40
-0.33333333333333326
40
-0.31111111111111106
40
-0.28888888888888886
40
-0.26666666666666666
40
-0.24444444444444446
40
-0.22222222222222224
40
-0.20000000000000001
40
-0.17777777777777778
40
-0.15555555555555556
40
-0.13333333333333333
40
-0.11111111111111112
40
-0.088888888888888892
40
-0.066666666666666666
40
-0.044444444444444446
40
-0.022222222222222223
40
0
40
0
40
0
40
0
40
0
40
0
41
1
41
1
41
1
41
1
41
1
41
1
41
1
41
1
41
1
41
1
41
1
41
1
41
1
41
1
41
1
41
1
41
1
41
1
41
1
41
1
41
1
41
1
41
1
41
1
41
1
41
1
41
1
41
1
41
1
41
1
41
1
41
1
41
1
41
1
41
1
41
1
41
1
41
1
41
1
41
1
41
1
41
1
41
1
41
1
41
1
41
1
41
1
41
1
41
1
41
1
10
18.832447795977828
20
35.289359727994068
30
0
10
18.80511484064235
20
35.273794053554028
30
0
10
18.75053706029086
20
35.242578667217352
30
0
10
18.668934780733771
20
35.195503475397906
30
0
10
18.56066094839754
20
35.132231922372782
30
0
10
18.426203994678144
20
35.052298924043562
30
0
10
18.292638072151899
20
34.971518922747933
30
0
10
18.159971345795846
20
34.889888124642987
30
0
10
18.028214497452712
20
34.807402966774546
30
0
10
17.897380836287887
20
34.724060820338117
30
0
10
17.767485619151099
20
34.639859805333103
30
0
10
17.638545256571931
20
34.554798493899163
30
0
10
17.51057647949413
20
34.468875692883366
30
0
10
17.383595586227447
20
34.382090224631369
30
0
10
17.257617347809148
20
34.29444076341403
30
0
10
17.132655747623794
20
34.205925578801825
30
0
10
17.008725223013119
20
34.116542282943044
30
0
10
16.885841770908499
20
34.026287588080969
30
0
10
16.764023907496252
20
33.935157142915891
30
0
10
16.643294063610156
20
33.843145247408685
30
0
10
16.523677558800408
20
33.750245301793541
30
0
10
16.405200580702438
20
33.656450549223287
30
0
10
16.287888263046604
20
33.561754837637594
30
0
10
16.171763072344099
20
33.466153238555279
30
0
10
16.056842000477005
20
33.369643208603257
30
0
10
15.943139179514763
20
33.272223390358903
30
0
10
15.830671110943772
20
33.173891286377483
30
0
10
15.719461425296881
20
33.074641144754096
30
0
10
15.609544935404546
20
32.97446217409675
30
0
10
15.500974145995269
20
32.873335672695653
30
0
10
15.39381396957091
20
32.771237424796652
30
0
10
15.288130710554743
20
32.668142656570204
30
0
10
15.183981866020702
20
32.5640306485693
30
0
10
15.08140756482649
20
32.458888606569616
30
0
10
14.980415989408598
20
32.352718279653537
30
0
10
14.880999058688417
20
32.245528834250329
30
0
10
14.783160955935442
20
32.137323897081018
30
0
10
14.686943930792857
20
32.028089853322037
30
0
10
14.592452093819407
20
31.917785049536846
30
0
10
14.49988433683211
20
31.80632490104205
30
0
10
14.409510337415114
20
31.69359262439194
30
0
10
14.321629003161595
20
31.579457882455294
30
0
10
14.236531955323295
20
31.463793168774259
30
0
10
14.154466760103748
20
31.346490312863416
30
0
10
14.075594903389101
20
31.227479359336598
30
0
10
14.000005375222333
20
31.106722418179416
30
0
10
13.942190616438941
20
31.008707377647589
30
0
10
13.900327345657807
20
30.934402198519845
30
0
10
13.873083660145021
20
30.884512848293912
30
0
10
13.859628107317231
20
30.859480032365422
30
0
0
LINE
5
212
100
AcDbEntity
8
0
100
AcDbLine
10
13.859628107317231
20
30.859480032365422
30
0
11
12.700620921229778
21
28.278865398300912
31
0
0
ENDSEC
0
SECTION
2
OBJECTS
0
DICTIONARY
5
C
100
AcDbDictionary
3
ACAD_GROUP
350
D
3
ACAD_MLINESTYLE
350
17
0
DICTIONARY
5
D
100
AcDbDictionary
0
DICTIONARY
5
1A
330
C
100
AcDbDictionary
0
DICTIONARY
5
17
100
AcDbDictionary
0
ENDSEC
0
EOF
