0
SECTION
2
HEADER
9
$INSUNITS
70
4
9
$ACADVER
1
AC1014
9
$HANDSEED
5
FFFF
0
ENDSEC
0
SECTION
2
TABLES
0
TABLE
2
VPORT
5
8
100
AcDbSymbolTable
0
ENDTAB
0
TABLE
2
LTYPE
5
5
100
AcDbSymbolTable
0
LTYPE
5
14
100
AcDbSymbolTableRecord
100
AcDbLinetypeTableRecord
2
BYBLOCK
70
0
0
LTYPE
5
15
100
AcDbSymbolTableRecord
100
AcDbLinetypeTableRecord
2
BYLAYER
70
0
0
LTYPE
5
16
100
AcDbSymbolTableRecord
100
AcDbLinetypeTableRecord
2
DASHED
70
0
3
Dashed __ __ __ __ __ __ __ __ __ __ __ __ __ _
72
65
73
2
40
0.75
49
0.5
74
0
49
-0.25
74
0
0
ENDTAB
0
TABLE
2
LAYER
5
2
100
AcDbSymbolTable
70
3
0
LAYER
5
50
100
AcDbSymbolTableRecord
100
AcDbLayerTableRecord
2
1
70
0
62
7
6
DASHED
0
LAYER
5
51
100
AcDbSymbolTableRecord
100
AcDbLayerTableRecord
2
0
70
0
62
7
6
CONTINUOUS
0
ENDTAB
0
TABLE
2
STYLE
5
3
100
AcDbSymbolTable
70
1
0
STYLE
5
11
100
AcDbSymbolTableRecord
100
AcDbTextStyleTableRecord
2
STANDARD
70
0
0
ENDTAB
0
TABLE
2
VIEW
5
6
100
AcDbSymbolTable
70
0
0
ENDTAB
0
TABLE
2
UCS
5
7
100
AcDbSymbolTable
70
0
0
ENDTAB
0
TABLE
2
APPID
5
9
100
AcDbSymbolTable
70
2
0
APPID
5
12
100
AcDbSymbolTableRecord
100
AcDbRegAppTableRecord
2
ACAD
70
0
0
ENDTAB
0
TABLE
2
DIMSTYLE
5
A
100
AcDbSymbolTable
70
1
0
ENDTAB
0
TABLE
2
BLOCK_RECORD
5
1
100
AcDbSymbolTable
70
1
0
BLOCK_RECORD
5
1F
100
AcDbSymbolTableRecord
100
AcDbBlockTableRecord
2
*MODEL_SPACE
0
BLOCK_RECORD
5
1B
100
AcDbSymbolTableRecord
100
AcDbBlockTableRecord
2
*PAPER_SPACE
0
ENDTAB
0
ENDSEC
0
SECTION
2
BLOCKS
0
BLOCK
5
20
100
AcDbEntity
100
AcDbBlockBegin
2
*MODEL_SPACE
0
ENDBLK
5
21
100
AcDbEntity
100
AcDbBlockEnd
0
BLOCK
5
1C
100
AcDbEntity
100
AcDbBlockBegin
2
*PAPER_SPACE
0
ENDBLK
5
1D
100
AcDbEntity
100
AcDbBlockEnd
0
ENDSEC
0
SECTION
2
ENTITIES
0
LWPOLYLINE
5
100
100
AcDbEntity
8
0
100
AcDbPolyline
90
17
70
1
43
0.0
10
-159.75473931954036
20
209.52958715587243
10
-180.37225894502649
20
227.99365657776775
42
-0.63772833085940916
10
-175.10072861887301
20
245.34459436199256
42
0.19111965361175307
10
-152.67496079450075
20
258.12896361811062
42
-0.481480262916192
10
-137.04026248888397
20
258.10340316450953
10
-123.6808276190317
20
241.30018806608336
42
-0.39899575556146294
10
-124.88486765090131
20
227.58493918341318
42
0.94908330830086407
10
-100.02559202846798
20
196.31746720243467
42
-0.39899575556146283
10
-86.391914185381694
20
194.39898009461547
10
-48.487260538458358
20
146.7233070840816
42
-0.62782510535391423
10
-56.314804785361055
20
130.49999999999994
10
-125.78644374077042
20
130.49999999999989
42
-0.34320634200659511
10
-135.47961931094557
20
138.04188133611072
10
-135.6933991944845
20
138.88488618162776
42
-0.36597738186304529
10
-130.03949057465428
20
150.49091840566007
42
0.84819209427252029
10
-139.87549028895293
20
188.70937873328126
42
-0.34082127837916426
10
-150.16536622830077
20
195.28980982853381
42
0.12452746056469202
0
LWPOLYLINE
5
101
100
AcDbEntity
8
0
100
AcDbPolyline
90
7
70
1
43
0.0
10
-153.63862371187207
20
36.657462788760967
10
-134.19102593840722
20
53.150466987300376
42
0.20391416989638206
10
-121.89784720874709
20
77.647276896377221
42
-0.96908476953634426
10
-100.49999999999999
20
76.975205797597667
10
-100.49999999999997
20
25.000000000000053
42
-0.41421356237309542
10
-110.49999999999997
20
15.000000000000044
10
-145.69159134251782
20
15.000000000000075
42
-0.69825584705485244
0
CIRCLE
5
102
100
AcDbEntity
8
0
100
AcDbCircle
10
-138.11802447534407
20
168.78674552594646
30
0
40
7.5
210
0
220
-0
230
1
0
CIRCLE
5
103
100
AcDbEntity
8
0
100
AcDbCircle
10
-180
20
280
30
0
40
16.000000000000014
210
0
220
0
230
1
0
CIRCLE
5
104
100
AcDbEntity
8
0
100
AcDbCircle
10
-174.39328721169829
20
12.500000000027498
30
0
40
7.5
210
0
220
0
230
1
0
CIRCLE
5
105
100
AcDbEntity
8
0
100
AcDbCircle
10
-111.63785922083507
20
212.60105558623607
30
0
40
3.9999999999999858
210
0
220
0
230
1
0
CIRCLE
5
106
100
AcDbEntity
8
0
100
AcDbCircle
10
-118.44588963590033
20
106.81991018750472
30
0
40
4.0000000000000036
210
0
220
0
230
1
0
LWPOLYLINE
5
107
100
AcDbEntity
8
0
100
AcDbPolyline
90
21
70
1
43
0.0
10
-88.499999999999972
20
4.3298697960381105e-14
42
0.41421356237309359
10
-85.499999999999972
20
3.0000000000000426
10
-85.5
20
112.49999999999997
42
-0.41421356237309503
10
-82.5
20
115.49999999999997
10
-10.738962979019355
20
115.49999999999997
42
0.61253403020456176
10
-8.3105446811992536
20
120.26147227364282
42
0.011043962197638622
10
-8.8449115061945367
20
120.96493795085372
10
-152.60359513584058
20
301.78157479428569
42
0.64037209530505035
10
-214.35974531002228
20
286.6639254370379
10
-220.19224937335531
20
256.59105682089796
42
0.26388416752980193
10
-213.90075349486409
20
237.88431279585325
10
-169.76172254353858
20
198.35549718153371
42
-0.14911231400540073
10
-163.71801570185266
20
188.37294787686031
10
-137.44251020538809
20
84.759932071769811
42
-0.2864120501265951
10
-143.89295539869201
20
64.590421740168026
10
-179.90293059130951
20
34.051294030960555
42
-0.15525685092740002
10
-191.0957216834027
20
29.380673072949154
10
-245.4357787137383
20
24.626534107442602
42
0.38887873185298832
10
-250
20
19.645560616983872
10
-250
20
5.0000000000001137
42
0.41421356237309415
10
-245
20
1.2878587085651816e-13
0
LWPOLYLINE
5
108
100
AcDbEntity
8
0
100
AcDbPolyline
90
9
70
1
43
0.0
10
-82.5
20
115.49999999999997
42
0.41421356237309503
10
-85.5
20
112.49999999999997
10
-85.499999999999972
20
3.0000000000000431
42
-0.41421356237309498
10
-88.499999999999972
20
4.3298697960381105e-14
10
-9.4999999999999574
20
1.6653345369377348e-15
42
0.41421356237309509
10
-4.4999999999999574
20
5.0000000000000009
10
-4.4999999999999574
20
108.51832378269053
42
0.15818562615165238
10
-8.3105446811992447
20
120.26147227364282
42
-0.61253403020456132
10
-10.738962979019359
20
115.49999999999997
0
LWPOLYLINE
5
109
100
AcDbEntity
8
0
100
AcDbPolyline
90
4
70
1
43
0.0
10
-62.499999999999964
20
29.999999999999972
10
-62.499999999999964
20
59.999999999999964
42
-0.99999999999999989
10
-27.499999999999964
20
59.999999999999964
10
-27.499999999999964
20
29.999999999999982
42
-0.99999999999999989
0
LWPOLYLINE
5
110
100
AcDbEntity
8
0
100
AcDbPolyline
90
4
70
1
43
0.0
10
-14.765981284232229
20
78.234018715767704
10
-14.765981284232225
20
108.2340187157677
42
-0.99999999999999989
10
-8.7659812842322253
20
108.2340187157677
10
-8.7659812842322218
20
78.234018715767704
42
-0.99999999999999989
0
LWPOLYLINE
5
111
100
AcDbEntity
8
0
100
AcDbPolyline
90
4
70
1
43
0.0
10
-81.234018715767718
20
11.765981284232225
10
-81.234018715767718
20
41.765981284232225
42
-0.99999999999999989
10
-75.234018715767718
20
41.765981284232225
10
-75.234018715767718
20
11.765981284232225
42
-0.99999999999999989
0
LWPOLYLINE
5
112
100
AcDbEntity
8
0
100
AcDbPolyline
90
4
70
1
43
0.0
10
-81.234018715767718
20
78.234018715767718
10
-81.234018715767718
20
108.2340187157677
42
-0.99999999999999989
10
-75.234018715767689
20
108.2340187157677
10
-75.234018715767689
20
78.234018715767689
42
-0.99999999999999989
0
LWPOLYLINE
5
113
100
AcDbEntity
8
0
100
AcDbPolyline
90
4
70
1
43
0.0
10
-14.765981284232216
20
11.765981284232225
10
-14.765981284232216
20
41.765981284232225
42
-0.99999999999999989
10
-8.7659812842322165
20
41.765981284232225
10
-8.7659812842322165
20
11.765981284232225
42
-0.99999999999999989
0
ENDSEC
0
SECTION
2
OBJECTS
0
DICTIONARY
5
C
100
AcDbDictionary
3
ACAD_GROUP
350
D
3
ACAD_MLINESTYLE
350
17
0
DICTIONARY
5
D
100
AcDbDictionary
0
DICTIONARY
5
1A
330
C
100
AcDbDictionary
0
DICTIONARY
5
17
100
AcDbDictionary
0
ENDSEC
0
EOF
