0
SECTION
2
HEADER
9
$INSUNITS
70
4
9
$ACADVER
1
AC1014
9
$HANDSEED
5
FFFF
0
ENDSEC
0
SECTION
2
TABLES
0
TABLE
2
VPORT
5
8
100
AcDbSymbolTable
0
ENDTAB
0
TABLE
2
LTYPE
5
5
100
AcDbSymbolTable
0
LTYPE
5
14
100
AcDbSymbolTableRecord
100
AcDbLinetypeTableRecord
2
BYBLOCK
70
0
0
LTYPE
5
15
100
AcDbSymbolTableRecord
100
AcDbLinetypeTableRecord
2
BYLAYER
70
0
0
LTYPE
5
16
100
AcDbSymbolTableRecord
100
AcDbLinetypeTableRecord
2
DASHED
70
0
3
Dashed __ __ __ __ __ __ __ __ __ __ __ __ __ _
72
65
73
2
40
0.75
49
0.5
74
0
49
-0.25
74
0
0
ENDTAB
0
TABLE
2
LAYER
5
2
100
AcDbSymbolTable
70
3
0
LAYER
5
50
100
AcDbSymbolTableRecord
100
AcDbLayerTableRecord
2
1
70
0
62
7
6
DASHED
0
LAYER
5
51
100
AcDbSymbolTableRecord
100
AcDbLayerTableRecord
2
0
70
0
62
7
6
CONTINUOUS
0
ENDTAB
0
TABLE
2
STYLE
5
3
100
AcDbSymbolTable
70
1
0
STYLE
5
11
100
AcDbSymbolTableRecord
100
AcDbTextStyleTableRecord
2
STANDARD
70
0
0
ENDTAB
0
TABLE
2
VIEW
5
6
100
AcDbSymbolTable
70
0
0
ENDTAB
0
TABLE
2
UCS
5
7
100
AcDbSymbolTable
70
0
0
ENDTAB
0
TABLE
2
APPID
5
9
100
AcDbSymbolTable
70
2
0
APPID
5
12
100
AcDbSymbolTableRecord
100
AcDbRegAppTableRecord
2
ACAD
70
0
0
ENDTAB
0
TABLE
2
DIMSTYLE
5
A
100
AcDbSymbolTable
70
1
0
ENDTAB
0
TABLE
2
BLOCK_RECORD
5
1
100
AcDbSymbolTable
70
1
0
BLOCK_RECORD
5
1F
100
AcDbSymbolTableRecord
100
AcDbBlockTableRecord
2
*MODEL_SPACE
0
BLOCK_RECORD
5
1B
100
AcDbSymbolTableRecord
100
AcDbBlockTableRecord
2
*PAPER_SPACE
0
ENDTAB
0
ENDSEC
0
SECTION
2
BLOCKS
0
BLOCK
5
20
100
AcDbEntity
100
AcDbBlockBegin
2
*MODEL_SPACE
0
ENDBLK
5
21
100
AcDbEntity
100
AcDbBlockEnd
0
BLOCK
5
1C
100
AcDbEntity
100
AcDbBlockBegin
2
*PAPER_SPACE
0
ENDBLK
5
1D
100
AcDbEntity
100
AcDbBlockEnd
0
ENDSEC
0
SECTION
2
ENTITIES
0
LWPOLYLINE
5
100
100
AcDbEntity
8
0
100
AcDbPolyline
90
14
70
1
43
0.0
10
151.92358824068555
20
15.000000000000071
42
0.69825584705485277
10
158.39154121420873
20
32.626636501911825
10
134.19102593840728
20
53.150466987300398
42
-0.28641205012659526
10
122.90274685012542
20
88.447110067603504
10
135.6933991944845
20
138.88488618162779
42
0.36597738186304496
10
130.03949057465425
20
150.49091840566007
42
-0.071875227599075359
10
125.19069775568168
20
153.52620084749202
42
0.24153136105887296
10
116.29994674864101
20
155.5969204963433
10
43.745722814528008
20
137.44460567330685
42
0.16495273560161255
10
38.345266214834723
20
133.96692076930992
10
21.672455753097275
20
112.99621181244477
42
0.16952574916776533
10
19.499999999999975
20
106.77290472836316
10
19.499999999999961
20
25.000000000000007
42
0.41421356237309492
10
29.499999999999957
20
15.000000000000009
0
LWPOLYLINE
5
101
100
AcDbEntity
8
0
100
AcDbPolyline
90
11
70
1
43
0.0
10
139.87549028895305
20
188.70937873328117
42
0.33169842148610451
10
119.52749324552624
20
176.16184881967527
42
-0.24153136105887218
10
112.65931527782682
20
170.14840847846116
10
84.406934125248455
20
163.07995554251977
42
-0.71680784883272053
10
74.152302231136233
20
179.00425461467987
10
137.04026248888397
20
258.10340316450947
42
-0.48148026291619522
10
152.67496079450075
20
258.12896361811062
42
0.19111965361180633
10
175.1007286188817
20
245.3445943620024
42
-0.63772833085947822
10
180.3722589450372
20
227.99365657777727
10
159.75473931954036
20
209.52958715587243
42
0.12452746056469172
10
150.16536622830094
20
195.28980982853375
42
-0.34082127837916998
0
CIRCLE
5
102
100
AcDbEntity
8
0
100
AcDbCircle
10
138.11802447534407
20
168.78674552594646
30
0
40
7.5
210
0
220
0
230
1
0
LWPOLYLINE
5
103
100
AcDbEntity
8
0
100
AcDbPolyline
90
18
70
1
43
0.0
10
4.4999999999999574
20
5
42
0.41421356237309498
10
9.4999999999999591
20
0
10
245
20
1.1990408665951691e-13
42
0.4142135623730942
10
250
20
5.0000000000001146
10
250.00000000000003
20
19.645560616983872
42
0.38887873185298816
10
245.4357787137383
20
24.626534107442591
10
191.0957216834027
20
29.380673072949147
42
-0.15525685092740013
10
179.90293059130951
20
34.051294030960555
10
143.89295539869204
20
64.59042174016804
42
-0.28641205012659526
10
137.44251020538812
20
84.759932071769811
10
163.71801570185266
20
188.37294787686031
42
-0.14911231400540062
10
169.76172254353858
20
198.35549718153371
10
213.90075349486409
20
237.88431279585325
42
0.26388416752980343
10
220.19224937335531
20
256.59105682089796
10
214.35974531002233
20
286.6639254370379
42
0.64037209530505035
10
152.60359513584058
20
301.78157479428569
10
8.8449115061945704
20
120.96493795085377
42
0.16952574916776697
10
4.4999999999999609
20
108.51832378269053
0
CIRCLE
5
104
100
AcDbEntity
8
0
100
AcDbCircle
10
174.39328721169829
20
12.500000000027498
30
0
40
7.5
210
0
220
0
230
1
0
CIRCLE
5
105
100
AcDbEntity
8
0
100
AcDbCircle
10
180
20
280
30
0
40
16.000000000000014
210
0
220
0
230
1
0
ENDSEC
0
SECTION
2
OBJECTS
0
DICTIONARY
5
C
100
AcDbDictionary
3
ACAD_GROUP
350
D
3
ACAD_MLINESTYLE
350
17
0
DICTIONARY
5
D
100
AcDbDictionary
0
DICTIONARY
5
1A
330
C
100
AcDbDictionary
0
DICTIONARY
5
17
100
AcDbDictionary
0
ENDSEC
0
EOF
